AnekTamil-ExpandedMedium.ufo
<glyph name="R" format="2">
  <advance width="1576"/>
  <unicode hex="0052"/>
  <anchor x="799" y="0" name="bottom"/>
  <anchor x="789" y="1278" name="top"/>
  <outline>
    <contour>
      <point x="1237" y="0" type="line"/>
      <point x="1474" y="0" type="line"/>
      <point x="1420" y="250" type="line" smooth="yes"/>
      <point x="1373" y="469"/>
      <point x="1309" y="591"/>
      <point x="1050" y="604" type="curve"/>
      <point x="1163" y="571" type="line"/>
      <point x="1163" y="598" type="line"/>
      <point x="1358" y="625"/>
      <point x="1446" y="728"/>
      <point x="1446" y="904" type="curve" smooth="yes"/>
      <point x="1446" y="918" type="line" smooth="yes"/>
      <point x="1446" y="1144"/>
      <point x="1298" y="1278"/>
      <point x="969" y="1278" type="curve" smooth="yes"/>
      <point x="335" y="1278" type="line"/>
      <point x="335" y="1100" type="line"/>
      <point x="943" y="1100" type="line" smooth="yes"/>
      <point x="1137" y="1100"/>
      <point x="1220" y="1018"/>
      <point x="1220" y="883" type="curve" smooth="yes"/>
      <point x="1220" y="872" type="line" smooth="yes"/>
      <point x="1220" y="736"/>
      <point x="1133" y="645"/>
      <point x="938" y="645" type="curve" smooth="yes"/>
      <point x="335" y="644" type="line"/>
      <point x="335" y="472" type="line"/>
      <point x="893" y="471" type="line" smooth="yes"/>
      <point x="1108" y="471"/>
      <point x="1159" y="379"/>
      <point x="1194" y="208" type="curve" smooth="yes"/>
    </contour>
    <contour>
      <point x="185" y="0" type="line"/>
      <point x="404" y="0" type="line"/>
      <point x="404" y="494" type="line"/>
      <point x="404" y="576" type="line"/>
      <point x="404" y="1278" type="line"/>
      <point x="185" y="1278" type="line"/>
    </contour>
  </outline>
</glyph>
<glyph name="backslash" format="2">
  <advance width="1166"/>
  <unicode hex="005C"/>
  <outline>
    <contour>
      <point x="1149" y="-243" type="line"/>
      <point x="235" y="1333" type="line"/>
      <point x="17" y="1333" type="line"/>
      <point x="930" y="-243" type="line"/>
    </contour>
  </outline>
</glyph>
<glyph name="i" format="2">
  <advance width="541"/>
  <unicode hex="0069"/>
  <anchor x="271" y="0" name="bottom"/>
  <anchor x="423" y="5" name="ogonek"/>
  <outline>
    <contour>
      <point x="162" y="0" type="line"/>
      <point x="379" y="0" type="line"/>
      <point x="379" y="958" type="line"/>
      <point x="162" y="958" type="line"/>
    </contour>
    <contour>
      <point x="270" y="1124" type="curve" smooth="yes"/>
      <point x="361" y="1124"/>
      <point x="404" y="1165"/>
      <point x="404" y="1235" type="curve" smooth="yes"/>
      <point x="404" y="1239" type="line" smooth="yes"/>
      <point x="404" y="1307"/>
      <point x="361" y="1349"/>
      <point x="270" y="1349" type="curve" smooth="yes"/>
      <point x="180" y="1349"/>
      <point x="138" y="1307"/>
      <point x="138" y="1239" type="curve" smooth="yes"/>
      <point x="138" y="1235" type="line" smooth="yes"/>
      <point x="138" y="1166"/>
      <point x="180" y="1124"/>
    </contour>
  </outline>
</glyph>
<glyph name="Anusvara.tm" format="2">
  <unicode hex="0B82"/>
  <note>
Anusvara.tm
</note>
  <outline>
    <contour>
      <point x="368" y="1787" type="curve" smooth="yes"/>
      <point x="112" y="1787"/>
      <point x="0" y="1679"/>
      <point x="0" y="1502" type="curve" smooth="yes"/>
      <point x="0" y="1502" type="line" smooth="yes"/>
      <point x="0" y="1325"/>
      <point x="112" y="1219"/>
      <point x="368" y="1219" type="curve" smooth="yes"/>
      <point x="624" y="1219"/>
      <point x="736" y="1325"/>
      <point x="736" y="1502" type="curve" smooth="yes"/>
      <point x="736" y="1502" type="line" smooth="yes"/>
      <point x="736" y="1679"/>
      <point x="624" y="1787"/>
    </contour>
    <contour>
      <point x="368" y="1647" type="curve" smooth="yes"/>
      <point x="498" y="1647"/>
      <point x="556" y="1591"/>
      <point x="556" y="1502" type="curve" smooth="yes"/>
      <point x="556" y="1502" type="line" smooth="yes"/>
      <point x="556" y="1413"/>
      <point x="500" y="1358"/>
      <point x="368" y="1358" type="curve" smooth="yes"/>
      <point x="236" y="1358"/>
      <point x="181" y="1413"/>
      <point x="181" y="1502" type="curve" smooth="yes"/>
      <point x="181" y="1502" type="line" smooth="yes"/>
      <point x="181" y="1591"/>
      <point x="238" y="1647"/>
    </contour>
  </outline>
</glyph>
<glyph name="VowelA.tm" format="2">
  <advance width="2703"/>
  <unicode hex="0B85"/>
  <note>
vowelA.tm
</note>
  <outline>
    <contour>
      <point x="1293" y="1176" type="curve" smooth="yes"/>
      <point x="835" y="1176"/>
      <point x="610" y="970"/>
      <point x="610" y="646" type="curve" smooth="yes"/>
      <point x="610" y="627" type="line" smooth="yes"/>
      <point x="610" y="392"/>
      <point x="764" y="242"/>
      <point x="1065" y="242" type="curve" smooth="yes"/>
      <point x="1342" y="242"/>
      <point x="1465" y="370"/>
      <point x="1465" y="555" type="curve" smooth="yes"/>
      <point x="1465" y="587" type="line" smooth="yes"/>
      <point x="1465" y="772"/>
      <point x="1348" y="882"/>
      <point x="1120" y="882" type="curve" smooth="yes"/>
      <point x="941" y="882"/>
      <point x="830" y="793"/>
      <point x="796" y="680" type="curve"/>
      <point x="777" y="680" type="line"/>
      <point x="783" y="583" type="line"/>
      <point x="814" y="669"/>
      <point x="919" y="737"/>
      <point x="1059" y="737" type="curve" smooth="yes"/>
      <point x="1209" y="737"/>
      <point x="1279" y="679"/>
      <point x="1279" y="569" type="curve" smooth="yes"/>
      <point x="1279" y="567" type="line" smooth="yes"/>
      <point x="1279" y="455"/>
      <point x="1206" y="384"/>
      <point x="1055" y="384" type="curve" smooth="yes"/>
      <point x="879" y="384"/>
      <point x="796" y="475"/>
      <point x="796" y="623" type="curve"/>
      <point x="798" y="680" type="line"/>
      <point x="789" y="680" type="line"/>
      <point x="790" y="890"/>
      <point x="948" y="1033"/>
      <point x="1293" y="1033" type="curve" smooth="yes"/>
      <point x="1682" y="1033"/>
      <point x="1821" y="880"/>
      <point x="1821" y="604" type="curve" smooth="yes"/>
      <point x="1821" y="572" type="line" smooth="yes"/>
      <point x="1821" y="223"/>
      <point x="1594" y="58"/>
      <point x="1075" y="58" type="curve" smooth="yes"/>
      <point x="1072" y="58" type="line" smooth="yes"/>
      <point x="580" y="58"/>
      <point x="271" y="212"/>
      <point x="271" y="503" type="curve" smooth="yes"/>
      <point x="271" y="505" type="line" smooth="yes"/>
      <point x="271" y="509"/>
      <point x="271" y="513"/>
      <point x="272" y="519" type="curve"/>
      <point x="728" y="519" type="line"/>
      <point x="720" y="654" type="line"/>
      <point x="82" y="654" type="line"/>
      <point x="79" y="627"/>
      <point x="76" y="597"/>
      <point x="76" y="572" type="curve" smooth="yes"/>
      <point x="76" y="570" type="line" smooth="yes"/>
      <point x="76" y="117"/>
      <point x="454" y="-96"/>
      <point x="1072" y="-96" type="curve" smooth="yes"/>
      <point x="1076" y="-96" type="line" smooth="yes"/>
      <point x="1735" y="-96"/>
      <point x="2020" y="126"/>
      <point x="2020" y="573" type="curve" smooth="yes"/>
      <point x="2020" y="601" type="line" smooth="yes"/>
      <point x="2020" y="961"/>
      <point x="1808" y="1176"/>
    </contour>
    <contour>
      <point x="1320" y="654" type="line"/>
      <point x="1320" y="508" type="line"/>
      <point x="1871" y="507" type="line"/>
      <point x="1871" y="653" type="line"/>
    </contour>
    <contour>
      <point x="1899" y="653" type="line"/>
      <point x="1899" y="507" type="line"/>
      <point x="2313" y="507" type="line"/>
      <point x="2313" y="653" type="line"/>
    </contour>
    <contour>
      <point x="2298" y="1120" type="line"/>
      <point x="2298" y="-74" type="line"/>
      <point x="2504" y="-74" type="line"/>
      <point x="2504" y="1120" type="line"/>
    </contour>
  </outline>
</glyph>
<glyph name="VowelAa.tm" format="2">
  <advance width="3278"/>
  <unicode hex="0B86"/>
  <note>
vowelAa.tm
</note>
  <outline>
    <contour>
      <point x="2825" y="602" type="curve" smooth="yes"/>
      <point x="2649" y="602"/>
      <point x="2540" y="496"/>
      <point x="2511" y="363" type="curve"/>
      <point x="2476" y="363" type="line"/>
      <point x="2476" y="225" type="line"/>
      <point x="2490" y="225" type="line"/>
      <point x="2527" y="350"/>
      <point x="2622" y="420"/>
      <point x="2751" y="420" type="curve" smooth="yes"/>
      <point x="2920" y="420"/>
      <point x="2984" y="320"/>
      <point x="2984" y="134" type="curve" smooth="yes"/>
      <point x="2984" y="128" type="line" smooth="yes"/>
      <point x="2984" y="-141"/>
      <point x="2872" y="-275"/>
      <point x="2555" y="-275" type="curve" smooth="yes"/>
      <point x="2390" y="-275"/>
      <point x="2224" y="-241"/>
      <point x="2075" y="-186" type="curve"/>
      <point x="2111" y="-363" type="line"/>
      <point x="2248" y="-415"/>
      <point x="2407" y="-447"/>
      <point x="2582" y="-447" type="curve" smooth="yes"/>
      <point x="3023" y="-447"/>
      <point x="3193" y="-256"/>
      <point x="3193" y="132" type="curve" smooth="yes"/>
      <point x="3193" y="142" type="line" smooth="yes"/>
      <point x="3193" y="438"/>
      <point x="3085" y="602"/>
    </contour>
    <component base="VowelA.tm"/>
  </outline>
</glyph>
<glyph name="VowelI.tm" format="2">
  <advance width="2740"/>
  <unicode hex="0B87"/>
  <note>
vowelI.tm
</note>
  <outline>
    <contour>
      <point x="1325" y="1142" type="curve" smooth="yes"/>
      <point x="887" y="1142"/>
      <point x="670" y="946"/>
      <point x="670" y="638" type="curve" smooth="yes"/>
      <point x="670" y="619" type="line" smooth="yes"/>
      <point x="670" y="392"/>
      <point x="818" y="249"/>
      <point x="1110" y="249" type="curve" smooth="yes"/>
      <point x="1376" y="249"/>
      <point x="1498" y="376"/>
      <point x="1498" y="563" type="curve" smooth="yes"/>
      <point x="1498" y="568" type="line" smooth="yes"/>
      <point x="1498" y="751"/>
      <point x="1383" y="860"/>
      <point x="1157" y="860" type="curve" smooth="yes"/>
      <point x="984" y="860"/>
      <point x="879" y="773"/>
      <point x="848" y="663" type="curve"/>
      <point x="831" y="663" type="line"/>
      <point x="836" y="574" type="line"/>
      <point x="865" y="657"/>
      <point x="970" y="725"/>
      <point x="1107" y="725" type="curve" smooth="yes"/>
      <point x="1256" y="725"/>
      <point x="1324" y="667"/>
      <point x="1324" y="563" type="curve" smooth="yes"/>
      <point x="1324" y="561" type="line" smooth="yes"/>
      <point x="1324" y="459"/>
      <point x="1254" y="391"/>
      <point x="1101" y="391" type="curve" smooth="yes"/>
      <point x="931" y="391"/>
      <point x="848" y="475"/>
      <point x="848" y="612" type="curve" smooth="yes"/>
      <point x="850" y="663" type="line"/>
      <point x="841" y="663" type="line"/>
      <point x="841" y="864"/>
      <point x="991" y="1002"/>
      <point x="1312" y="1002" type="curve" smooth="yes"/>
      <point x="1666" y="1002"/>
      <point x="1795" y="865"/>
      <point x="1795" y="602" type="curve" smooth="yes"/>
      <point x="1795" y="572" type="line" smooth="yes"/>
      <point x="1795" y="222"/>
      <point x="1590" y="63"/>
      <point x="1097" y="63" type="curve" smooth="yes"/>
      <point x="611" y="63"/>
      <point x="318" y="195"/>
      <point x="318" y="480" type="curve" smooth="yes"/>
      <point x="318" y="489" type="line" smooth="yes"/>
      <point x="318" y="494"/>
      <point x="318" y="504"/>
      <point x="319" y="519" type="curve"/>
      <point x="778" y="519" type="line"/>
      <point x="771" y="673" type="line"/>
      <point x="124" y="673" type="line"/>
      <point x="120" y="630"/>
      <point x="118" y="583"/>
      <point x="118" y="558" type="curve" smooth="yes"/>
      <point x="118" y="544" type="line" smooth="yes"/>
      <point x="118" y="92"/>
      <point x="480" y="-101"/>
      <point x="1100" y="-101" type="curve" smooth="yes"/>
      <point x="1379" y="-101"/>
      <point x="1592" y="-52"/>
      <point x="1727" y="37" type="curve"/>
      <point x="1759" y="70" type="line"/>
      <point x="1921" y="175"/>
      <point x="1996" y="347"/>
      <point x="1996" y="580" type="curve"/>
      <point x="2003" y="596" type="line"/>
      <point x="2003" y="941"/>
      <point x="1806" y="1142"/>
    </contour>
    <contour>
      <point x="2621" y="677" type="curve"/>
      <point x="1367" y="676" type="line"/>
      <point x="1367" y="517" type="line"/>
      <point x="2431" y="517" type="line"/>
      <point x="2432" y="498"/>
      <point x="2433" y="476"/>
      <point x="2433" y="459" type="curve" smooth="yes"/>
      <point x="2433" y="452" type="line" smooth="yes"/>
      <point x="2433" y="187"/>
      <point x="2323" y="62"/>
      <point x="2045" y="62" type="curve" smooth="yes"/>
      <point x="1925" y="62"/>
      <point x="1798" y="91"/>
      <point x="1704" y="163" type="curve"/>
      <point x="1613" y="36" type="line"/>
      <point x="1705" y="-50"/>
      <point x="1881" y="-99"/>
      <point x="2060" y="-99" type="curve"/>
      <point x="2465" y="-99"/>
      <point x="2631" y="77"/>
      <point x="2631" y="502" type="curve" smooth="yes"/>
      <point x="2631" y="511" type="line" smooth="yes"/>
      <point x="2631" y="558"/>
      <point x="2627" y="627"/>
    </contour>
    <contour>
      <point x="1342" y="1615" type="curve" smooth="yes"/>
      <point x="589" y="1615"/>
      <point x="220" y="1356"/>
      <point x="220" y="913" type="curve" smooth="yes"/>
      <point x="220" y="907" type="line" smooth="yes"/>
      <point x="220" y="864"/>
      <point x="229" y="818"/>
      <point x="242" y="781" type="curve"/>
      <point x="446" y="732" type="line"/>
      <point x="431" y="772"/>
      <point x="418" y="834"/>
      <point x="418" y="893" type="curve" smooth="yes"/>
      <point x="418" y="899" type="line" smooth="yes"/>
      <point x="418" y="1238"/>
      <point x="718" y="1443"/>
      <point x="1342" y="1443" type="curve" smooth="yes"/>
      <point x="1974" y="1443"/>
      <point x="2268" y="1231"/>
      <point x="2268" y="884" type="curve" smooth="yes"/>
      <point x="2268" y="844"/>
      <point x="2265" y="800"/>
      <point x="2258" y="755" type="curve"/>
      <point x="2453" y="755" type="line"/>
      <point x="2462" y="808"/>
      <point x="2466" y="860"/>
      <point x="2466" y="906" type="curve" smooth="yes"/>
      <point x="2466" y="1349"/>
      <point x="2099" y="1615"/>
    </contour>
  </outline>
</glyph>
<glyph name="VowelIi.tm" format="2">
  <advance width="1704"/>
  <unicode hex="0B88"/>
  <note>
vowelIi.tm
</note>
  <outline>
    <contour>
      <point x="1042" y="0" type="line"/>
      <point x="1248" y="0" type="line"/>
      <point x="1248" y="1069" type="line"/>
      <point x="1042" y="1069" type="line"/>
    </contour>
    <contour>
      <point x="724" y="395" type="curve" smooth="yes"/>
      <point x="815" y="395"/>
      <point x="851" y="440"/>
      <point x="851" y="534" type="curve" smooth="yes"/>
      <point x="851" y="541" type="line" smooth="yes"/>
      <point x="851" y="633"/>
      <point x="811" y="677"/>
      <point x="724" y="677" type="curve" smooth="yes"/>
      <point x="638" y="677"/>
      <point x="597" y="633"/>
      <point x="597" y="541" type="curve" smooth="yes"/>
      <point x="597" y="534" type="line" smooth="yes"/>
      <point x="597" y="440"/>
      <point x="634" y="395"/>
    </contour>
    <contour>
      <point x="1549" y="395" type="curve" smooth="yes"/>
      <point x="1637" y="395"/>
      <point x="1676" y="440"/>
      <point x="1676" y="534" type="curve" smooth="yes"/>
      <point x="1676" y="541" type="line" smooth="yes"/>
      <point x="1676" y="633"/>
      <point x="1636" y="677"/>
      <point x="1549" y="677" type="curve" smooth="yes"/>
      <point x="1461" y="677"/>
      <point x="1422" y="633"/>
      <point x="1422" y="541" type="curve" smooth="yes"/>
      <point x="1422" y="534" type="line" smooth="yes"/>
      <point x="1422" y="440"/>
      <point x="1460" y="395"/>
    </contour>
    <contour>
      <point x="1281" y="1121" type="line"/>
      <point x="199" y="1121" type="line"/>
      <point x="199" y="0" type="line"/>
      <point x="405" y="0" type="line"/>
      <point x="405" y="959" type="line"/>
      <point x="1281" y="959" type="line"/>
    </contour>
    <component base="RaBeak_Nonexporting" xOffset="985"/>
  </outline>
</glyph>
<glyph name="VowelU.tm" format="2">
  <advance width="2408"/>
  <unicode hex="0B89"/>
  <note>
vowelU.tm
</note>
  <outline>
    <contour>
      <point x="857" y="1184" type="curve" smooth="yes"/>
      <point x="426" y="1184"/>
      <point x="190" y="1039"/>
      <point x="190" y="783" type="curve" smooth="yes"/>
      <point x="190" y="781" type="line" smooth="yes"/>
      <point x="190" y="595"/>
      <point x="313" y="471"/>
      <point x="597" y="471" type="curve" smooth="yes"/>
      <point x="866" y="471"/>
      <point x="960" y="582"/>
      <point x="960" y="730" type="curve" smooth="yes"/>
      <point x="960" y="732" type="line" smooth="yes"/>
      <point x="960" y="869"/>
      <point x="862" y="949"/>
      <point x="674" y="949" type="curve" smooth="yes"/>
      <point x="508" y="949"/>
      <point x="406" y="879"/>
      <point x="374" y="788" type="curve"/>
      <point x="358" y="788" type="line"/>
      <point x="361" y="700" type="line"/>
      <point x="389" y="768"/>
      <point x="483" y="821"/>
      <point x="608" y="821" type="curve" smooth="yes"/>
      <point x="731" y="821"/>
      <point x="789" y="783"/>
      <point x="789" y="712" type="curve" smooth="yes"/>
      <point x="789" y="710" type="line" smooth="yes"/>
      <point x="789" y="643"/>
      <point x="728" y="601"/>
      <point x="597" y="601" type="curve" smooth="yes"/>
      <point x="448" y="601"/>
      <point x="374" y="655"/>
      <point x="374" y="738" type="curve"/>
      <point x="376" y="788" type="line"/>
      <point x="367" y="788" type="line"/>
      <point x="371" y="949"/>
      <point x="537" y="1036"/>
      <point x="856" y="1036" type="curve" smooth="yes"/>
      <point x="1217" y="1036"/>
      <point x="1363" y="927"/>
      <point x="1363" y="739" type="curve" smooth="yes"/>
      <point x="1363" y="736" type="line" smooth="yes"/>
      <point x="1363" y="539"/>
      <point x="1270" y="434"/>
      <point x="933" y="416" type="curve" smooth="yes"/>
      <point x="344" y="385" type="line" smooth="yes"/>
      <point x="209" y="378"/>
      <point x="145" y="319"/>
      <point x="145" y="207" type="curve" smooth="yes"/>
      <point x="145" y="137"/>
      <point x="174" y="60"/>
      <point x="211" y="0" type="curve"/>
      <point x="2359" y="0" type="line"/>
      <point x="2392" y="149" type="line"/>
      <point x="329" y="149" type="line"/>
      <point x="321" y="166"/>
      <point x="315" y="187"/>
      <point x="315" y="207" type="curve" smooth="yes"/>
      <point x="315" y="236"/>
      <point x="330" y="250"/>
      <point x="372" y="252" type="curve" smooth="yes"/>
      <point x="956" y="278" type="line" smooth="yes"/>
      <point x="1407" y="298"/>
      <point x="1562" y="443"/>
      <point x="1562" y="735" type="curve" smooth="yes"/>
      <point x="1562" y="738" type="line" smooth="yes"/>
      <point x="1562" y="1022"/>
      <point x="1342" y="1184"/>
    </contour>
  </outline>
</glyph>
<glyph name="VowelEe.tm" format="2">
  <advance width="1878"/>
  <unicode hex="0B8F"/>
  <note>
vowelEe.tm
</note>
  <outline>
    <contour>
      <point x="1385" y="1068" type="line"/>
      <point x="1385" y="-155" type="line"/>
      <point x="698" y="-263" type="line"/>
      <point x="698" y="-424" type="line"/>
      <point x="1591" y="-303" type="line"/>
      <point x="1591" y="1068" type="line"/>
    </contour>
    <contour>
      <point x="971" y="959" type="line"/>
      <point x="1894" y="959" type="line"/>
      <point x="1869" y="1121" type="line"/>
      <point x="971" y="1121" type="line"/>
    </contour>
    <component base="VowelE_NonExporting" xOffset="19"/>
  </outline>
</glyph>
<glyph name="VowelO.tm" format="2">
  <advance width="2301"/>
  <unicode hex="0B92"/>
  <note>
vowelO.tm
</note>
  <outline>
    <contour>
      <point x="1144" y="1228" type="curve" smooth="yes"/>
      <point x="469" y="1228"/>
      <point x="124" y="977"/>
      <point x="124" y="546" type="curve" smooth="yes"/>
      <point x="124" y="540" type="line" smooth="yes"/>
      <point x="124" y="249"/>
      <point x="272" y="54"/>
      <point x="611" y="54" type="curve" smooth="yes"/>
      <point x="916" y="54"/>
      <point x="1040" y="205"/>
      <point x="1040" y="423" type="curve" smooth="yes"/>
      <point x="1040" y="426" type="line" smooth="yes"/>
      <point x="1040" y="645"/>
      <point x="919" y="765"/>
      <point x="680" y="765" type="curve" smooth="yes"/>
      <point x="485" y="765"/>
      <point x="362" y="671"/>
      <point x="325" y="557" type="curve"/>
      <point x="309" y="557" type="line"/>
      <point x="314" y="440" type="line"/>
      <point x="343" y="527"/>
      <point x="455" y="602"/>
      <point x="606" y="602" type="curve" smooth="yes"/>
      <point x="767" y="602"/>
      <point x="841" y="535"/>
      <point x="841" y="413" type="curve" smooth="yes"/>
      <point x="841" y="410" type="line" smooth="yes"/>
      <point x="841" y="293"/>
      <point x="767" y="212"/>
      <point x="605" y="212" type="curve" smooth="yes"/>
      <point x="414" y="212"/>
      <point x="326" y="319"/>
      <point x="326" y="479" type="curve"/>
      <point x="328" y="557" type="line"/>
      <point x="319" y="557" type="line"/>
      <point x="318" y="886"/>
      <point x="605" y="1060"/>
      <point x="1144" y="1060" type="curve" smooth="yes"/>
      <point x="1726" y="1060"/>
      <point x="1941" y="864"/>
      <point x="1941" y="535" type="curve" smooth="yes"/>
      <point x="1941" y="529" type="line" smooth="yes"/>
      <point x="1941" y="338"/>
      <point x="1878" y="242"/>
      <point x="1705" y="242" type="curve" smooth="yes"/>
      <point x="1521" y="242"/>
      <point x="1451" y="333"/>
      <point x="1451" y="507" type="curve" smooth="yes"/>
      <point x="1451" y="585"/>
      <point x="1458" y="647"/>
      <point x="1474" y="719" type="curve"/>
      <point x="1283" y="719" type="line"/>
      <point x="1269" y="662"/>
      <point x="1256" y="584"/>
      <point x="1256" y="505" type="curve" smooth="yes"/>
      <point x="1256" y="241"/>
      <point x="1375" y="105"/>
      <point x="1707" y="105" type="curve"/>
      <point x="1785" y="105"/>
      <point x="1848" y="119"/>
      <point x="1899" y="143" type="curve"/>
      <point x="2072" y="190"/>
      <point x="2140" y="342"/>
      <point x="2140" y="550" type="curve" smooth="yes"/>
      <point x="2140" y="557" type="line" smooth="yes"/>
      <point x="2140" y="955"/>
      <point x="1866" y="1228"/>
    </contour>
    <contour>
      <point x="2181" y="197" type="line"/>
      <point x="1819" y="197" type="line"/>
      <point x="1679" y="111" type="line"/>
      <point x="1679" y="98" type="line"/>
      <point x="1569" y="85"/>
      <point x="1518" y="34"/>
      <point x="1505" y="-100" type="curve" smooth="yes"/>
      <point x="1500" y="-151" type="line" smooth="yes"/>
      <point x="1479" y="-369"/>
      <point x="1396" y="-462"/>
      <point x="1194" y="-462" type="curve" smooth="yes"/>
      <point x="982" y="-462"/>
      <point x="872" y="-356"/>
      <point x="872" y="-121" type="curve" smooth="yes"/>
      <point x="872" y="-93"/>
      <point x="875" y="-59"/>
      <point x="877" y="-38" type="curve"/>
      <point x="672" y="-61" type="line"/>
      <point x="670" y="-77"/>
      <point x="669" y="-104"/>
      <point x="669" y="-134" type="curve" smooth="yes"/>
      <point x="669" y="-461"/>
      <point x="853" y="-626"/>
      <point x="1200" y="-626" type="curve" smooth="yes"/>
      <point x="1538" y="-626"/>
      <point x="1677" y="-481"/>
      <point x="1703" y="-159" type="curve" smooth="yes"/>
      <point x="1707" y="-110" type="line" smooth="yes"/>
      <point x="1714" y="-20"/>
      <point x="1744" y="39"/>
      <point x="1853" y="39" type="curve" smooth="yes"/>
      <point x="2157" y="40" type="line"/>
    </contour>
  </outline>
</glyph>
<glyph name="VowelOo.tm" format="2">
  <advance width="2301"/>
  <unicode hex="0B93"/>
  <note>
vowelOo.tm
</note>
  <outline>
    <contour>
      <point x="2181" y="197" type="line"/>
      <point x="1833" y="197" type="line"/>
      <point x="1692" y="112" type="line"/>
      <point x="1692" y="98" type="line"/>
      <point x="1586" y="85"/>
      <point x="1537" y="29"/>
      <point x="1522" y="-117" type="curve" smooth="yes"/>
      <point x="1517" y="-167" type="line" smooth="yes"/>
      <point x="1493" y="-409"/>
      <point x="1389" y="-513"/>
      <point x="1163" y="-513" type="curve" smooth="yes"/>
      <point x="1158" y="-513"/>
      <point x="1154" y="-513"/>
      <point x="1150" y="-513" type="curve"/>
      <point x="1150" y="-505" type="line"/>
      <point x="1061" y="-507" type="line"/>
      <point x="848" y="-501"/>
      <point x="737" y="-426"/>
      <point x="737" y="-284" type="curve" smooth="yes"/>
      <point x="737" y="-282" type="line" smooth="yes"/>
      <point x="737" y="-185"/>
      <point x="800" y="-126"/>
      <point x="915" y="-126" type="curve" smooth="yes"/>
      <point x="1031" y="-126"/>
      <point x="1087" y="-179"/>
      <point x="1087" y="-290" type="curve" smooth="yes"/>
      <point x="1087" y="-293" type="line" smooth="yes"/>
      <point x="1087" y="-384"/>
      <point x="1058" y="-480"/>
      <point x="1016" y="-540" type="curve"/>
      <point x="1150" y="-518" type="line"/>
      <point x="1150" y="-508" type="line"/>
      <point x="1223" y="-454"/>
      <point x="1271" y="-360"/>
      <point x="1271" y="-253" type="curve" smooth="yes"/>
      <point x="1271" y="-250" type="line" smooth="yes"/>
      <point x="1271" y="-73"/>
      <point x="1156" y="22"/>
      <point x="924" y="22" type="curve" smooth="yes"/>
      <point x="688" y="22"/>
      <point x="555" y="-94"/>
      <point x="555" y="-280" type="curve" smooth="yes"/>
      <point x="555" y="-281" type="line" smooth="yes"/>
      <point x="555" y="-525"/>
      <point x="750" y="-663"/>
      <point x="1141" y="-663" type="curve" smooth="yes"/>
      <point x="1530" y="-663"/>
      <point x="1689" y="-507"/>
      <point x="1717" y="-167" type="curve" smooth="yes"/>
      <point x="1721" y="-118" type="line" smooth="yes"/>
      <point x="1729" y="-22"/>
      <point x="1757" y="39"/>
      <point x="1866" y="39" type="curve" smooth="yes"/>
      <point x="2157" y="40" type="line"/>
    </contour>
    <contour>
      <point x="1144" y="1228" type="curve" smooth="yes"/>
      <point x="469" y="1228"/>
      <point x="124" y="977"/>
      <point x="124" y="546" type="curve" smooth="yes"/>
      <point x="124" y="540" type="line" smooth="yes"/>
      <point x="124" y="259"/>
      <point x="272" y="70"/>
      <point x="611" y="70" type="curve" smooth="yes"/>
      <point x="916" y="70"/>
      <point x="1040" y="218"/>
      <point x="1040" y="431" type="curve" smooth="yes"/>
      <point x="1040" y="434" type="line" smooth="yes"/>
      <point x="1040" y="648"/>
      <point x="919" y="765"/>
      <point x="680" y="765" type="curve" smooth="yes"/>
      <point x="485" y="765"/>
      <point x="362" y="671"/>
      <point x="325" y="557" type="curve"/>
      <point x="309" y="557" type="line"/>
      <point x="314" y="440" type="line"/>
      <point x="343" y="527"/>
      <point x="455" y="602"/>
      <point x="606" y="602" type="curve" smooth="yes"/>
      <point x="767" y="602"/>
      <point x="841" y="538"/>
      <point x="841" y="421" type="curve" smooth="yes"/>
      <point x="841" y="418" type="line" smooth="yes"/>
      <point x="841" y="305"/>
      <point x="767" y="228"/>
      <point x="605" y="228" type="curve" smooth="yes"/>
      <point x="414" y="228"/>
      <point x="326" y="329"/>
      <point x="326" y="479" type="curve"/>
      <point x="328" y="557" type="line"/>
      <point x="319" y="557" type="line"/>
      <point x="318" y="886"/>
      <point x="605" y="1060"/>
      <point x="1144" y="1060" type="curve" smooth="yes"/>
      <point x="1726" y="1060"/>
      <point x="1941" y="864"/>
      <point x="1941" y="535" type="curve" smooth="yes"/>
      <point x="1941" y="529" type="line" smooth="yes"/>
      <point x="1941" y="338"/>
      <point x="1878" y="242"/>
      <point x="1705" y="242" type="curve" smooth="yes"/>
      <point x="1521" y="242"/>
      <point x="1451" y="333"/>
      <point x="1451" y="507" type="curve" smooth="yes"/>
      <point x="1451" y="585"/>
      <point x="1458" y="647"/>
      <point x="1474" y="719" type="curve"/>
      <point x="1283" y="719" type="line"/>
      <point x="1269" y="662"/>
      <point x="1256" y="584"/>
      <point x="1256" y="505" type="curve" smooth="yes"/>
      <point x="1256" y="241"/>
      <point x="1375" y="105"/>
      <point x="1707" y="105" type="curve"/>
      <point x="1785" y="105"/>
      <point x="1848" y="119"/>
      <point x="1899" y="143" type="curve"/>
      <point x="2072" y="190"/>
      <point x="2140" y="342"/>
      <point x="2140" y="550" type="curve" smooth="yes"/>
      <point x="2140" y="557" type="line" smooth="yes"/>
      <point x="2140" y="955"/>
      <point x="1866" y="1228"/>
    </contour>
  </outline>
</glyph>
<glyph name="Nga.tm" format="2">
  <advance width="2645"/>
  <unicode hex="0B99"/>
  <note>
Nga.tm
</note>
  <anchor x="1451" y="1236" name="top"/>
  <outline>
    <contour>
      <point x="937" y="1061" type="line"/>
      <point x="937" y="0" type="line"/>
      <point x="1143" y="0" type="line"/>
      <point x="1143" y="1061" type="line"/>
    </contour>
    <contour>
      <point x="1536" y="740" type="curve" smooth="yes"/>
      <point x="1306" y="740"/>
      <point x="1184" y="625"/>
      <point x="1149" y="490" type="curve"/>
      <point x="1129" y="490" type="line"/>
      <point x="1129" y="383" type="line"/>
      <point x="1135" y="383" type="line"/>
      <point x="1186" y="490"/>
      <point x="1292" y="561"/>
      <point x="1436" y="561" type="curve" smooth="yes"/>
      <point x="1613" y="561"/>
      <point x="1685" y="475"/>
      <point x="1685" y="324" type="curve" smooth="yes"/>
      <point x="1685" y="322" type="line" smooth="yes"/>
      <point x="1685" y="175"/>
      <point x="1634" y="89"/>
      <point x="1548" y="14" type="curve"/>
      <point x="1548" y="0" type="line"/>
      <point x="2288" y="0" type="line"/>
      <point x="2288" y="159" type="line"/>
      <point x="1705" y="159" type="line"/>
      <point x="1800" y="116" type="line"/>
      <point x="1842" y="174"/>
      <point x="1885" y="279"/>
      <point x="1885" y="415" type="curve" smooth="yes"/>
      <point x="1885" y="419" type="line" smooth="yes"/>
      <point x="1885" y="622"/>
      <point x="1772" y="740"/>
    </contour>
    <contour>
      <point x="2241" y="1121" type="line"/>
      <point x="2241" y="0" type="line"/>
      <point x="2446" y="0" type="line"/>
      <point x="2446" y="1121" type="line"/>
    </contour>
    <contour>
      <point x="1397" y="1121" type="line"/>
      <point x="199" y="1121" type="line"/>
      <point x="199" y="0" type="line"/>
      <point x="405" y="0" type="line"/>
      <point x="405" y="959" type="line"/>
      <point x="1397" y="959" type="line"/>
    </contour>
    <component base="RaBeak_Nonexporting" xOffset="1166"/>
  </outline>
</glyph>
<glyph name="Ca.tm" format="2">
  <advance width="1773"/>
  <unicode hex="0B9A"/>
  <note>
Ca.tm
</note>
  <anchor x="1152" y="1236" name="top"/>
  <outline>
    <contour>
      <point x="1214" y="519" type="line"/>
      <point x="1741" y="519" type="line"/>
      <point x="1715" y="679" type="line"/>
      <point x="1214" y="679" type="line"/>
    </contour>
    <component base="KaComponent_Nonexporting" xOffset="47"/>
    <component base="KaBeak_Nonexporting" xOffset="1230"/>
  </outline>
</glyph>
<glyph name="Nna.tm" format="2">
  <advance width="4162"/>
  <unicode hex="0BA3"/>
  <note>
Nna.tm
</note>
  <anchor x="2309" y="1245" name="top"/>
  <outline>
    <contour>
      <point x="2311" y="1152" type="curve" smooth="yes"/>
      <point x="2010" y="1152"/>
      <point x="1800" y="1105"/>
      <point x="1662" y="1039" type="curve"/>
      <point x="1765" y="919" type="line"/>
      <point x="1891" y="960"/>
      <point x="2080" y="992"/>
      <point x="2311" y="992" type="curve" smooth="yes"/>
      <point x="2531" y="992"/>
      <point x="2732" y="963"/>
      <point x="2842" y="923" type="curve"/>
      <point x="2854" y="919" type="line"/>
      <point x="3072" y="855"/>
      <point x="3143" y="686"/>
      <point x="3143" y="499" type="curve" smooth="yes"/>
      <point x="3143" y="489" type="line" smooth="yes"/>
      <point x="3143" y="281"/>
      <point x="3075" y="145"/>
      <point x="2889" y="145" type="curve" smooth="yes"/>
      <point x="2700" y="145"/>
      <point x="2628" y="281"/>
      <point x="2628" y="489" type="curve" smooth="yes"/>
      <point x="2628" y="500" type="line" smooth="yes"/>
      <point x="2628" y="686"/>
      <point x="2701" y="855"/>
      <point x="2919" y="919" type="curve"/>
      <point x="2832" y="1024" type="line"/>
      <point x="2533" y="953"/>
      <point x="2420" y="726"/>
      <point x="2420" y="488" type="curve" smooth="yes"/>
      <point x="2420" y="477" type="line" smooth="yes"/>
      <point x="2420" y="182"/>
      <point x="2556" y="-24"/>
      <point x="2891" y="-24" type="curve" smooth="yes"/>
      <point x="3223" y="-24"/>
      <point x="3349" y="182"/>
      <point x="3349" y="477" type="curve" smooth="yes"/>
      <point x="3349" y="488" type="line" smooth="yes"/>
      <point x="3349" y="726"/>
      <point x="3240" y="933"/>
      <point x="2977" y="1034" type="curve"/>
      <point x="2975" y="1035" type="line"/>
      <point x="2835" y="1103"/>
      <point x="2630" y="1152"/>
    </contour>
    <contour>
      <point x="3669" y="976" type="line"/>
      <point x="3669" y="0" type="line"/>
      <point x="3875" y="0" type="line"/>
      <point x="3875" y="976" type="line"/>
    </contour>
    <contour>
      <point x="3803" y="1121" type="line"/>
      <point x="3304" y="1121" type="line" smooth="yes"/>
      <point x="3169" y="1121"/>
      <point x="3069" y="1114"/>
      <point x="2987" y="1106" type="curve"/>
      <point x="2928" y="943" type="line"/>
      <point x="3030" y="954"/>
      <point x="3134" y="959"/>
      <point x="3272" y="959" type="curve" smooth="yes"/>
      <point x="3803" y="959" type="line"/>
    </contour>
    <contour>
      <point x="1138" y="1155" type="curve" smooth="yes"/>
      <point x="482" y="1155"/>
      <point x="139" y="907"/>
      <point x="139" y="486" type="curve" smooth="yes"/>
      <point x="139" y="477" type="line" smooth="yes"/>
      <point x="139" y="177"/>
      <point x="286" y="-24"/>
      <point x="631" y="-24" type="curve" smooth="yes"/>
      <point x="942" y="-24"/>
      <point x="1069" y="131"/>
      <point x="1069" y="353" type="curve" smooth="yes"/>
      <point x="1069" y="356" type="line" smooth="yes"/>
      <point x="1069" y="579"/>
      <point x="946" y="702"/>
      <point x="702" y="702" type="curve" smooth="yes"/>
      <point x="502" y="702"/>
      <point x="376" y="604"/>
      <point x="340" y="485" type="curve"/>
      <point x="327" y="485" type="line"/>
      <point x="329" y="369" type="line"/>
      <point x="359" y="461"/>
      <point x="470" y="539"/>
      <point x="627" y="539" type="curve" smooth="yes"/>
      <point x="794" y="539"/>
      <point x="870" y="469"/>
      <point x="870" y="342" type="curve" smooth="yes"/>
      <point x="870" y="340" type="line" smooth="yes"/>
      <point x="870" y="218"/>
      <point x="793" y="134"/>
      <point x="625" y="134" type="curve" smooth="yes"/>
      <point x="428" y="134"/>
      <point x="340" y="244"/>
      <point x="340" y="412" type="curve"/>
      <point x="342" y="485" type="line"/>
      <point x="333" y="485" type="line"/>
      <point x="333" y="486"/>
      <point x="333" y="488"/>
      <point x="333" y="489" type="curve" smooth="yes"/>
      <point x="342" y="816"/>
      <point x="617" y="991"/>
      <point x="1146" y="991" type="curve" smooth="yes"/>
      <point x="1401" y="991"/>
      <point x="1578" y="963"/>
      <point x="1690" y="925" type="curve"/>
      <point x="1703" y="921" type="line"/>
      <point x="1919" y="857"/>
      <point x="1991" y="687"/>
      <point x="1991" y="499" type="curve" smooth="yes"/>
      <point x="1991" y="489" type="line" smooth="yes"/>
      <point x="1991" y="281"/>
      <point x="1924" y="145"/>
      <point x="1738" y="145" type="curve" smooth="yes"/>
      <point x="1549" y="145"/>
      <point x="1476" y="281"/>
      <point x="1476" y="489" type="curve" smooth="yes"/>
      <point x="1476" y="500" type="line" smooth="yes"/>
      <point x="1476" y="687"/>
      <point x="1549" y="857"/>
      <point x="1769" y="921" type="curve"/>
      <point x="1681" y="1026" type="line"/>
      <point x="1382" y="955"/>
      <point x="1269" y="727"/>
      <point x="1269" y="488" type="curve" smooth="yes"/>
      <point x="1269" y="477" type="line" smooth="yes"/>
      <point x="1269" y="182"/>
      <point x="1404" y="-24"/>
      <point x="1739" y="-24" type="curve" smooth="yes"/>
      <point x="2071" y="-24"/>
      <point x="2197" y="182"/>
      <point x="2197" y="477" type="curve" smooth="yes"/>
      <point x="2197" y="488" type="line" smooth="yes"/>
      <point x="2197" y="726"/>
      <point x="2087" y="935"/>
      <point x="1825" y="1036" type="curve"/>
      <point x="1823" y="1037" type="line"/>
      <point x="1679" y="1106"/>
      <point x="1467" y="1155"/>
    </contour>
    <component base="RaBeak_Nonexporting" xOffset="3558"/>
  </outline>
</glyph>
<glyph name="Ta.tm" format="2">
  <advance width="2002"/>
  <unicode hex="0BA4"/>
  <note>
Ta.tm
</note>
  <anchor x="1152" y="1236" name="top"/>
  <outline>
    <contour>
      <point x="1184" y="519" type="line"/>
      <point x="1274" y="519" type="line" smooth="yes"/>
      <point x="1570" y="519"/>
      <point x="1695" y="424"/>
      <point x="1695" y="189" type="curve" smooth="yes"/>
      <point x="1695" y="185" type="line" smooth="yes"/>
      <point x="1695" y="-133"/>
      <point x="1527" y="-246"/>
      <point x="1060" y="-246" type="curve" smooth="yes"/>
      <point x="571" y="-246" type="line"/>
      <point x="602" y="-415" type="line"/>
      <point x="1072" y="-415" type="line" smooth="yes"/>
      <point x="1685" y="-415"/>
      <point x="1902" y="-248"/>
      <point x="1902" y="183" type="curve" smooth="yes"/>
      <point x="1902" y="188" type="line" smooth="yes"/>
      <point x="1902" y="528"/>
      <point x="1715" y="679"/>
      <point x="1284" y="679" type="curve" smooth="yes"/>
      <point x="1184" y="679" type="line"/>
    </contour>
    <component base="Tail_NonExporting" xOffset="-28"/>
    <component base="KaComponent_Nonexporting" xOffset="47"/>
    <component base="KaBeak_Nonexporting" xOffset="1325"/>
  </outline>
</glyph>
<glyph name="Pa.tm" format="2">
  <advance width="1907"/>
  <unicode hex="0BAA"/>
  <note>
Pa.tm
</note>
  <anchor x="953" y="1236" name="top"/>
  <outline>
    <contour>
      <point x="1496" y="1121" type="line"/>
      <point x="1496" y="170" type="line"/>
      <point x="929" y="170" type="line"/>
      <point x="929" y="0" type="line"/>
      <point x="1708" y="0" type="line"/>
      <point x="1708" y="1121" type="line"/>
    </contour>
    <contour>
      <point x="411" y="1121" type="line"/>
      <point x="199" y="1121" type="line"/>
      <point x="199" y="0" type="line"/>
      <point x="1180" y="0" type="line"/>
      <point x="1180" y="170" type="line"/>
      <point x="411" y="170" type="line"/>
    </contour>
  </outline>
</glyph>
<glyph name="Ma.tm" format="2">
  <advance width="2102"/>
  <unicode hex="0BAE"/>
  <note>
Ma.tm
</note>
  <anchor x="1067" y="1236" name="top"/>
  <outline>
    <contour>
      <point x="199" y="1121" type="line"/>
      <point x="199" y="0" type="line"/>
      <point x="1260" y="0" type="line" smooth="yes"/>
      <point x="1760" y="0"/>
      <point x="1959" y="169"/>
      <point x="1959" y="575" type="curve" smooth="yes"/>
      <point x="1959" y="585" type="line" smooth="yes"/>
      <point x="1959" y="943"/>
      <point x="1773" y="1121"/>
      <point x="1295" y="1121" type="curve" smooth="yes"/>
      <point x="953" y="1121" type="line"/>
      <point x="953" y="51" type="line"/>
      <point x="1159" y="51" type="line"/>
      <point x="1159" y="959" type="line"/>
      <point x="1310" y="959" type="line" smooth="yes"/>
      <point x="1640" y="959"/>
      <point x="1749" y="832"/>
      <point x="1749" y="586" type="curve" smooth="yes"/>
      <point x="1749" y="574" type="line" smooth="yes"/>
      <point x="1749" y="279"/>
      <point x="1644" y="163"/>
      <point x="1278" y="163" type="curve" smooth="yes"/>
      <point x="405" y="163" type="line"/>
      <point x="405" y="1121" type="line"/>
    </contour>
  </outline>
</glyph>
<glyph name="Ra.tm" format="2">
  <advance width="1437"/>
  <unicode hex="0BB0"/>
  <note>
Ra.tm
</note>
  <anchor x="675" y="1236" name="top"/>
  <outline>
    <contour>
      <point x="1150" y="1069" type="line"/>
      <point x="944" y="1069" type="line"/>
      <point x="944" y="-124" type="line"/>
      <point x="137" y="-230" type="line"/>
      <point x="137" y="-403" type="line"/>
      <point x="1150" y="-278" type="line"/>
    </contour>
    <contour>
      <point x="1087" y="1121" type="line"/>
      <point x="199" y="1121" type="line"/>
      <point x="199" y="0" type="line"/>
      <point x="405" y="0" type="line"/>
      <point x="405" y="959" type="line"/>
      <point x="1087" y="959" type="line"/>
    </contour>
    <component base="RaBeak_Nonexporting" xOffset="833"/>
  </outline>
</glyph>
<glyph name="Rra.tm" format="2">
  <advance width="2067"/>
  <unicode hex="0BB1"/>
  <note>
Rra.tm
</note>
  <anchor x="1037" y="1236" name="top"/>
  <outline>
    <contour>
      <point x="630" y="1143" type="curve" smooth="yes"/>
      <point x="350" y="1143"/>
      <point x="192" y="997"/>
      <point x="192" y="667" type="curve" smooth="yes"/>
      <point x="192" y="0" type="line"/>
      <point x="398" y="0" type="line"/>
      <point x="398" y="679" type="line" smooth="yes"/>
      <point x="398" y="886"/>
      <point x="496" y="974"/>
      <point x="657" y="974" type="curve" smooth="yes"/>
      <point x="830" y="974"/>
      <point x="906" y="890"/>
      <point x="906" y="679" type="curve" smooth="yes"/>
      <point x="906" y="0" type="line"/>
      <point x="1111" y="0" type="line"/>
      <point x="1111" y="653" type="line" smooth="yes"/>
      <point x="1111" y="889"/>
      <point x="1235" y="976"/>
      <point x="1435" y="976" type="curve" smooth="yes"/>
      <point x="1637" y="976"/>
      <point x="1711" y="890"/>
      <point x="1711" y="758" type="curve" smooth="yes"/>
      <point x="1711" y="757" type="line" smooth="yes"/>
      <point x="1711" y="621"/>
      <point x="1632" y="543"/>
      <point x="1433" y="540" type="curve" smooth="yes"/>
      <point x="1280" y="537" type="line"/>
      <point x="1280" y="381" type="line"/>
      <point x="1424" y="378" type="line" smooth="yes"/>
      <point x="1638" y="371"/>
      <point x="1737" y="291"/>
      <point x="1737" y="106" type="curve" smooth="yes"/>
      <point x="1737" y="105" type="line" smooth="yes"/>
      <point x="1737" y="-143"/>
      <point x="1611" y="-246"/>
      <point x="1176" y="-246" type="curve" smooth="yes"/>
      <point x="494" y="-246" type="line"/>
      <point x="527" y="-415" type="line"/>
      <point x="1188" y="-415" type="line" smooth="yes"/>
      <point x="1768" y="-415"/>
      <point x="1947" y="-261"/>
      <point x="1947" y="92" type="curve" smooth="yes"/>
      <point x="1947" y="93" type="line" smooth="yes"/>
      <point x="1947" y="328"/>
      <point x="1825" y="449"/>
      <point x="1607" y="460" type="curve"/>
      <point x="1607" y="466" type="line"/>
      <point x="1808" y="480"/>
      <point x="1904" y="590"/>
      <point x="1904" y="789" type="curve" smooth="yes"/>
      <point x="1904" y="790" type="line" smooth="yes"/>
      <point x="1904" y="1011"/>
      <point x="1774" y="1144"/>
      <point x="1475" y="1144" type="curve" smooth="yes"/>
      <point x="1205" y="1144"/>
      <point x="1047" y="1031"/>
      <point x="1018" y="818" type="curve"/>
      <point x="1012" y="818" type="line"/>
      <point x="989" y="1029"/>
      <point x="871" y="1143"/>
    </contour>
    <component base="Tail_NonExporting" xOffset="-73"/>
  </outline>
</glyph>
<glyph name="La.tm" format="2">
  <advance width="2475"/>
  <unicode hex="0BB2"/>
  <note>
La.tm
</note>
  <anchor x="1399" y="1236" name="top"/>
  <outline>
    <contour>
      <point x="864" y="1149" type="curve" smooth="yes"/>
      <point x="382" y="1149"/>
      <point x="147" y="909"/>
      <point x="147" y="491" type="curve" smooth="yes"/>
      <point x="147" y="477" type="line" smooth="yes"/>
      <point x="147" y="177"/>
      <point x="294" y="-24"/>
      <point x="639" y="-24" type="curve" smooth="yes"/>
      <point x="950" y="-24"/>
      <point x="1077" y="131"/>
      <point x="1077" y="353" type="curve" smooth="yes"/>
      <point x="1077" y="356" type="line" smooth="yes"/>
      <point x="1077" y="579"/>
      <point x="954" y="702"/>
      <point x="710" y="702" type="curve" smooth="yes"/>
      <point x="510" y="702"/>
      <point x="384" y="604"/>
      <point x="348" y="485" type="curve"/>
      <point x="335" y="485" type="line"/>
      <point x="337" y="369" type="line"/>
      <point x="367" y="461"/>
      <point x="478" y="539"/>
      <point x="635" y="539" type="curve" smooth="yes"/>
      <point x="802" y="539"/>
      <point x="878" y="469"/>
      <point x="878" y="342" type="curve" smooth="yes"/>
      <point x="878" y="340" type="line" smooth="yes"/>
      <point x="878" y="218"/>
      <point x="801" y="134"/>
      <point x="633" y="134" type="curve" smooth="yes"/>
      <point x="436" y="134"/>
      <point x="348" y="244"/>
      <point x="348" y="412" type="curve"/>
      <point x="350" y="485" type="line"/>
      <point x="341" y="485" type="line"/>
      <point x="341" y="489"/>
      <point x="341" y="491"/>
      <point x="341" y="495" type="curve" smooth="yes"/>
      <point x="346" y="813"/>
      <point x="512" y="978"/>
      <point x="863" y="978" type="curve" smooth="yes"/>
      <point x="1211" y="978"/>
      <point x="1335" y="818"/>
      <point x="1335" y="501" type="curve" smooth="yes"/>
      <point x="1335" y="497" type="line" smooth="yes"/>
      <point x="1335" y="152"/>
      <point x="1486" y="-23"/>
      <point x="1836" y="-23" type="curve" smooth="yes"/>
      <point x="2190" y="-23"/>
      <point x="2330" y="170"/>
      <point x="2330" y="542" type="curve" smooth="yes"/>
      <point x="2330" y="554" type="line" smooth="yes"/>
      <point x="2330" y="925"/>
      <point x="2203" y="1149"/>
      <point x="1788" y="1149" type="curve" smooth="yes"/>
      <point x="1746" y="1149"/>
      <point x="1702" y="1144"/>
      <point x="1671" y="1139" type="curve"/>
      <point x="1632" y="967" type="line"/>
      <point x="1667" y="972"/>
      <point x="1706" y="976"/>
      <point x="1751" y="976" type="curve" smooth="yes"/>
      <point x="2036" y="976"/>
      <point x="2120" y="821"/>
      <point x="2120" y="552" type="curve" smooth="yes"/>
      <point x="2120" y="540" type="line" smooth="yes"/>
      <point x="2120" y="283"/>
      <point x="2043" y="147"/>
      <point x="1836" y="147" type="curve" smooth="yes"/>
      <point x="1628" y="147"/>
      <point x="1542" y="263"/>
      <point x="1542" y="513" type="curve" smooth="yes"/>
      <point x="1542" y="517" type="line" smooth="yes"/>
      <point x="1542" y="928"/>
      <point x="1355" y="1149"/>
    </contour>
  </outline>
</glyph>
<glyph name="Sha.tm" format="2">
  <advance width="2539"/>
  <unicode hex="0BB6"/>
  <note>
Sha.tm
</note>
  <anchor x="1275" y="1236" name="top"/>
  <outline>
    <contour>
      <point x="153" y="1121" type="line"/>
      <point x="153" y="437" type="line" smooth="yes"/>
      <point x="153" y="125"/>
      <point x="289" y="-26"/>
      <point x="619" y="-26" type="curve" smooth="yes"/>
      <point x="950" y="-26"/>
      <point x="1085" y="125"/>
      <point x="1085" y="437" type="curve" smooth="yes"/>
      <point x="1085" y="1121" type="line"/>
      <point x="877" y="1121" type="line"/>
      <point x="877" y="430" type="line" smooth="yes"/>
      <point x="877" y="226"/>
      <point x="785" y="146"/>
      <point x="619" y="146" type="curve" smooth="yes"/>
      <point x="453" y="146"/>
      <point x="360" y="226"/>
      <point x="360" y="430" type="curve" smooth="yes"/>
      <point x="360" y="1121" type="line"/>
    </contour>
    <contour>
      <point x="1466" y="1121" type="line"/>
      <point x="1466" y="437" type="line" smooth="yes"/>
      <point x="1466" y="125"/>
      <point x="1599" y="-26"/>
      <point x="1926" y="-26" type="curve" smooth="yes"/>
      <point x="2253" y="-26"/>
      <point x="2386" y="125"/>
      <point x="2386" y="437" type="curve" smooth="yes"/>
      <point x="2386" y="1121" type="line"/>
      <point x="2178" y="1121" type="line"/>
      <point x="2178" y="430" type="line" smooth="yes"/>
      <point x="2178" y="226"/>
      <point x="2087" y="146"/>
      <point x="1926" y="146" type="curve" smooth="yes"/>
      <point x="1764" y="146"/>
      <point x="1673" y="226"/>
      <point x="1673" y="430" type="curve" smooth="yes"/>
      <point x="1673" y="1121" type="line"/>
    </contour>
    <contour>
      <point x="930" y="1121" type="line"/>
      <point x="930" y="959" type="line"/>
      <point x="2319" y="959" type="line"/>
      <point x="2319" y="1121" type="line"/>
    </contour>
  </outline>
</glyph>
<glyph name="Ha.tm" format="2">
  <advance width="3896"/>
  <unicode hex="0BB9"/>
  <note>
Ha.tm
</note>
  <anchor x="1767" y="1236" name="top"/>
  <outline>
    <contour>
      <point x="1719" y="163" type="line"/>
      <point x="1719" y="0" type="line"/>
      <point x="2134" y="0" type="line"/>
      <point x="2134" y="163" type="line"/>
    </contour>
    <contour>
      <point x="2292" y="-246" type="line"/>
      <point x="562" y="-246" type="line"/>
      <point x="595" y="-415" type="line"/>
      <point x="2292" y="-415" type="line"/>
    </contour>
    <component base="Va_NonExporting" xOffset="5"/>
    <component base="Rra_Simple.tm" xOffset="1829"/>
    <component base="Tail_NonExporting" xOffset="-10"/>
  </outline>
</glyph>
<glyph name="MatraIDflt.tm" format="2">
  <advance width="1179"/>
  <unicode hex="0BBF"/>
  <note>
MatraIDflt.tm
</note>
  <outline>
    <contour>
      <point x="490" y="1783" type="curve" smooth="yes"/>
      <point x="176" y="1783"/>
      <point x="0" y="1620"/>
      <point x="0" y="1351" type="curve" smooth="yes"/>
      <point x="0" y="1351" type="line" smooth="yes"/>
      <point x="0" y="1250"/>
      <point x="31" y="1163"/>
      <point x="61" y="1114" type="curve"/>
      <point x="256" y="1114" type="line"/>
      <point x="227" y="1166"/>
      <point x="202" y="1237"/>
      <point x="202" y="1333" type="curve" smooth="yes"/>
      <point x="202" y="1333" type="line" smooth="yes"/>
      <point x="202" y="1514"/>
      <point x="303" y="1616"/>
      <point x="487" y="1616" type="curve" smooth="yes"/>
      <point x="693" y="1616"/>
      <point x="774" y="1505"/>
      <point x="774" y="1258" type="curve" smooth="yes"/>
      <point x="774" y="0" type="line"/>
      <point x="980" y="0" type="line"/>
      <point x="980" y="1250" type="line" smooth="yes"/>
      <point x="980" y="1615"/>
      <point x="837" y="1783"/>
    </contour>
  </outline>
</glyph>
<glyph name="MatraIiDflt.tm" format="2">
  <unicode hex="0BC0"/>
  <note>
MatraIiDflt.tm
</note>
  <outline>
    <contour>
      <point x="555" y="1891" type="curve" smooth="yes"/>
      <point x="192" y="1891"/>
      <point x="0" y="1735"/>
      <point x="0" y="1451" type="curve" smooth="yes"/>
      <point x="0" y="1451" type="line" smooth="yes"/>
      <point x="0" y="1297"/>
      <point x="53" y="1179"/>
      <point x="102" y="1114" type="curve"/>
      <point x="300" y="1114" type="line"/>
      <point x="242" y="1189"/>
      <point x="192" y="1306"/>
      <point x="192" y="1437" type="curve" smooth="yes"/>
      <point x="192" y="1437" type="line" smooth="yes"/>
      <point x="192" y="1616"/>
      <point x="295" y="1715"/>
      <point x="471" y="1736" type="curve"/>
      <point x="471" y="1728" type="line"/>
      <point x="507" y="1736"/>
      <point x="552" y="1740"/>
      <point x="598" y="1740" type="curve" smooth="yes"/>
      <point x="771" y="1740"/>
      <point x="846" y="1682"/>
      <point x="846" y="1577" type="curve" smooth="yes"/>
      <point x="846" y="1575" type="line" smooth="yes"/>
      <point x="846" y="1479"/>
      <point x="793" y="1429"/>
      <point x="681" y="1429" type="curve" smooth="yes"/>
      <point x="558" y="1429"/>
      <point x="507" y="1492"/>
      <point x="507" y="1595" type="curve" smooth="yes"/>
      <point x="507" y="1596" type="line" smooth="yes"/>
      <point x="507" y="1655"/>
      <point x="520" y="1699"/>
      <point x="540" y="1741" type="curve"/>
      <point x="471" y="1737" type="line"/>
      <point x="471" y="1730" type="line"/>
      <point x="407" y="1705"/>
      <point x="350" y="1648"/>
      <point x="350" y="1545" type="curve" smooth="yes"/>
      <point x="350" y="1543" type="line" smooth="yes"/>
      <point x="350" y="1391"/>
      <point x="453" y="1283"/>
      <point x="684" y="1283" type="curve" smooth="yes"/>
      <point x="909" y="1283"/>
      <point x="1024" y="1388"/>
      <point x="1024" y="1576" type="curve" smooth="yes"/>
      <point x="1024" y="1578" type="line" smooth="yes"/>
      <point x="1024" y="1774"/>
      <point x="865" y="1891"/>
    </contour>
  </outline>
</glyph>
<glyph name="MatraUDflt.tm" format="2">
  <advance width="1405"/>
  <unicode hex="0BC1"/>
  <note>
MatraUDflt.tm
</note>
  <outline>
    <contour>
      <point x="0" y="958" type="line"/>
      <point x="829" y="958" type="line" smooth="yes"/>
      <point x="1033" y="958"/>
      <point x="1120" y="878"/>
      <point x="1120" y="724" type="curve" smooth="yes"/>
      <point x="1120" y="722" type="line" smooth="yes"/>
      <point x="1120" y="575"/>
      <point x="1047" y="496"/>
      <point x="900" y="496" type="curve" smooth="yes"/>
      <point x="737" y="496"/>
      <point x="666" y="595"/>
      <point x="666" y="750" type="curve" smooth="yes"/>
      <point x="666" y="752" type="line" smooth="yes"/>
      <point x="666" y="833"/>
      <point x="678" y="903"/>
      <point x="697" y="960" type="curve"/>
      <point x="669" y="960" type="line"/>
      <point x="498" y="912" type="line"/>
      <point x="486" y="874"/>
      <point x="475" y="811"/>
      <point x="475" y="742" type="curve" smooth="yes"/>
      <point x="475" y="740" type="line" smooth="yes"/>
      <point x="475" y="509"/>
      <point x="605" y="338"/>
      <point x="902" y="338" type="curve" smooth="yes"/>
      <point x="1182" y="338"/>
      <point x="1319" y="482"/>
      <point x="1319" y="726" type="curve" smooth="yes"/>
      <point x="1319" y="730" type="line" smooth="yes"/>
      <point x="1319" y="983"/>
      <point x="1163" y="1121"/>
      <point x="812" y="1121" type="curve" smooth="yes"/>
      <point x="0" y="1121" type="line"/>
    </contour>
  </outline>
</glyph>
<glyph name="MatraE.tm" format="2">
  <advance width="2113"/>
  <unicode hex="0BC6"/>
  <note>
MatraE.tm
</note>
  <outline>
    <contour>
      <point x="1042" y="1407" type="curve" smooth="yes"/>
      <point x="465" y="1407"/>
      <point x="139" y="1134"/>
      <point x="139" y="677" type="curve" smooth="yes"/>
      <point x="139" y="664" type="line" smooth="yes"/>
      <point x="139" y="242"/>
      <point x="386" y="-24"/>
      <point x="889" y="-24" type="curve" smooth="yes"/>
      <point x="1284" y="-24"/>
      <point x="1444" y="144"/>
      <point x="1444" y="393" type="curve" smooth="yes"/>
      <point x="1444" y="403" type="line" smooth="yes"/>
      <point x="1444" y="653"/>
      <point x="1296" y="786"/>
      <point x="1013" y="786" type="curve" smooth="yes"/>
      <point x="736" y="786"/>
      <point x="574" y="661"/>
      <point x="574" y="437" type="curve" smooth="yes"/>
      <point x="574" y="435" type="line" smooth="yes"/>
      <point x="574" y="308"/>
      <point x="645" y="202"/>
      <point x="739" y="150" type="curve"/>
      <point x="739" y="134" type="line"/>
      <point x="836" y="126" type="line"/>
      <point x="790" y="197"/>
      <point x="756" y="290"/>
      <point x="756" y="383" type="curve" smooth="yes"/>
      <point x="756" y="385" type="line" smooth="yes"/>
      <point x="756" y="538"/>
      <point x="852" y="616"/>
      <point x="1005" y="616" type="curve" smooth="yes"/>
      <point x="1170" y="616"/>
      <point x="1238" y="535"/>
      <point x="1238" y="391" type="curve" smooth="yes"/>
      <point x="1238" y="384" type="line" smooth="yes"/>
      <point x="1238" y="234"/>
      <point x="1140" y="135"/>
      <point x="912" y="135" type="curve" smooth="yes"/>
      <point x="865" y="135"/>
      <point x="806" y="139"/>
      <point x="764" y="145" type="curve"/>
      <point x="739" y="148" type="line"/>
      <point x="739" y="144" type="line"/>
      <point x="467" y="192"/>
      <point x="346" y="379"/>
      <point x="346" y="657" type="curve"/>
      <point x="346" y="667" type="line" smooth="yes"/>
      <point x="346" y="1024"/>
      <point x="591" y="1237"/>
      <point x="1037" y="1237" type="curve" smooth="yes"/>
      <point x="1528" y="1237"/>
      <point x="1723" y="1019"/>
      <point x="1723" y="605" type="curve" smooth="yes"/>
      <point x="1723" y="0" type="line"/>
      <point x="1929" y="-1" type="line"/>
      <point x="1929" y="624" type="line" smooth="yes"/>
      <point x="1929" y="1122"/>
      <point x="1665" y="1407"/>
    </contour>
  </outline>
</glyph>
<glyph name="Om.tm" format="2">
  <advance width="2705"/>
  <unicode hex="0BD0"/>
  <note>
Om.tm
</note>
  <outline>
    <contour>
      <point x="1347" y="1281" type="curve" smooth="yes"/>
      <point x="540" y="1281"/>
      <point x="124" y="1010"/>
      <point x="124" y="552" type="curve" smooth="yes"/>
      <point x="124" y="546" type="line" smooth="yes"/>
      <point x="124" y="262"/>
      <point x="272" y="71"/>
      <point x="611" y="71" type="curve" smooth="yes"/>
      <point x="912" y="71"/>
      <point x="1035" y="219"/>
      <point x="1035" y="432" type="curve" smooth="yes"/>
      <point x="1035" y="434" type="line" smooth="yes"/>
      <point x="1035" y="650"/>
      <point x="915" y="769"/>
      <point x="677" y="769" type="curve" smooth="yes"/>
      <point x="484" y="769"/>
      <point x="362" y="676"/>
      <point x="325" y="563" type="curve"/>
      <point x="311" y="563" type="line"/>
      <point x="314" y="447" type="line"/>
      <point x="343" y="535"/>
      <point x="455" y="611"/>
      <point x="606" y="611" type="curve" smooth="yes"/>
      <point x="767" y="611"/>
      <point x="841" y="544"/>
      <point x="841" y="421" type="curve" smooth="yes"/>
      <point x="841" y="418" type="line" smooth="yes"/>
      <point x="841" y="300"/>
      <point x="767" y="219"/>
      <point x="605" y="219" type="curve" smooth="yes"/>
      <point x="414" y="219"/>
      <point x="326" y="326"/>
      <point x="326" y="485" type="curve"/>
      <point x="328" y="563" type="line"/>
      <point x="319" y="563" type="line"/>
      <point x="319" y="924"/>
      <point x="675" y="1113"/>
      <point x="1347" y="1113" type="curve" smooth="yes"/>
      <point x="2075" y="1113"/>
      <point x="2346" y="901"/>
      <point x="2346" y="544" type="curve" smooth="yes"/>
      <point x="2346" y="538" type="line" smooth="yes"/>
      <point x="2346" y="342"/>
      <point x="2284" y="245"/>
      <point x="2113" y="245" type="curve" smooth="yes"/>
      <point x="1932" y="245"/>
      <point x="1863" y="338"/>
      <point x="1863" y="516" type="curve" smooth="yes"/>
      <point x="1863" y="593"/>
      <point x="1869" y="657"/>
      <point x="1886" y="728" type="curve"/>
      <point x="1704" y="728" type="line"/>
      <point x="1690" y="671"/>
      <point x="1677" y="593"/>
      <point x="1677" y="513" type="curve" smooth="yes"/>
      <point x="1677" y="248"/>
      <point x="1792" y="112"/>
      <point x="2113" y="112" type="curve" smooth="yes"/>
      <point x="2190" y="112"/>
      <point x="2257" y="127"/>
      <point x="2304" y="150" type="curve"/>
      <point x="2476" y="197"/>
      <point x="2545" y="349"/>
      <point x="2545" y="559" type="curve" smooth="yes"/>
      <point x="2545" y="565" type="line" smooth="yes"/>
      <point x="2545" y="986"/>
      <point x="2215" y="1281"/>
    </contour>
    <contour>
      <point x="2585" y="206" type="line"/>
      <point x="2229" y="204" type="line"/>
      <point x="2161" y="120" type="line"/>
      <point x="2161" y="107" type="line"/>
      <point x="2059" y="93"/>
      <point x="2019" y="48"/>
      <point x="2000" y="-78" type="curve" smooth="yes"/>
      <point x="1993" y="-133" type="line" smooth="yes"/>
      <point x="1949" y="-445"/>
      <point x="1790" y="-577"/>
      <point x="1367" y="-577" type="curve" smooth="yes"/>
      <point x="909" y="-577"/>
      <point x="700" y="-413"/>
      <point x="700" y="-50" type="curve" smooth="yes"/>
      <point x="700" y="-1"/>
      <point x="705" y="63"/>
      <point x="714" y="107" type="curve"/>
      <point x="521" y="107" type="line"/>
      <point x="511" y="66"/>
      <point x="505" y="1"/>
      <point x="505" y="-64" type="curve" smooth="yes"/>
      <point x="505" y="-500"/>
      <point x="805" y="-735"/>
      <point x="1373" y="-735" type="curve" smooth="yes"/>
      <point x="1917" y="-735"/>
      <point x="2124" y="-541"/>
      <point x="2188" y="-142" type="curve" smooth="yes"/>
      <point x="2193" y="-88" type="line" smooth="yes"/>
      <point x="2205" y="-4"/>
      <point x="2228" y="47"/>
      <point x="2333" y="48" type="curve" smooth="yes"/>
      <point x="2562" y="49" type="line"/>
    </contour>
    <contour>
      <point x="1006" y="95" type="line"/>
      <point x="1006" y="-348" type="line"/>
      <point x="1482" y="-348" type="line" smooth="yes"/>
      <point x="1719" y="-348"/>
      <point x="1809" y="-271"/>
      <point x="1809" y="-81" type="curve" smooth="yes"/>
      <point x="1809" y="-77" type="line" smooth="yes"/>
      <point x="1809" y="92"/>
      <point x="1724" y="174"/>
      <point x="1498" y="174" type="curve" smooth="yes"/>
      <point x="1341" y="174" type="line"/>
      <point x="1341" y="-325" type="line"/>
      <point x="1450" y="-325" type="line"/>
      <point x="1450" y="82" type="line"/>
      <point x="1503" y="82" type="line" smooth="yes"/>
      <point x="1652" y="82"/>
      <point x="1698" y="29"/>
      <point x="1698" y="-76" type="curve" smooth="yes"/>
      <point x="1698" y="-81" type="line" smooth="yes"/>
      <point x="1698" y="-209"/>
      <point x="1654" y="-257"/>
      <point x="1487" y="-257" type="curve" smooth="yes"/>
      <point x="1126" y="-257" type="line"/>
      <point x="1126" y="95" type="line"/>
    </contour>
    <contour>
      <point x="1372" y="282" type="curve" smooth="yes"/>
      <point x="1438" y="282"/>
      <point x="1469" y="314"/>
      <point x="1469" y="367" type="curve" smooth="yes"/>
      <point x="1469" y="367" type="line" smooth="yes"/>
      <point x="1469" y="420"/>
      <point x="1435" y="450"/>
      <point x="1372" y="450" type="curve" smooth="yes"/>
      <point x="1309" y="450"/>
      <point x="1275" y="420"/>
      <point x="1275" y="367" type="curve" smooth="yes"/>
      <point x="1275" y="367" type="line" smooth="yes"/>
      <point x="1275" y="314"/>
      <point x="1306" y="282"/>
    </contour>
    <contour>
      <point x="1126" y="91" type="line"/>
      <point x="1126" y="106" type="line" smooth="yes"/>
      <point x="1126" y="240"/>
      <point x="1077" y="295"/>
      <point x="979" y="312" type="curve"/>
      <point x="943" y="199" type="line"/>
      <point x="988" y="190"/>
      <point x="1006" y="167"/>
      <point x="1006" y="91" type="curve"/>
    </contour>
  </outline>
</glyph>
<glyph name="Three.tm" format="2">
  <advance width="2414"/>
  <unicode hex="0BE9"/>
  <note>
Three.tm
</note>
  <outline>
    <contour>
      <point x="937" y="1061" type="line"/>
      <point x="937" y="0" type="line"/>
      <point x="1143" y="0" type="line"/>
      <point x="1143" y="1061" type="line"/>
    </contour>
    <contour>
      <point x="1536" y="740" type="curve" smooth="yes"/>
      <point x="1306" y="740"/>
      <point x="1184" y="625"/>
      <point x="1149" y="490" type="curve"/>
      <point x="1129" y="490" type="line"/>
      <point x="1129" y="383" type="line"/>
      <point x="1135" y="383" type="line"/>
      <point x="1186" y="490"/>
      <point x="1292" y="561"/>
      <point x="1436" y="561" type="curve" smooth="yes"/>
      <point x="1613" y="561"/>
      <point x="1685" y="475"/>
      <point x="1685" y="324" type="curve" smooth="yes"/>
      <point x="1685" y="322" type="line" smooth="yes"/>
      <point x="1685" y="175"/>
      <point x="1634" y="89"/>
      <point x="1548" y="14" type="curve"/>
      <point x="1548" y="0" type="line"/>
      <point x="2361" y="0" type="line"/>
      <point x="2398" y="163" type="line"/>
      <point x="1705" y="163" type="line"/>
      <point x="1800" y="116" type="line"/>
      <point x="1842" y="174"/>
      <point x="1885" y="279"/>
      <point x="1885" y="415" type="curve" smooth="yes"/>
      <point x="1885" y="419" type="line" smooth="yes"/>
      <point x="1885" y="622"/>
      <point x="1772" y="740"/>
    </contour>
    <contour>
      <point x="1393" y="1120" type="line"/>
      <point x="199" y="1120" type="line"/>
      <point x="199" y="0" type="line"/>
      <point x="405" y="0" type="line"/>
      <point x="405" y="959" type="line"/>
      <point x="1393" y="959" type="line"/>
    </contour>
    <component base="RaBeak_Nonexporting" xOffset="1166"/>
  </outline>
</glyph>
<glyph name="Four.tm" format="2">
  <advance width="2065"/>
  <unicode hex="0BEA"/>
  <note>
Four.tm
</note>
  <outline>
    <contour>
      <point x="1223" y="519" type="line"/>
      <point x="1858" y="519" type="line"/>
      <point x="1853" y="679" type="line"/>
      <point x="1223" y="679" type="line"/>
    </contour>
    <contour>
      <point x="1749" y="1120" type="line"/>
      <point x="1749" y="519" type="line"/>
      <point x="1942" y="519" type="line"/>
      <point x="1942" y="1120" type="line"/>
    </contour>
    <component base="KaComponent_Nonexporting" xOffset="47"/>
    <component base="KaBeak_Nonexporting" xOffset="1212"/>
  </outline>
</glyph>
<glyph name="Five.tm" format="2">
  <advance width="2712"/>
  <unicode hex="0BEB"/>
  <note>
Five.tm
</note>
  <outline>
    <contour>
      <point x="1641" y="1068" type="line"/>
      <point x="1641" y="0" type="line"/>
      <point x="1847" y="0" type="line"/>
      <point x="1847" y="1068" type="line"/>
    </contour>
    <contour>
      <point x="2205" y="702" type="curve" smooth="yes"/>
      <point x="2006" y="702"/>
      <point x="1886" y="594"/>
      <point x="1854" y="449" type="curve"/>
      <point x="1818" y="449" type="line"/>
      <point x="1818" y="309" type="line"/>
      <point x="1834" y="309" type="line"/>
      <point x="1874" y="446"/>
      <point x="1981" y="521"/>
      <point x="2130" y="521" type="curve" smooth="yes"/>
      <point x="2316" y="521"/>
      <point x="2391" y="420"/>
      <point x="2391" y="228" type="curve" smooth="yes"/>
      <point x="2391" y="224" type="line" smooth="yes"/>
      <point x="2391" y="-189"/>
      <point x="2107" y="-402"/>
      <point x="1476" y="-402" type="curve" smooth="yes"/>
      <point x="1465" y="-402" type="line" smooth="yes"/>
      <point x="716" y="-402"/>
      <point x="368" y="-92"/>
      <point x="368" y="556" type="curve" smooth="yes"/>
      <point x="368" y="567" type="line" smooth="yes"/>
      <point x="368" y="1226"/>
      <point x="741" y="1539"/>
      <point x="1555" y="1539" type="curve" smooth="yes"/>
      <point x="1942" y="1539"/>
      <point x="2233" y="1468"/>
      <point x="2476" y="1353" type="curve"/>
      <point x="2435" y="1551" type="line"/>
      <point x="2215" y="1648"/>
      <point x="1929" y="1713"/>
      <point x="1554" y="1713" type="curve" smooth="yes"/>
      <point x="620" y="1713"/>
      <point x="157" y="1333"/>
      <point x="157" y="569" type="curve" smooth="yes"/>
      <point x="157" y="554" type="line" smooth="yes"/>
      <point x="157" y="-200"/>
      <point x="594" y="-576"/>
      <point x="1465" y="-576" type="curve" smooth="yes"/>
      <point x="1477" y="-576" type="line" smooth="yes"/>
      <point x="2239" y="-576"/>
      <point x="2601" y="-296"/>
      <point x="2601" y="233" type="curve" smooth="yes"/>
      <point x="2601" y="237" type="line" smooth="yes"/>
      <point x="2601" y="538"/>
      <point x="2482" y="702"/>
    </contour>
    <contour>
      <point x="1990" y="1121" type="line"/>
      <point x="922" y="1121" type="line"/>
      <point x="922" y="0" type="line"/>
      <point x="1128" y="0" type="line"/>
      <point x="1128" y="959" type="line"/>
      <point x="1990" y="959" type="line"/>
    </contour>
    <component base="RaBeak_Nonexporting" xOffset="1746"/>
  </outline>
</glyph>
<glyph name="Six.tm" format="2">
  <advance width="2767"/>
  <unicode hex="0BEC"/>
  <note>
Six.tm
</note>
  <outline>
    <contour>
      <point x="1199" y="519" type="line"/>
      <point x="1366" y="519" type="line" smooth="yes"/>
      <point x="1570" y="519"/>
      <point x="1637" y="453"/>
      <point x="1637" y="249" type="curve"/>
      <point x="1637" y="0" type="line"/>
      <point x="1843" y="0" type="line"/>
      <point x="1843" y="249" type="line"/>
      <point x="1843" y="453"/>
      <point x="1910" y="519"/>
      <point x="2114" y="519" type="curve" smooth="yes"/>
      <point x="2729" y="519" type="line"/>
      <point x="2704" y="679" type="line"/>
      <point x="2091" y="679" type="line"/>
      <point x="1851" y="679"/>
      <point x="1759" y="599"/>
      <point x="1742" y="411" type="curve"/>
      <point x="1736" y="411" type="line"/>
      <point x="1719" y="599"/>
      <point x="1629" y="679"/>
      <point x="1389" y="679" type="curve" smooth="yes"/>
      <point x="1199" y="679" type="line"/>
    </contour>
    <contour>
      <point x="2245" y="579" type="line"/>
      <point x="2245" y="0" type="line"/>
      <point x="2451" y="0" type="line"/>
      <point x="2451" y="579" type="line"/>
    </contour>
    <component base="KaComponent_Nonexporting" xOffset="47"/>
    <component base="KaBeak_Nonexporting" xOffset="1325"/>
  </outline>
</glyph>
<glyph name="Eight.tm" format="2">
  <advance width="2553"/>
  <unicode hex="0BEE"/>
  <note>
Eight.tm
</note>
  <outline>
    <contour>
      <point x="2148" y="1120" type="line"/>
      <point x="2148" y="-74" type="line"/>
      <point x="2354" y="-74" type="line"/>
      <point x="2354" y="1120" type="line"/>
    </contour>
    <contour>
      <point x="1195" y="1176" type="curve"/>
      <point x="763" y="1176"/>
      <point x="546" y="954"/>
      <point x="542" y="592" type="curve" smooth="yes"/>
      <point x="542" y="580"/>
      <point x="542" y="567"/>
      <point x="543" y="550" type="curve"/>
      <point x="737" y="551" type="line"/>
      <point x="736" y="568"/>
      <point x="736" y="578"/>
      <point x="736" y="593" type="curve"/>
      <point x="740" y="867"/>
      <point x="885" y="1024"/>
      <point x="1195" y="1024" type="curve" smooth="yes"/>
      <point x="1534" y="1024"/>
      <point x="1655" y="866"/>
      <point x="1655" y="591" type="curve" smooth="yes"/>
      <point x="1655" y="559" type="line" smooth="yes"/>
      <point x="1655" y="219"/>
      <point x="1454" y="58"/>
      <point x="992" y="58" type="curve" smooth="yes"/>
      <point x="989" y="58" type="line" smooth="yes"/>
      <point x="548" y="58"/>
      <point x="271" y="203"/>
      <point x="271" y="477" type="curve" smooth="yes"/>
      <point x="271" y="478" type="line" smooth="yes"/>
      <point x="271" y="483"/>
      <point x="271" y="486"/>
      <point x="272" y="492" type="curve"/>
      <point x="2174" y="492" type="line"/>
      <point x="2166" y="636" type="line"/>
      <point x="82" y="636" type="line"/>
      <point x="79" y="608"/>
      <point x="76" y="576"/>
      <point x="76" y="550" type="curve" smooth="yes"/>
      <point x="76" y="548" type="line" smooth="yes"/>
      <point x="76" y="110"/>
      <point x="422" y="-96"/>
      <point x="989" y="-96" type="curve" smooth="yes"/>
      <point x="993" y="-96" type="line" smooth="yes"/>
      <point x="1595" y="-96"/>
      <point x="1855" y="122"/>
      <point x="1855" y="560" type="curve" smooth="yes"/>
      <point x="1855" y="588" type="line" smooth="yes"/>
      <point x="1855" y="952"/>
      <point x="1663" y="1176"/>
    </contour>
  </outline>
</glyph>
<glyph name="Nine.tm" format="2">
  <advance width="2673"/>
  <unicode hex="0BEF"/>
  <note>
Nine.tm
</note>
  <outline>
    <contour>
      <point x="1214" y="519" type="line"/>
      <point x="1366" y="519" type="line" smooth="yes"/>
      <point x="1570" y="519"/>
      <point x="1637" y="453"/>
      <point x="1637" y="249" type="curve"/>
      <point x="1637" y="0" type="line"/>
      <point x="1843" y="0" type="line"/>
      <point x="1843" y="264" type="line" smooth="yes"/>
      <point x="1843" y="480"/>
      <point x="1950" y="584"/>
      <point x="2135" y="584" type="curve" smooth="yes"/>
      <point x="2312" y="584"/>
      <point x="2382" y="487"/>
      <point x="2382" y="322" type="curve" smooth="yes"/>
      <point x="2382" y="321" type="line" smooth="yes"/>
      <point x="2382" y="176"/>
      <point x="2342" y="78"/>
      <point x="2291" y="0" type="curve"/>
      <point x="2495" y="0" type="line"/>
      <point x="2539" y="69"/>
      <point x="2585" y="198"/>
      <point x="2585" y="359" type="curve" smooth="yes"/>
      <point x="2585" y="363" type="line" smooth="yes"/>
      <point x="2585" y="609"/>
      <point x="2461" y="757"/>
      <point x="2171" y="757" type="curve" smooth="yes"/>
      <point x="1901" y="757"/>
      <point x="1760" y="615"/>
      <point x="1752" y="411" type="curve"/>
      <point x="1752" y="411" type="line"/>
      <point x="1746" y="411" type="line"/>
      <point x="1728" y="599"/>
      <point x="1635" y="679"/>
      <point x="1389" y="679" type="curve" smooth="yes"/>
      <point x="1214" y="679" type="line"/>
    </contour>
    <component base="KaComponent_Nonexporting" xOffset="47"/>
    <component base="KaBeak_Nonexporting" xOffset="1263"/>
  </outline>
</glyph>
<glyph name="Thousand.tm" format="2">
  <advance width="2781"/>
  <unicode hex="0BF2"/>
  <note>
Thousand.tm
</note>
  <outline>
    <contour>
      <point x="1196" y="519" type="line"/>
      <point x="2537" y="519" type="line"/>
      <point x="2511" y="679" type="line"/>
      <point x="1196" y="679" type="line"/>
    </contour>
    <contour>
      <point x="2070" y="584" type="line"/>
      <point x="2070" y="285" type="line"/>
      <point x="2067" y="269" type="line"/>
      <point x="2067" y="133" type="line" smooth="yes"/>
      <point x="2067" y="-11"/>
      <point x="1996" y="-74"/>
      <point x="1828" y="-74" type="curve" smooth="yes"/>
      <point x="1665" y="-74"/>
      <point x="1572" y="-13"/>
      <point x="1572" y="91" type="curve" smooth="yes"/>
      <point x="1572" y="92" type="line" smooth="yes"/>
      <point x="1572" y="169"/>
      <point x="1617" y="203"/>
      <point x="1717" y="203" type="curve" smooth="yes"/>
      <point x="2152" y="203" type="line"/>
      <point x="2170" y="199" type="line"/>
      <point x="2247" y="199" type="line" smooth="yes"/>
      <point x="2462" y="199"/>
      <point x="2553" y="129"/>
      <point x="2553" y="-49" type="curve" smooth="yes"/>
      <point x="2553" y="-52" type="line" smooth="yes"/>
      <point x="2553" y="-289"/>
      <point x="2432" y="-374"/>
      <point x="2097" y="-374" type="curve" smooth="yes"/>
      <point x="1751" y="-374" type="line"/>
      <point x="1761" y="-518" type="line"/>
      <point x="2106" y="-518" type="line" smooth="yes"/>
      <point x="2557" y="-518"/>
      <point x="2731" y="-391"/>
      <point x="2731" y="-53" type="curve" smooth="yes"/>
      <point x="2731" y="-50" type="line" smooth="yes"/>
      <point x="2731" y="220"/>
      <point x="2583" y="336"/>
      <point x="2254" y="336" type="curve" smooth="yes"/>
      <point x="2170" y="336" type="line"/>
      <point x="2152" y="333" type="line"/>
      <point x="1702" y="333" type="line" smooth="yes"/>
      <point x="1494" y="333"/>
      <point x="1401" y="255"/>
      <point x="1401" y="92" type="curve" smooth="yes"/>
      <point x="1401" y="91" type="line" smooth="yes"/>
      <point x="1401" y="-103"/>
      <point x="1555" y="-215"/>
      <point x="1832" y="-215" type="curve" smooth="yes"/>
      <point x="2119" y="-215"/>
      <point x="2236" y="-108"/>
      <point x="2236" y="137" type="curve" smooth="yes"/>
      <point x="2236" y="269" type="line"/>
      <point x="2236" y="285" type="line"/>
      <point x="2236" y="584" type="line"/>
    </contour>
    <contour>
      <point x="1883" y="-374" type="line"/>
      <point x="1688" y="-374" type="line" smooth="yes"/>
      <point x="1458" y="-374"/>
      <point x="1363" y="-400"/>
      <point x="1275" y="-446" type="curve"/>
      <point x="1249" y="-616" type="line"/>
      <point x="1362" y="-556"/>
      <point x="1464" y="-518"/>
      <point x="1692" y="-518" type="curve" smooth="yes"/>
      <point x="1883" y="-518" type="line"/>
    </contour>
    <component base="KaComponent_Nonexporting" xOffset="47"/>
    <component base="KaBeak_Nonexporting" xOffset="1263"/>
  </outline>
</glyph>
<glyph name="MonthSign.tm" format="2">
  <advance width="2102"/>
  <unicode hex="0BF4"/>
  <note>
MonthSign.tm
</note>
  <anchor x="1067" y="1236" name="top"/>
  <outline>
    <contour>
      <point x="2259" y="1947" type="curve" smooth="yes"/>
      <point x="1997" y="1947"/>
      <point x="1857" y="1807"/>
      <point x="1857" y="1555" type="curve" smooth="yes"/>
      <point x="1857" y="1551" type="line"/>
      <point x="1848" y="1551" type="line"/>
      <point x="1826" y="1708"/>
      <point x="1720" y="1791"/>
      <point x="1536" y="1791" type="curve" smooth="yes"/>
      <point x="1314" y="1791"/>
      <point x="1173" y="1656"/>
      <point x="1173" y="1440" type="curve"/>
      <point x="1173" y="1440" type="line" smooth="yes"/>
      <point x="1173" y="1283"/>
      <point x="1231" y="1171"/>
      <point x="1285" y="1107" type="curve"/>
      <point x="1487" y="1102" type="line"/>
      <point x="1422" y="1170"/>
      <point x="1366" y="1274"/>
      <point x="1366" y="1397" type="curve" smooth="yes"/>
      <point x="1366" y="1397" type="line"/>
      <point x="1366" y="1535"/>
      <point x="1434" y="1622"/>
      <point x="1567" y="1622" type="curve" smooth="yes"/>
      <point x="1699" y="1622"/>
      <point x="1764" y="1549"/>
      <point x="1764" y="1386" type="curve" smooth="yes"/>
      <point x="1764" y="1340" type="line"/>
      <point x="1960" y="1340" type="line"/>
      <point x="1960" y="1487" type="line" smooth="yes"/>
      <point x="1960" y="1688"/>
      <point x="2056" y="1773"/>
      <point x="2215" y="1773" type="curve" smooth="yes"/>
      <point x="2367" y="1773"/>
      <point x="2432" y="1685"/>
      <point x="2432" y="1549" type="curve" smooth="yes"/>
      <point x="2432" y="1546" type="line" smooth="yes"/>
      <point x="2432" y="1417"/>
      <point x="2385" y="1338"/>
      <point x="2313" y="1272" type="curve"/>
      <point x="2313" y="1254" type="line"/>
      <point x="3030" y="1254" type="line"/>
      <point x="3049" y="1411" type="line"/>
      <point x="2475" y="1411" type="line"/>
      <point x="2563" y="1359" type="line"/>
      <point x="2596" y="1410"/>
      <point x="2630" y="1493"/>
      <point x="2630" y="1615" type="curve" smooth="yes"/>
      <point x="2630" y="1621" type="line" smooth="yes"/>
      <point x="2630" y="1821"/>
      <point x="2511" y="1947"/>
    </contour>
    <component base="Ma.tm"/>
  </outline>
</glyph>
<glyph name="YearSign.tm" format="2">
  <advance width="5885"/>
  <unicode hex="0BF5"/>
  <note>
YearSign.tm
</note>
  <outline>
    <contour>
      <point x="3432" y="1068" type="line"/>
      <point x="3432" y="0" type="line"/>
      <point x="3638" y="0" type="line"/>
      <point x="3638" y="1068" type="line"/>
    </contour>
    <contour>
      <point x="2387" y="0" type="line"/>
      <point x="2795" y="0" type="line"/>
      <point x="2795" y="163" type="line"/>
      <point x="2378" y="163" type="line"/>
    </contour>
    <contour>
      <point x="2434" y="1792" type="line" smooth="yes"/>
      <point x="886" y="1792"/>
      <point x="152" y="1391"/>
      <point x="152" y="551" type="curve" smooth="yes"/>
      <point x="152" y="539" type="line" smooth="yes"/>
      <point x="152" y="-329"/>
      <point x="870" y="-728"/>
      <point x="2417" y="-728" type="curve" smooth="yes"/>
      <point x="2477" y="-728" type="line" smooth="yes"/>
      <point x="3820" y="-728"/>
      <point x="4393" y="-398"/>
      <point x="4393" y="238" type="curve" smooth="yes"/>
      <point x="4393" y="242" type="line" smooth="yes"/>
      <point x="4393" y="541"/>
      <point x="4274" y="702"/>
      <point x="3997" y="702" type="curve" smooth="yes"/>
      <point x="3797" y="702"/>
      <point x="3678" y="594"/>
      <point x="3645" y="449" type="curve"/>
      <point x="3608" y="449" type="line"/>
      <point x="3608" y="309" type="line"/>
      <point x="3624" y="309" type="line"/>
      <point x="3665" y="446"/>
      <point x="3772" y="521"/>
      <point x="3921" y="521" type="curve" smooth="yes"/>
      <point x="4109" y="521"/>
      <point x="4183" y="422"/>
      <point x="4183" y="233" type="curve" smooth="yes"/>
      <point x="4183" y="229" type="line" smooth="yes"/>
      <point x="4183" y="-287"/>
      <point x="3680" y="-555"/>
      <point x="2480" y="-555" type="curve" smooth="yes"/>
      <point x="2411" y="-555" type="line" smooth="yes"/>
      <point x="993" y="-555"/>
      <point x="364" y="-216"/>
      <point x="364" y="539" type="curve" smooth="yes"/>
      <point x="364" y="551" type="line" smooth="yes"/>
      <point x="364" y="1279"/>
      <point x="1007" y="1620"/>
      <point x="2429" y="1620" type="curve" smooth="yes"/>
      <point x="2498" y="1620" type="line" smooth="yes"/>
      <point x="4031" y="1620"/>
      <point x="4645" y="1283"/>
      <point x="4746" y="546" type="curve" smooth="yes"/>
      <point x="4753" y="495" type="line" smooth="yes"/>
      <point x="4800" y="153"/>
      <point x="4910" y="-23"/>
      <point x="5261" y="-23" type="curve" smooth="yes"/>
      <point x="5611" y="-23"/>
      <point x="5740" y="173"/>
      <point x="5740" y="555" type="curve" smooth="yes"/>
      <point x="5740" y="567" type="line" smooth="yes"/>
      <point x="5740" y="929"/>
      <point x="5614" y="1149"/>
      <point x="5203" y="1149" type="curve" smooth="yes"/>
      <point x="5159" y="1149"/>
      <point x="5117" y="1145"/>
      <point x="5086" y="1139" type="curve"/>
      <point x="5047" y="968" type="line"/>
      <point x="5081" y="973"/>
      <point x="5118" y="976"/>
      <point x="5162" y="976" type="curve" smooth="yes"/>
      <point x="5446" y="976"/>
      <point x="5530" y="823"/>
      <point x="5530" y="558" type="curve" smooth="yes"/>
      <point x="5530" y="547" type="line" smooth="yes"/>
      <point x="5530" y="285"/>
      <point x="5462" y="147"/>
      <point x="5261" y="147" type="curve" smooth="yes"/>
      <point x="5047" y="147"/>
      <point x="4997" y="270"/>
      <point x="4956" y="518" type="curve" smooth="yes"/>
      <point x="4948" y="566" type="line" smooth="yes"/>
      <point x="4807" y="1410"/>
      <point x="4138" y="1792"/>
      <point x="2495" y="1792" type="curve" smooth="yes"/>
    </contour>
    <contour>
      <point x="3772" y="1121" type="line"/>
      <point x="2713" y="1121" type="line"/>
      <point x="2713" y="0" type="line"/>
      <point x="2919" y="0" type="line"/>
      <point x="2919" y="959" type="line"/>
      <point x="3772" y="959" type="line"/>
    </contour>
    <component base="Va_NonExporting" xOffset="688"/>
    <component base="RaBeak_Nonexporting" xOffset="3504"/>
  </outline>
</glyph>
<glyph name="CreditSign.tm" format="2">
  <advance width="3463"/>
  <unicode hex="0BF7"/>
  <note>
CreditSign.tm
</note>
  <outline>
    <contour>
      <point x="2551" y="757" type="curve" smooth="yes"/>
      <point x="2276" y="757"/>
      <point x="2130" y="615"/>
      <point x="2129" y="411" type="curve"/>
      <point x="2129" y="411" type="line"/>
      <point x="2123" y="411" type="line"/>
      <point x="2105" y="599"/>
      <point x="2012" y="679"/>
      <point x="1766" y="679" type="curve" smooth="yes"/>
      <point x="1498" y="679" type="line"/>
      <point x="1498" y="519" type="line"/>
      <point x="1743" y="519" type="line" smooth="yes"/>
      <point x="1947" y="519"/>
      <point x="2014" y="453"/>
      <point x="2014" y="249" type="curve"/>
      <point x="2014" y="0" type="line"/>
      <point x="2220" y="0" type="line"/>
      <point x="2220" y="271" type="line"/>
      <point x="2220" y="480"/>
      <point x="2331" y="584"/>
      <point x="2509" y="584" type="curve" smooth="yes"/>
      <point x="2686" y="584"/>
      <point x="2759" y="492"/>
      <point x="2759" y="333" type="curve" smooth="yes"/>
      <point x="2759" y="331" type="line" smooth="yes"/>
      <point x="2759" y="180"/>
      <point x="2708" y="92"/>
      <point x="2623" y="14" type="curve"/>
      <point x="2623" y="0" type="line"/>
      <point x="3418" y="0" type="line"/>
      <point x="3447" y="162" type="line"/>
      <point x="2780" y="162" type="line"/>
      <point x="2875" y="116" type="line"/>
      <point x="2917" y="172"/>
      <point x="2959" y="264"/>
      <point x="2959" y="405" type="curve" smooth="yes"/>
      <point x="2959" y="409" type="line" smooth="yes"/>
      <point x="2959" y="629"/>
      <point x="2829" y="757"/>
    </contour>
    <component base="VowelE.tm"/>
  </outline>
</glyph>
<glyph name="AsAboveSign.tm" format="2">
  <advance width="4832"/>
  <unicode hex="0BF8"/>
  <note>
AsAboveSign.tm
</note>
  <outline>
    <contour>
      <point x="139" y="689" type="curve" smooth="yes"/>
      <point x="139" y="677" type="line" smooth="yes"/>
      <point x="139" y="247"/>
      <point x="386" y="-24"/>
      <point x="889" y="-24" type="curve" smooth="yes"/>
      <point x="1284" y="-24"/>
      <point x="1444" y="144"/>
      <point x="1444" y="393" type="curve" smooth="yes"/>
      <point x="1444" y="403" type="line" smooth="yes"/>
      <point x="1444" y="653"/>
      <point x="1296" y="786"/>
      <point x="1013" y="786" type="curve" smooth="yes"/>
      <point x="736" y="786"/>
      <point x="574" y="661"/>
      <point x="574" y="437" type="curve" smooth="yes"/>
      <point x="574" y="435" type="line" smooth="yes"/>
      <point x="574" y="308"/>
      <point x="645" y="201"/>
      <point x="739" y="150" type="curve"/>
      <point x="739" y="134" type="line"/>
      <point x="836" y="126" type="line"/>
      <point x="790" y="197"/>
      <point x="756" y="290"/>
      <point x="756" y="383" type="curve" smooth="yes"/>
      <point x="756" y="385" type="line" smooth="yes"/>
      <point x="756" y="538"/>
      <point x="852" y="616"/>
      <point x="1005" y="616" type="curve" smooth="yes"/>
      <point x="1170" y="616"/>
      <point x="1238" y="535"/>
      <point x="1238" y="391" type="curve" smooth="yes"/>
      <point x="1238" y="384" type="line" smooth="yes"/>
      <point x="1238" y="234"/>
      <point x="1140" y="135"/>
      <point x="912" y="135" type="curve" smooth="yes"/>
      <point x="865" y="135"/>
      <point x="806" y="139"/>
      <point x="764" y="145" type="curve"/>
      <point x="739" y="148" type="line"/>
      <point x="739" y="144" type="line"/>
      <point x="467" y="193"/>
      <point x="346" y="385"/>
      <point x="346" y="670" type="curve"/>
      <point x="346" y="680" type="line" smooth="yes"/>
      <point x="346" y="1047"/>
      <point x="599" y="1267"/>
      <point x="1058" y="1267" type="curve" smooth="yes"/>
      <point x="1541" y="1267"/>
      <point x="1753" y="1081"/>
      <point x="1794" y="741" type="curve"/>
      <point x="1936" y="900" type="line"/>
      <point x="1871" y="1219"/>
      <point x="1604" y="1437"/>
      <point x="1064" y="1437" type="curve" smooth="yes"/>
      <point x="473" y="1437"/>
      <point x="139" y="1157"/>
    </contour>
    <contour>
      <point x="1721" y="489" type="curve" smooth="yes"/>
      <point x="1721" y="477" type="line" smooth="yes"/>
      <point x="1721" y="177"/>
      <point x="1868" y="-24"/>
      <point x="2213" y="-24" type="curve" smooth="yes"/>
      <point x="2524" y="-24"/>
      <point x="2651" y="131"/>
      <point x="2651" y="353" type="curve" smooth="yes"/>
      <point x="2651" y="356" type="line" smooth="yes"/>
      <point x="2651" y="579"/>
      <point x="2528" y="702"/>
      <point x="2284" y="702" type="curve" smooth="yes"/>
      <point x="2084" y="702"/>
      <point x="1959" y="604"/>
      <point x="1922" y="485" type="curve"/>
      <point x="1909" y="485" type="line"/>
      <point x="1911" y="369" type="line"/>
      <point x="1941" y="461"/>
      <point x="2052" y="539"/>
      <point x="2210" y="539" type="curve" smooth="yes"/>
      <point x="2376" y="539"/>
      <point x="2453" y="469"/>
      <point x="2453" y="342" type="curve" smooth="yes"/>
      <point x="2453" y="340" type="line" smooth="yes"/>
      <point x="2453" y="218"/>
      <point x="2375" y="134"/>
      <point x="2207" y="134" type="curve" smooth="yes"/>
      <point x="2011" y="134"/>
      <point x="1923" y="244"/>
      <point x="1923" y="412" type="curve"/>
      <point x="1925" y="485" type="line"/>
      <point x="1916" y="485" type="line"/>
      <point x="1916" y="488"/>
      <point x="1916" y="490"/>
      <point x="1916" y="493" type="curve" smooth="yes"/>
      <point x="1921" y="810"/>
      <point x="2104" y="977"/>
      <point x="2476" y="977" type="curve" smooth="yes"/>
      <point x="2851" y="977"/>
      <point x="2997" y="807"/>
      <point x="2997" y="511" type="curve"/>
      <point x="2997" y="499" type="line" smooth="yes"/>
      <point x="2997" y="307"/>
      <point x="2948" y="152"/>
      <point x="2836" y="14" type="curve"/>
      <point x="2836" y="0" type="line"/>
      <point x="3391" y="0" type="line"/>
      <point x="3391" y="163" type="line"/>
      <point x="2997" y="163" type="line"/>
      <point x="3024" y="58" type="line"/>
      <point x="3149" y="180"/>
      <point x="3208" y="336"/>
      <point x="3208" y="541" type="curve" smooth="yes"/>
      <point x="3208" y="551" type="line"/>
      <point x="3208" y="922"/>
      <point x="3004" y="1149"/>
      <point x="2492" y="1149" type="curve" smooth="yes"/>
      <point x="2190" y="1149"/>
      <point x="1964" y="1050"/>
      <point x="1878" y="883" type="curve"/>
      <point x="1854" y="887" type="line"/>
      <point x="1757" y="787"/>
      <point x="1721" y="649"/>
    </contour>
    <component base="Ssa_Above_NonExporting" xOffset="3144"/>
    <component base="Ssa_Below_NonExporting" xOffset="3664"/>
  </outline>
</glyph>
<glyph name="RupeeSign.tm" format="2">
  <advance width="4198"/>
  <unicode hex="0BF9"/>
  <note>
RupeeSign.tm
</note>
  <outline>
    <contour>
      <point x="1641" y="1069" type="line"/>
      <point x="1641" y="0" type="line"/>
      <point x="1847" y="0" type="line"/>
      <point x="1847" y="1069" type="line"/>
    </contour>
    <contour>
      <point x="2205" y="702" type="curve" smooth="yes"/>
      <point x="2006" y="702"/>
      <point x="1886" y="594"/>
      <point x="1854" y="449" type="curve"/>
      <point x="1818" y="449" type="line"/>
      <point x="1818" y="309" type="line"/>
      <point x="1834" y="309" type="line"/>
      <point x="1874" y="446"/>
      <point x="1981" y="521"/>
      <point x="2130" y="521" type="curve" smooth="yes"/>
      <point x="2316" y="521"/>
      <point x="2391" y="420"/>
      <point x="2391" y="228" type="curve" smooth="yes"/>
      <point x="2391" y="224" type="line" smooth="yes"/>
      <point x="2391" y="-189"/>
      <point x="2109" y="-402"/>
      <point x="1482" y="-402" type="curve" smooth="yes"/>
      <point x="1470" y="-402" type="line" smooth="yes"/>
      <point x="718" y="-402"/>
      <point x="368" y="-80"/>
      <point x="368" y="569" type="curve" smooth="yes"/>
      <point x="368" y="582" type="line" smooth="yes"/>
      <point x="368" y="1248"/>
      <point x="760" y="1580"/>
      <point x="1608" y="1580" type="curve" smooth="yes"/>
      <point x="1621" y="1580" type="line" smooth="yes"/>
      <point x="2449" y="1580"/>
      <point x="2816" y="1275"/>
      <point x="2816" y="655" type="curve" smooth="yes"/>
      <point x="2816" y="638" type="line"/>
      <point x="3019" y="638" type="line"/>
      <point x="3019" y="755" type="line" smooth="yes"/>
      <point x="3019" y="961"/>
      <point x="3134" y="1059"/>
      <point x="3322" y="1059" type="curve" smooth="yes"/>
      <point x="3501" y="1059"/>
      <point x="3577" y="971"/>
      <point x="3577" y="823" type="curve" smooth="yes"/>
      <point x="3577" y="820" type="line" smooth="yes"/>
      <point x="3577" y="680"/>
      <point x="3523" y="597"/>
      <point x="3435" y="525" type="curve"/>
      <point x="3435" y="506" type="line"/>
      <point x="4174" y="506" type="line"/>
      <point x="4198" y="662" type="line"/>
      <point x="3598" y="662" type="line"/>
      <point x="3686" y="611" type="line"/>
      <point x="3729" y="665"/>
      <point x="3773" y="756"/>
      <point x="3773" y="889" type="curve" smooth="yes"/>
      <point x="3773" y="894" type="line" smooth="yes"/>
      <point x="3773" y="1108"/>
      <point x="3641" y="1235"/>
      <point x="3360" y="1235" type="curve" smooth="yes"/>
      <point x="3094" y="1235"/>
      <point x="2947" y="1101"/>
      <point x="2945" y="872" type="curve" smooth="yes"/>
      <point x="2945" y="870" type="line"/>
      <point x="2937" y="870" type="line"/>
      <point x="2897" y="1409"/>
      <point x="2472" y="1754"/>
      <point x="1621" y="1754" type="curve" smooth="yes"/>
      <point x="1608" y="1754" type="line" smooth="yes"/>
      <point x="640" y="1754"/>
      <point x="157" y="1356"/>
      <point x="157" y="583" type="curve" smooth="yes"/>
      <point x="157" y="567" type="line" smooth="yes"/>
      <point x="157" y="-187"/>
      <point x="596" y="-576"/>
      <point x="1470" y="-576" type="curve" smooth="yes"/>
      <point x="1482" y="-576" type="line" smooth="yes"/>
      <point x="2241" y="-576"/>
      <point x="2601" y="-296"/>
      <point x="2601" y="233" type="curve" smooth="yes"/>
      <point x="2601" y="237" type="line" smooth="yes"/>
      <point x="2601" y="538"/>
      <point x="2482" y="702"/>
    </contour>
    <contour>
      <point x="1990" y="1121" type="line"/>
      <point x="922" y="1121" type="line"/>
      <point x="922" y="1" type="line"/>
      <point x="1128" y="1" type="line"/>
      <point x="1128" y="959" type="line"/>
      <point x="1990" y="959" type="line"/>
    </contour>
    <component base="RaBeak_Nonexporting" xOffset="1746"/>
  </outline>
</glyph>
<glyph name="AsAboveSign_Simple.tm" format="2">
  <advance width="4494"/>
  <note>
AsAboveSign.tm
</note>
  <outline>
    <contour>
      <point x="918" y="1307" type="curve" smooth="yes"/>
      <point x="408" y="1307"/>
      <point x="151" y="1031"/>
      <point x="151" y="545" type="curve" smooth="yes"/>
      <point x="151" y="526" type="line" smooth="yes"/>
      <point x="151" y="199"/>
      <point x="305" y="-24"/>
      <point x="666" y="-24" type="curve" smooth="yes"/>
      <point x="981" y="-24"/>
      <point x="1109" y="136"/>
      <point x="1109" y="367" type="curve" smooth="yes"/>
      <point x="1109" y="370" type="line" smooth="yes"/>
      <point x="1109" y="601"/>
      <point x="980" y="729"/>
      <point x="724" y="729" type="curve" smooth="yes"/>
      <point x="522" y="729"/>
      <point x="389" y="628"/>
      <point x="352" y="511" type="curve"/>
      <point x="339" y="511" type="line"/>
      <point x="341" y="393" type="line"/>
      <point x="373" y="484"/>
      <point x="494" y="566"/>
      <point x="652" y="566" type="curve" smooth="yes"/>
      <point x="830" y="566"/>
      <point x="911" y="492"/>
      <point x="911" y="356" type="curve" smooth="yes"/>
      <point x="911" y="354" type="line" smooth="yes"/>
      <point x="911" y="223"/>
      <point x="833" y="134"/>
      <point x="663" y="134" type="curve" smooth="yes"/>
      <point x="451" y="134"/>
      <point x="353" y="265"/>
      <point x="353" y="461" type="curve"/>
      <point x="355" y="511" type="line"/>
      <point x="347" y="511" type="line"/>
      <point x="347" y="526"/>
      <point x="347" y="530"/>
      <point x="347" y="544" type="curve" smooth="yes"/>
      <point x="347" y="921"/>
      <point x="540" y="1134"/>
      <point x="923" y="1134" type="curve" smooth="yes"/>
      <point x="1251" y="1134"/>
      <point x="1416" y="964"/>
      <point x="1456" y="731" type="curve"/>
      <point x="1595" y="872" type="line"/>
      <point x="1534" y="1105"/>
      <point x="1311" y="1307"/>
    </contour>
    <contour>
      <point x="1384" y="489" type="curve" smooth="yes"/>
      <point x="1384" y="477" type="line" smooth="yes"/>
      <point x="1384" y="177"/>
      <point x="1531" y="-24"/>
      <point x="1876" y="-24" type="curve" smooth="yes"/>
      <point x="2187" y="-24"/>
      <point x="2314" y="131"/>
      <point x="2314" y="353" type="curve" smooth="yes"/>
      <point x="2314" y="356" type="line" smooth="yes"/>
      <point x="2314" y="579"/>
      <point x="2191" y="702"/>
      <point x="1947" y="702" type="curve" smooth="yes"/>
      <point x="1747" y="702"/>
      <point x="1621" y="604"/>
      <point x="1585" y="485" type="curve"/>
      <point x="1572" y="485" type="line"/>
      <point x="1574" y="369" type="line"/>
      <point x="1604" y="461"/>
      <point x="1715" y="539"/>
      <point x="1872" y="539" type="curve" smooth="yes"/>
      <point x="2039" y="539"/>
      <point x="2115" y="469"/>
      <point x="2115" y="342" type="curve" smooth="yes"/>
      <point x="2115" y="340" type="line" smooth="yes"/>
      <point x="2115" y="218"/>
      <point x="2038" y="134"/>
      <point x="1870" y="134" type="curve" smooth="yes"/>
      <point x="1673" y="134"/>
      <point x="1585" y="244"/>
      <point x="1585" y="412" type="curve"/>
      <point x="1587" y="485" type="line"/>
      <point x="1578" y="485" type="line"/>
      <point x="1578" y="488"/>
      <point x="1578" y="490"/>
      <point x="1578" y="493" type="curve" smooth="yes"/>
      <point x="1584" y="810"/>
      <point x="1767" y="977"/>
      <point x="2138" y="977" type="curve" smooth="yes"/>
      <point x="2513" y="977"/>
      <point x="2660" y="807"/>
      <point x="2660" y="511" type="curve"/>
      <point x="2660" y="499" type="line" smooth="yes"/>
      <point x="2660" y="307"/>
      <point x="2611" y="152"/>
      <point x="2498" y="14" type="curve"/>
      <point x="2498" y="0" type="line"/>
      <point x="3053" y="0" type="line"/>
      <point x="3053" y="163" type="line"/>
      <point x="2659" y="163" type="line"/>
      <point x="2686" y="58" type="line"/>
      <point x="2811" y="180"/>
      <point x="2870" y="336"/>
      <point x="2870" y="541" type="curve" smooth="yes"/>
      <point x="2870" y="551" type="line"/>
      <point x="2870" y="922"/>
      <point x="2667" y="1149"/>
      <point x="2155" y="1149" type="curve" smooth="yes"/>
      <point x="1853" y="1149"/>
      <point x="1627" y="1050"/>
      <point x="1541" y="883" type="curve"/>
      <point x="1516" y="887" type="line"/>
      <point x="1420" y="787"/>
      <point x="1384" y="649"/>
    </contour>
    <component base="Ssa_Above_NonExporting" xOffset="2806"/>
    <component base="Ssa_Below_Simple_NonExporting" xOffset="3315"/>
  </outline>
</glyph>
<glyph name="CaMatraI.tm" format="2">
  <advance width="2232"/>
  <note>
CaMatraI.tm
</note>
  <outline>
    <contour>
      <point x="1234" y="519" type="line"/>
      <point x="1691" y="519" type="line"/>
      <point x="1665" y="679" type="line"/>
      <point x="1234" y="679" type="line"/>
    </contour>
    <contour>
      <point x="1512" y="1783" type="curve" smooth="yes"/>
      <point x="1178" y="1783"/>
      <point x="991" y="1618"/>
      <point x="991" y="1346" type="curve" smooth="yes"/>
      <point x="991" y="1346" type="line" smooth="yes"/>
      <point x="991" y="1248"/>
      <point x="1021" y="1162"/>
      <point x="1049" y="1114" type="curve"/>
      <point x="1244" y="1114" type="line"/>
      <point x="1217" y="1165"/>
      <point x="1193" y="1235"/>
      <point x="1193" y="1328" type="curve" smooth="yes"/>
      <point x="1193" y="1328" type="line" smooth="yes"/>
      <point x="1193" y="1513"/>
      <point x="1305" y="1616"/>
      <point x="1509" y="1616" type="curve" smooth="yes"/>
      <point x="1739" y="1616"/>
      <point x="1827" y="1504"/>
      <point x="1827" y="1253" type="curve" smooth="yes"/>
      <point x="1827" y="0" type="line"/>
      <point x="2033" y="0" type="line"/>
      <point x="2033" y="1245" type="line" smooth="yes"/>
      <point x="2033" y="1613"/>
      <point x="1882" y="1783"/>
    </contour>
    <component base="KaComponent_Nonexporting" xOffset="47"/>
    <component base="KaBeak_Nonexporting" xOffset="1199"/>
  </outline>
</glyph>
<glyph name="CaMatraUu.tm" format="2">
  <advance width="3121"/>
  <note>
CaMatraUu.tm
</note>
  <outline>
    <contour>
      <point x="1832" y="519" type="line"/>
      <point x="2288" y="519" type="line"/>
      <point x="2357" y="527" type="line"/>
      <point x="2879" y="527" type="line"/>
      <point x="2854" y="679" type="line"/>
      <point x="1832" y="679" type="line"/>
    </contour>
    <contour>
      <point x="2221" y="571" type="line"/>
      <point x="2221" y="0" type="line"/>
      <point x="2427" y="0" type="line"/>
      <point x="2427" y="571" type="line"/>
    </contour>
    <contour>
      <point x="353" y="1121" type="line"/>
      <point x="259" y="995"/>
      <point x="153" y="752"/>
      <point x="153" y="427" type="curve" smooth="yes"/>
      <point x="153" y="-308"/>
      <point x="670" y="-657"/>
      <point x="1735" y="-657" type="curve" smooth="yes"/>
      <point x="1742" y="-657" type="line" smooth="yes"/>
      <point x="2632" y="-657"/>
      <point x="3071" y="-399"/>
      <point x="3071" y="46" type="curve" smooth="yes"/>
      <point x="3071" y="53" type="line" smooth="yes"/>
      <point x="3071" y="276"/>
      <point x="2967" y="400"/>
      <point x="2747" y="400" type="curve" smooth="yes"/>
      <point x="2571" y="400"/>
      <point x="2464" y="312"/>
      <point x="2433" y="204" type="curve"/>
      <point x="2397" y="204" type="line"/>
      <point x="2397" y="95" type="line"/>
      <point x="2413" y="95" type="line"/>
      <point x="2453" y="184"/>
      <point x="2542" y="238"/>
      <point x="2661" y="238" type="curve" smooth="yes"/>
      <point x="2800" y="238"/>
      <point x="2864" y="168"/>
      <point x="2864" y="42" type="curve" smooth="yes"/>
      <point x="2864" y="37" type="line" smooth="yes"/>
      <point x="2864" y="-293"/>
      <point x="2500" y="-483"/>
      <point x="1742" y="-483" type="curve" smooth="yes"/>
      <point x="1735" y="-483" type="line" smooth="yes"/>
      <point x="794" y="-483"/>
      <point x="364" y="-192"/>
      <point x="364" y="429" type="curve" smooth="yes"/>
      <point x="364" y="734"/>
      <point x="455" y="950"/>
      <point x="574" y="1121" type="curve"/>
    </contour>
    <component base="KaComponent_Nonexporting" xOffset="695"/>
    <component base="KaBeak_Nonexporting" xOffset="1974"/>
  </outline>
</glyph>
<glyph name="CaMatraUu_Simple.tm" format="2">
  <advance width="3163"/>
  <note>
CaMatraUu.tm
</note>
  <outline>
    <contour>
      <point x="1874" y="519" type="line"/>
      <point x="2330" y="519" type="line"/>
      <point x="2399" y="527" type="line"/>
      <point x="2921" y="527" type="line"/>
      <point x="2896" y="679" type="line"/>
      <point x="1874" y="679" type="line"/>
    </contour>
    <contour>
      <point x="2263" y="571" type="line"/>
      <point x="2263" y="0" type="line"/>
      <point x="2469" y="0" type="line"/>
      <point x="2469" y="571" type="line"/>
    </contour>
    <contour>
      <point x="195" y="1121" type="line"/>
      <point x="195" y="422" type="line"/>
      <point x="195" y="-305"/>
      <point x="712" y="-657"/>
      <point x="1777" y="-657" type="curve" smooth="yes"/>
      <point x="1784" y="-657" type="line" smooth="yes"/>
      <point x="2674" y="-657"/>
      <point x="3113" y="-399"/>
      <point x="3113" y="46" type="curve" smooth="yes"/>
      <point x="3113" y="53" type="line" smooth="yes"/>
      <point x="3113" y="276"/>
      <point x="3009" y="400"/>
      <point x="2789" y="400" type="curve" smooth="yes"/>
      <point x="2614" y="400"/>
      <point x="2507" y="312"/>
      <point x="2476" y="204" type="curve"/>
      <point x="2440" y="204" type="line"/>
      <point x="2440" y="95" type="line"/>
      <point x="2456" y="95" type="line"/>
      <point x="2495" y="184"/>
      <point x="2584" y="238"/>
      <point x="2703" y="238" type="curve" smooth="yes"/>
      <point x="2842" y="238"/>
      <point x="2906" y="168"/>
      <point x="2906" y="42" type="curve" smooth="yes"/>
      <point x="2906" y="37" type="line" smooth="yes"/>
      <point x="2906" y="-293"/>
      <point x="2542" y="-483"/>
      <point x="1784" y="-483" type="curve" smooth="yes"/>
      <point x="1777" y="-483" type="line" smooth="yes"/>
      <point x="836" y="-483"/>
      <point x="406" y="-188"/>
      <point x="406" y="424" type="curve"/>
      <point x="406" y="1121" type="line"/>
    </contour>
    <component base="KaComponent_Nonexporting" xOffset="737"/>
    <component base="KaBeak_Nonexporting" xOffset="2016"/>
  </outline>
</glyph>
<glyph name="HaMatraI.tm" format="2">
  <advance width="4506"/>
  <note>
HaMatraI.tm
</note>
  <anchor x="1767" y="1236" name="top"/>
  <outline>
    <contour>
      <point x="3757" y="1783" type="curve" smooth="yes"/>
      <point x="3427" y="1783"/>
      <point x="3223" y="1611"/>
      <point x="3223" y="1317" type="curve" smooth="yes"/>
      <point x="3223" y="1317" type="line" smooth="yes"/>
      <point x="3223" y="1230"/>
      <point x="3250" y="1137"/>
      <point x="3283" y="1082" type="curve"/>
      <point x="3478" y="1082" type="line"/>
      <point x="3449" y="1129"/>
      <point x="3424" y="1210"/>
      <point x="3424" y="1293" type="curve" smooth="yes"/>
      <point x="3424" y="1293" type="line" smooth="yes"/>
      <point x="3424" y="1502"/>
      <point x="3554" y="1613"/>
      <point x="3757" y="1613" type="curve" smooth="yes"/>
      <point x="3996" y="1613"/>
      <point x="4101" y="1494"/>
      <point x="4101" y="1206" type="curve" smooth="yes"/>
      <point x="4101" y="0" type="line"/>
      <point x="4307" y="0" type="line"/>
      <point x="4307" y="1197" type="line" smooth="yes"/>
      <point x="4307" y="1604"/>
      <point x="4141" y="1783"/>
    </contour>
    <component base="Ha.tm"/>
  </outline>
</glyph>
<glyph name="HaMatraI_Fly.tm" format="2">
  <advance width="3895"/>
  <note>
HaMatraI.tm
</note>
  <anchor x="1767" y="1236" name="top"/>
  <outline>
    <contour>
      <point x="3855" y="1610" type="line"/>
      <point x="3428" y="1610" type="line" smooth="yes"/>
      <point x="3208" y="1610"/>
      <point x="3107" y="1538"/>
      <point x="3107" y="1381" type="curve" smooth="yes"/>
      <point x="3107" y="1299"/>
      <point x="3139" y="1220"/>
      <point x="3210" y="1121" type="curve"/>
      <point x="3414" y="1121" type="line"/>
      <point x="3349" y="1204"/>
      <point x="3317" y="1264"/>
      <point x="3317" y="1323" type="curve" smooth="yes"/>
      <point x="3317" y="1409"/>
      <point x="3372" y="1442"/>
      <point x="3496" y="1442" type="curve" smooth="yes"/>
      <point x="3884" y="1442" type="line"/>
    </contour>
    <component base="Ha.tm"/>
  </outline>
</glyph>
<glyph name="HaMatraI_Simple_Fly.tm" format="2">
  <advance width="3896"/>
  <note>
HaMatraI.tm
</note>
  <anchor x="2866" y="1236" name="top"/>
  <outline>
    <contour>
      <point x="1744" y="162" type="line"/>
      <point x="1744" y="0" type="line"/>
      <point x="2121" y="0" type="line"/>
      <point x="2121" y="162" type="line"/>
    </contour>
    <contour>
      <point x="2129" y="-246" type="line"/>
      <point x="74" y="-246" type="line"/>
      <point x="106" y="-415" type="line"/>
      <point x="2129" y="-415" type="line"/>
    </contour>
    <component base="Va_NonExporting" xOffset="5"/>
    <component base="RraMatraI_Simple_Fly.tm" xOffset="1829"/>
  </outline>
</glyph>
<glyph name="HaMatraIi_Simple.tm" format="2">
  <advance width="3877"/>
  <note>
HaMatraIi.tm
</note>
  <anchor x="2847" y="1236" name="top"/>
  <outline>
    <contour>
      <point x="1719" y="162" type="line"/>
      <point x="1719" y="0" type="line"/>
      <point x="2134" y="0" type="line"/>
      <point x="2134" y="162" type="line"/>
    </contour>
    <contour>
      <point x="2127" y="-246" type="line"/>
      <point x="74" y="-246" type="line"/>
      <point x="106" y="-415" type="line"/>
      <point x="2127" y="-415" type="line"/>
    </contour>
    <component base="Va_NonExporting" xOffset="5"/>
    <component base="RraMatraIi_Simple.tm" xOffset="1810"/>
  </outline>
</glyph>
<glyph name="HaMatraU_Simple.tm" format="2">
  <advance width="4973"/>
  <note>
HaMatraU.tm
</note>
  <outline>
    <contour>
      <point x="1719" y="162" type="line"/>
      <point x="1719" y="0" type="line"/>
      <point x="2134" y="0" type="line"/>
      <point x="2134" y="162" type="line"/>
    </contour>
    <contour>
      <point x="2459" y="1143" type="curve" smooth="yes"/>
      <point x="2178" y="1143"/>
      <point x="2021" y="996"/>
      <point x="2021" y="667" type="curve" smooth="yes"/>
      <point x="2021" y="0" type="line"/>
      <point x="2227" y="0" type="line"/>
      <point x="2227" y="679" type="line" smooth="yes"/>
      <point x="2227" y="885"/>
      <point x="2325" y="974"/>
      <point x="2486" y="974" type="curve" smooth="yes"/>
      <point x="2658" y="974"/>
      <point x="2734" y="890"/>
      <point x="2734" y="679" type="curve" smooth="yes"/>
      <point x="2734" y="0" type="line"/>
      <point x="2939" y="0" type="line"/>
      <point x="2939" y="653" type="line" smooth="yes"/>
      <point x="2939" y="889"/>
      <point x="3063" y="976"/>
      <point x="3263" y="976" type="curve" smooth="yes"/>
      <point x="3466" y="976"/>
      <point x="3539" y="890"/>
      <point x="3539" y="758" type="curve" smooth="yes"/>
      <point x="3539" y="757" type="line" smooth="yes"/>
      <point x="3539" y="621"/>
      <point x="3460" y="544"/>
      <point x="3262" y="540" type="curve" smooth="yes"/>
      <point x="3108" y="537" type="line"/>
      <point x="3108" y="381" type="line"/>
      <point x="3252" y="378" type="line" smooth="yes"/>
      <point x="3467" y="374"/>
      <point x="3565" y="291"/>
      <point x="3565" y="106" type="curve" smooth="yes"/>
      <point x="3565" y="105" type="line" smooth="yes"/>
      <point x="3565" y="-143"/>
      <point x="3440" y="-246"/>
      <point x="3005" y="-246" type="curve" smooth="yes"/>
      <point x="74" y="-246" type="line"/>
      <point x="106" y="-415" type="line"/>
      <point x="3016" y="-415" type="line" smooth="yes"/>
      <point x="3596" y="-415"/>
      <point x="3776" y="-261"/>
      <point x="3776" y="92" type="curve" smooth="yes"/>
      <point x="3776" y="93" type="line" smooth="yes"/>
      <point x="3776" y="328"/>
      <point x="3653" y="449"/>
      <point x="3435" y="460" type="curve"/>
      <point x="3435" y="466" type="line"/>
      <point x="3637" y="479"/>
      <point x="3732" y="583"/>
      <point x="3732" y="775" type="curve" smooth="yes"/>
      <point x="3732" y="776" type="line" smooth="yes"/>
      <point x="3732" y="880"/>
      <point x="3695" y="971"/>
      <point x="3609" y="1021" type="curve"/>
      <point x="3599" y="1062" type="line"/>
      <point x="3535" y="1117"/>
      <point x="3437" y="1144"/>
      <point x="3304" y="1144" type="curve" smooth="yes"/>
      <point x="3034" y="1144"/>
      <point x="2876" y="1030"/>
      <point x="2847" y="818" type="curve"/>
      <point x="2839" y="818" type="line"/>
      <point x="2817" y="1029"/>
      <point x="2700" y="1143"/>
    </contour>
    <contour>
      <point x="3764" y="1121" type="line"/>
      <point x="3444" y="1121" type="line"/>
      <point x="3478" y="958" type="line"/>
      <point x="3764" y="958" type="line"/>
    </contour>
    <component base="Va_NonExporting" xOffset="5"/>
    <component base="MatraUDflt.tm" xOffset="3568"/>
  </outline>
</glyph>
<glyph name="JaMatraI_Fused.tm" format="2">
  <advance width="3009"/>
  <note>
JaMatraI.tm
</note>
  <anchor x="1372" y="1236" name="top"/>
  <outline>
    <contour>
      <point x="2279" y="1783" type="curve" smooth="yes"/>
      <point x="1942" y="1783"/>
      <point x="1753" y="1614"/>
      <point x="1753" y="1346" type="curve" smooth="yes"/>
      <point x="1753" y="1346" type="line" smooth="yes"/>
      <point x="1753" y="1251"/>
      <point x="1780" y="1167"/>
      <point x="1809" y="1117" type="curve"/>
      <point x="2007" y="1117" type="line"/>
      <point x="1977" y="1166"/>
      <point x="1955" y="1233"/>
      <point x="1955" y="1318" type="curve" smooth="yes"/>
      <point x="1955" y="1318" type="line" smooth="yes"/>
      <point x="1955" y="1507"/>
      <point x="2069" y="1613"/>
      <point x="2275" y="1613" type="curve" smooth="yes"/>
      <point x="2513" y="1613"/>
      <point x="2604" y="1496"/>
      <point x="2604" y="1236" type="curve" smooth="yes"/>
      <point x="2604" y="0" type="line"/>
      <point x="2810" y="0" type="line"/>
      <point x="2810" y="1227" type="line" smooth="yes"/>
      <point x="2810" y="1608"/>
      <point x="2655" y="1783"/>
    </contour>
    <component base="Ja_Fused.tm"/>
  </outline>
</glyph>
<glyph name="JaMatraI_Fused_Fly.tm" format="2">
  <advance width="2403"/>
  <note>
JaMatraI.tm
</note>
  <anchor x="1372" y="1236" name="top"/>
  <outline>
    <contour>
      <point x="2380" y="1610" type="line"/>
      <point x="1953" y="1610" type="line" smooth="yes"/>
      <point x="1733" y="1610"/>
      <point x="1632" y="1538"/>
      <point x="1632" y="1381" type="curve" smooth="yes"/>
      <point x="1632" y="1300"/>
      <point x="1663" y="1221"/>
      <point x="1733" y="1124" type="curve"/>
      <point x="1938" y="1124" type="line"/>
      <point x="1874" y="1204"/>
      <point x="1842" y="1265"/>
      <point x="1842" y="1323" type="curve" smooth="yes"/>
      <point x="1842" y="1409"/>
      <point x="1897" y="1442"/>
      <point x="2021" y="1442" type="curve" smooth="yes"/>
      <point x="2409" y="1442" type="line"/>
    </contour>
    <component base="Ja_Fused.tm"/>
  </outline>
</glyph>
<glyph name="JaMatraIi_Fused.tm" format="2">
  <advance width="2403"/>
  <note>
JaMatraIi.tm
</note>
  <anchor x="1372" y="1236" name="top"/>
  <outline>
    <contour>
      <point x="2215" y="1891" type="curve" smooth="yes"/>
      <point x="1852" y="1891"/>
      <point x="1660" y="1735"/>
      <point x="1660" y="1451" type="curve" smooth="yes"/>
      <point x="1660" y="1451" type="line" smooth="yes"/>
      <point x="1660" y="1309"/>
      <point x="1711" y="1196"/>
      <point x="1756" y="1135" type="curve"/>
      <point x="1959" y="1130" type="line"/>
      <point x="1902" y="1201"/>
      <point x="1852" y="1313"/>
      <point x="1852" y="1437" type="curve" smooth="yes"/>
      <point x="1852" y="1437" type="line" smooth="yes"/>
      <point x="1852" y="1616"/>
      <point x="1955" y="1715"/>
      <point x="2131" y="1736" type="curve"/>
      <point x="2131" y="1728" type="line"/>
      <point x="2167" y="1736"/>
      <point x="2212" y="1740"/>
      <point x="2258" y="1740" type="curve" smooth="yes"/>
      <point x="2431" y="1740"/>
      <point x="2506" y="1682"/>
      <point x="2506" y="1577" type="curve" smooth="yes"/>
      <point x="2506" y="1575" type="line" smooth="yes"/>
      <point x="2506" y="1479"/>
      <point x="2453" y="1429"/>
      <point x="2341" y="1429" type="curve" smooth="yes"/>
      <point x="2218" y="1429"/>
      <point x="2167" y="1492"/>
      <point x="2167" y="1595" type="curve" smooth="yes"/>
      <point x="2167" y="1596" type="line" smooth="yes"/>
      <point x="2167" y="1655"/>
      <point x="2180" y="1699"/>
      <point x="2200" y="1741" type="curve"/>
      <point x="2131" y="1737" type="line"/>
      <point x="2131" y="1730" type="line"/>
      <point x="2067" y="1705"/>
      <point x="2010" y="1648"/>
      <point x="2010" y="1545" type="curve" smooth="yes"/>
      <point x="2010" y="1543" type="line" smooth="yes"/>
      <point x="2010" y="1391"/>
      <point x="2113" y="1283"/>
      <point x="2344" y="1283" type="curve" smooth="yes"/>
      <point x="2569" y="1283"/>
      <point x="2684" y="1388"/>
      <point x="2684" y="1576" type="curve" smooth="yes"/>
      <point x="2684" y="1578" type="line" smooth="yes"/>
      <point x="2684" y="1774"/>
      <point x="2525" y="1891"/>
    </contour>
    <component base="Ja_Fused.tm"/>
  </outline>
</glyph>
<glyph name="JaMatraUu_Fused_SimpleUu.tm" format="2">
  <advance width="4060"/>
  <note>
JaMatraUu.tm
</note>
  <outline>
    <contour>
      <point x="2246" y="1120" type="line"/>
      <point x="1961" y="1120" type="line"/>
      <point x="1995" y="957" type="line"/>
      <point x="2246" y="957" type="line"/>
    </contour>
    <contour>
      <point x="1813" y="1154" type="curve" smooth="yes"/>
      <point x="1540" y="1154"/>
      <point x="1414" y="1015"/>
      <point x="1394" y="787" type="curve"/>
      <point x="1387" y="787" type="line"/>
      <point x="1351" y="1016"/>
      <point x="1196" y="1165"/>
      <point x="814" y="1165" type="curve" smooth="yes"/>
      <point x="373" y="1165"/>
      <point x="140" y="961"/>
      <point x="140" y="614" type="curve" smooth="yes"/>
      <point x="140" y="603" type="line" smooth="yes"/>
      <point x="140" y="353"/>
      <point x="260" y="188"/>
      <point x="515" y="153" type="curve"/>
      <point x="821" y="173" type="line"/>
      <point x="977" y="232"/>
      <point x="1042" y="359"/>
      <point x="1042" y="503" type="curve" smooth="yes"/>
      <point x="1042" y="505" type="line" smooth="yes"/>
      <point x="1042" y="711"/>
      <point x="927" y="831"/>
      <point x="683" y="831" type="curve" smooth="yes"/>
      <point x="491" y="831"/>
      <point x="367" y="738"/>
      <point x="337" y="622" type="curve"/>
      <point x="320" y="622" type="line"/>
      <point x="328" y="507" type="line"/>
      <point x="358" y="597"/>
      <point x="467" y="672"/>
      <point x="614" y="672" type="curve" smooth="yes"/>
      <point x="773" y="672"/>
      <point x="845" y="604"/>
      <point x="845" y="483" type="curve" smooth="yes"/>
      <point x="845" y="481" type="line" smooth="yes"/>
      <point x="845" y="364"/>
      <point x="773" y="285"/>
      <point x="614" y="285" type="curve" smooth="yes"/>
      <point x="426" y="285"/>
      <point x="339" y="385"/>
      <point x="339" y="542" type="curve"/>
      <point x="341" y="622" type="line"/>
      <point x="329" y="622" type="line"/>
      <point x="328" y="861"/>
      <point x="498" y="1004"/>
      <point x="825" y="1004" type="curve" smooth="yes"/>
      <point x="1171" y="1004"/>
      <point x="1297" y="861"/>
      <point x="1297" y="591" type="curve" smooth="yes"/>
      <point x="1297" y="429" type="line"/>
      <point x="1496" y="429" type="line"/>
      <point x="1496" y="669" type="line" smooth="yes"/>
      <point x="1496" y="910"/>
      <point x="1616" y="992"/>
      <point x="1784" y="992" type="curve" smooth="yes"/>
      <point x="1986" y="992"/>
      <point x="2060" y="875"/>
      <point x="2060" y="690" type="curve" smooth="yes"/>
      <point x="2060" y="687" type="line" smooth="yes"/>
      <point x="2060" y="446"/>
      <point x="1951" y="322"/>
      <point x="1603" y="309" type="curve" smooth="yes"/>
      <point x="820" y="280" type="line"/>
      <point x="496" y="213" type="line"/>
      <point x="273" y="169"/>
      <point x="180" y="47"/>
      <point x="180" y="-149" type="curve" smooth="yes"/>
      <point x="180" y="-151" type="line" smooth="yes"/>
      <point x="180" y="-409"/>
      <point x="356" y="-551"/>
      <point x="653" y="-551" type="curve" smooth="yes"/>
      <point x="923" y="-551"/>
      <point x="1053" y="-451"/>
      <point x="1226" y="-297" type="curve" smooth="yes"/>
      <point x="1416" y="-121" type="line" smooth="yes"/>
      <point x="1563" y="14"/>
      <point x="1670" y="105"/>
      <point x="1836" y="105" type="curve" smooth="yes"/>
      <point x="1993" y="105"/>
      <point x="2060" y="10"/>
      <point x="2060" y="-128" type="curve" smooth="yes"/>
      <point x="2060" y="-131" type="line" smooth="yes"/>
      <point x="2060" y="-297"/>
      <point x="1978" y="-385"/>
      <point x="1768" y="-385" type="curve" smooth="yes"/>
      <point x="1663" y="-385"/>
      <point x="1568" y="-369"/>
      <point x="1469" y="-341" type="curve"/>
      <point x="1518" y="-509" type="line"/>
      <point x="1615" y="-536"/>
      <point x="1714" y="-551"/>
      <point x="1814" y="-551" type="curve" smooth="yes"/>
      <point x="2123" y="-551"/>
      <point x="2262" y="-407"/>
      <point x="2262" y="-131" type="curve" smooth="yes"/>
      <point x="2262" y="-128" type="line" smooth="yes"/>
      <point x="2262" y="87"/>
      <point x="2162" y="238"/>
      <point x="1930" y="261" type="curve"/>
      <point x="1845" y="269" type="line"/>
      <point x="1634" y="269"/>
      <point x="1502" y="184"/>
      <point x="1325" y="28" type="curve" smooth="yes"/>
      <point x="1070" y="-196" type="line" smooth="yes"/>
      <point x="945" y="-308"/>
      <point x="839" y="-388"/>
      <point x="660" y="-388" type="curve" smooth="yes"/>
      <point x="468" y="-388"/>
      <point x="381" y="-296"/>
      <point x="381" y="-147" type="curve" smooth="yes"/>
      <point x="381" y="-145" type="line" smooth="yes"/>
      <point x="383" y="22"/>
      <point x="476" y="113"/>
      <point x="791" y="124" type="curve" smooth="yes"/>
      <point x="1665" y="155" type="line" smooth="yes"/>
      <point x="2121" y="171"/>
      <point x="2259" y="349"/>
      <point x="2259" y="674" type="curve" smooth="yes"/>
      <point x="2259" y="677" type="line" smooth="yes"/>
      <point x="2259" y="832"/>
      <point x="2216" y="962"/>
      <point x="2114" y="1038" type="curve"/>
      <point x="2108" y="1061" type="line"/>
      <point x="2041" y="1121"/>
      <point x="1948" y="1154"/>
    </contour>
    <component base="MatraUuDflt_Simple.tm" xOffset="2056"/>
  </outline>
</glyph>
<glyph name="JaMatraUu_SimpleUu.tm" format="2">
  <advance width="4057"/>
  <note>
JaMatraUu.tm
</note>
  <outline>
    <contour>
      <point x="2243" y="1121" type="line"/>
      <point x="1958" y="1121" type="line"/>
      <point x="1992" y="958" type="line"/>
      <point x="2243" y="958" type="line"/>
    </contour>
    <contour>
      <point x="766" y="1165" type="curve" smooth="yes"/>
      <point x="355" y="1165"/>
      <point x="137" y="1000"/>
      <point x="137" y="728" type="curve" smooth="yes"/>
      <point x="137" y="718" type="line" smooth="yes"/>
      <point x="137" y="493"/>
      <point x="281" y="352"/>
      <point x="585" y="352" type="curve" smooth="yes"/>
      <point x="854" y="352"/>
      <point x="983" y="458"/>
      <point x="983" y="641" type="curve" smooth="yes"/>
      <point x="983" y="643" type="line" smooth="yes"/>
      <point x="983" y="805"/>
      <point x="879" y="904"/>
      <point x="663" y="904" type="curve" smooth="yes"/>
      <point x="477" y="904"/>
      <point x="357" y="828"/>
      <point x="328" y="733" type="curve"/>
      <point x="313" y="733" type="line"/>
      <point x="321" y="640" type="line"/>
      <point x="349" y="703"/>
      <point x="450" y="756"/>
      <point x="585" y="756" type="curve" smooth="yes"/>
      <point x="730" y="756"/>
      <point x="795" y="709"/>
      <point x="795" y="631" type="curve" smooth="yes"/>
      <point x="795" y="629" type="line" smooth="yes"/>
      <point x="795" y="553"/>
      <point x="727" y="499"/>
      <point x="581" y="499" type="curve" smooth="yes"/>
      <point x="411" y="499"/>
      <point x="332" y="566"/>
      <point x="332" y="673" type="curve"/>
      <point x="332" y="733" type="line"/>
      <point x="322" y="733" type="line"/>
      <point x="322" y="902"/>
      <point x="476" y="1008"/>
      <point x="777" y="1008" type="curve" smooth="yes"/>
      <point x="1145" y="1008"/>
      <point x="1294" y="861"/>
      <point x="1294" y="581" type="curve" smooth="yes"/>
      <point x="1294" y="429" type="line"/>
      <point x="1493" y="429" type="line"/>
      <point x="1493" y="659" type="line" smooth="yes"/>
      <point x="1493" y="907"/>
      <point x="1617" y="992"/>
      <point x="1786" y="992" type="curve" smooth="yes"/>
      <point x="1979" y="992"/>
      <point x="2057" y="885"/>
      <point x="2057" y="714" type="curve" smooth="yes"/>
      <point x="2057" y="711" type="line" smooth="yes"/>
      <point x="2057" y="494"/>
      <point x="1942" y="396"/>
      <point x="1590" y="361" type="curve" smooth="yes"/>
      <point x="766" y="280" type="line" smooth="yes"/>
      <point x="362" y="240"/>
      <point x="177" y="120"/>
      <point x="177" y="-163" type="curve" smooth="yes"/>
      <point x="177" y="-165" type="line" smooth="yes"/>
      <point x="177" y="-412"/>
      <point x="351" y="-551"/>
      <point x="645" y="-551" type="curve" smooth="yes"/>
      <point x="916" y="-551"/>
      <point x="1038" y="-452"/>
      <point x="1221" y="-317" type="curve" smooth="yes"/>
      <point x="1368" y="-208" type="line" smooth="yes"/>
      <point x="1517" y="-97"/>
      <point x="1647" y="-30"/>
      <point x="1823" y="-30" type="curve" smooth="yes"/>
      <point x="1987" y="-30"/>
      <point x="2057" y="-98"/>
      <point x="2057" y="-195" type="curve" smooth="yes"/>
      <point x="2057" y="-198" type="line" smooth="yes"/>
      <point x="2057" y="-320"/>
      <point x="1972" y="-385"/>
      <point x="1765" y="-385" type="curve" smooth="yes"/>
      <point x="1660" y="-385"/>
      <point x="1565" y="-369"/>
      <point x="1466" y="-341" type="curve"/>
      <point x="1515" y="-509" type="line"/>
      <point x="1612" y="-536"/>
      <point x="1711" y="-551"/>
      <point x="1811" y="-551" type="curve" smooth="yes"/>
      <point x="2118" y="-551"/>
      <point x="2259" y="-430"/>
      <point x="2259" y="-198" type="curve" smooth="yes"/>
      <point x="2259" y="-195" type="line" smooth="yes"/>
      <point x="2259" y="22"/>
      <point x="2114" y="134"/>
      <point x="1836" y="134" type="curve" smooth="yes"/>
      <point x="1585" y="134"/>
      <point x="1432" y="55"/>
      <point x="1227" y="-95" type="curve" smooth="yes"/>
      <point x="1084" y="-200" type="line" smooth="yes"/>
      <point x="946" y="-302"/>
      <point x="840" y="-388"/>
      <point x="652" y="-388" type="curve" smooth="yes"/>
      <point x="463" y="-388"/>
      <point x="378" y="-300"/>
      <point x="378" y="-161" type="curve" smooth="yes"/>
      <point x="378" y="-159" type="line" smooth="yes"/>
      <point x="378" y="4"/>
      <point x="483" y="88"/>
      <point x="784" y="119" type="curve" smooth="yes"/>
      <point x="1652" y="207" type="line" smooth="yes"/>
      <point x="2108" y="253"/>
      <point x="2256" y="403"/>
      <point x="2256" y="717" type="curve" smooth="yes"/>
      <point x="2256" y="718" type="line" smooth="yes"/>
      <point x="2256" y="851"/>
      <point x="2203" y="972"/>
      <point x="2111" y="1039" type="curve"/>
      <point x="2105" y="1061" type="line"/>
      <point x="2040" y="1121"/>
      <point x="1947" y="1154"/>
      <point x="1815" y="1154" type="curve" smooth="yes"/>
      <point x="1541" y="1154"/>
      <point x="1411" y="1011"/>
      <point x="1391" y="777" type="curve"/>
      <point x="1384" y="777" type="line"/>
      <point x="1347" y="1011"/>
      <point x="1168" y="1165"/>
    </contour>
    <component base="MatraUuDflt_Simple.tm" xOffset="2053"/>
  </outline>
</glyph>
<glyph name="KaBeak_Nonexporting" format="2">
  <advance width="367"/>
  <outline>
    <contour>
      <point x="-15" y="961" type="line"/>
      <point x="367" y="961" type="line"/>
      <point x="341" y="1121" type="line"/>
      <point x="-15" y="1121" type="line"/>
    </contour>
  </outline>
</glyph>
<glyph name="KaMatraI.tm" format="2">
  <advance width="2082"/>
  <note>
KaMatraI.tm
</note>
  <outline>
    <contour>
      <point x="1171" y="524" type="line"/>
      <point x="1481" y="524" type="line" smooth="yes"/>
      <point x="1647" y="524"/>
      <point x="1721" y="468"/>
      <point x="1721" y="345" type="curve" smooth="yes"/>
      <point x="1721" y="342" type="line" smooth="yes"/>
      <point x="1721" y="225"/>
      <point x="1662" y="140"/>
      <point x="1469" y="140" type="curve" smooth="yes"/>
      <point x="1339" y="140"/>
      <point x="1254" y="159"/>
      <point x="1160" y="197" type="curve"/>
      <point x="1156" y="185" type="line"/>
      <point x="1200" y="21" type="line"/>
      <point x="1274" y="-3"/>
      <point x="1387" y="-25"/>
      <point x="1514" y="-25" type="curve" smooth="yes"/>
      <point x="1810" y="-25"/>
      <point x="1927" y="111"/>
      <point x="1927" y="339" type="curve" smooth="yes"/>
      <point x="1927" y="342" type="line" smooth="yes"/>
      <point x="1927" y="571"/>
      <point x="1801" y="679"/>
      <point x="1496" y="679" type="curve" smooth="yes"/>
      <point x="1171" y="679" type="line"/>
    </contour>
    <contour>
      <point x="1481" y="1783" type="curve" smooth="yes"/>
      <point x="1166" y="1783"/>
      <point x="991" y="1620"/>
      <point x="991" y="1351" type="curve" smooth="yes"/>
      <point x="991" y="1351" type="line" smooth="yes"/>
      <point x="991" y="1249"/>
      <point x="1022" y="1163"/>
      <point x="1051" y="1114" type="curve"/>
      <point x="1247" y="1114" type="line"/>
      <point x="1217" y="1166"/>
      <point x="1193" y="1236"/>
      <point x="1193" y="1333" type="curve" smooth="yes"/>
      <point x="1193" y="1333" type="line" smooth="yes"/>
      <point x="1193" y="1514"/>
      <point x="1295" y="1616"/>
      <point x="1481" y="1616" type="curve" smooth="yes"/>
      <point x="1690" y="1616"/>
      <point x="1771" y="1505"/>
      <point x="1771" y="1258" type="curve" smooth="yes"/>
      <point x="1771" y="732" type="line"/>
      <point x="1972" y="732" type="line"/>
      <point x="1972" y="1250" type="line" smooth="yes"/>
      <point x="1972" y="1615"/>
      <point x="1829" y="1783"/>
    </contour>
    <component base="KaComponent_Nonexporting" xOffset="47"/>
    <component base="KaBeak_Nonexporting" xOffset="1234"/>
  </outline>
</glyph>
<glyph name="KaMatraU_Simple.tm" format="2">
  <advance width="2650"/>
  <note>
KaMatraU.tm
</note>
  <outline>
    <contour>
      <point x="1832" y="524" type="line"/>
      <point x="1947" y="524" type="line" smooth="yes"/>
      <point x="2227" y="524"/>
      <point x="2344" y="420"/>
      <point x="2344" y="179" type="curve" smooth="yes"/>
      <point x="2344" y="177" type="line" smooth="yes"/>
      <point x="2344" y="-174"/>
      <point x="2089" y="-387"/>
      <point x="1477" y="-387" type="curve" smooth="yes"/>
      <point x="1472" y="-387" type="line" smooth="yes"/>
      <point x="742" y="-387"/>
      <point x="406" y="-116"/>
      <point x="406" y="441" type="curve"/>
      <point x="406" y="1121" type="line"/>
      <point x="195" y="1121" type="line"/>
      <point x="195" y="439" type="line"/>
      <point x="195" y="-232"/>
      <point x="613" y="-560"/>
      <point x="1472" y="-560" type="curve" smooth="yes"/>
      <point x="1478" y="-560" type="line" smooth="yes"/>
      <point x="2212" y="-560"/>
      <point x="2552" y="-288"/>
      <point x="2552" y="181" type="curve" smooth="yes"/>
      <point x="2552" y="182" type="line" smooth="yes"/>
      <point x="2552" y="520"/>
      <point x="2386" y="679"/>
      <point x="1965" y="679" type="curve" smooth="yes"/>
      <point x="1832" y="679" type="line"/>
    </contour>
    <component base="KaComponent_Nonexporting" xOffset="732"/>
    <component base="KaBeak_Nonexporting" xOffset="1992"/>
  </outline>
</glyph>
<glyph name="KssaMatraI.tm" format="2">
  <advance width="4738"/>
  <note>
KshaMatraI.tm
</note>
  <anchor x="2362" y="1236" name="top"/>
  <outline>
    <contour>
      <point x="3938" y="1783" type="curve" smooth="yes"/>
      <point x="3575" y="1783"/>
      <point x="3351" y="1603"/>
      <point x="3351" y="1297" type="curve" smooth="yes"/>
      <point x="3351" y="1297" type="line" smooth="yes"/>
      <point x="3351" y="1222"/>
      <point x="3370" y="1147"/>
      <point x="3396" y="1102" type="curve"/>
      <point x="3593" y="1102" type="line"/>
      <point x="3570" y="1142"/>
      <point x="3552" y="1205"/>
      <point x="3552" y="1273" type="curve" smooth="yes"/>
      <point x="3552" y="1273" type="line" smooth="yes"/>
      <point x="3552" y="1495"/>
      <point x="3703" y="1613"/>
      <point x="3938" y="1613" type="curve" smooth="yes"/>
      <point x="4213" y="1613"/>
      <point x="4333" y="1485"/>
      <point x="4333" y="1178" type="curve" smooth="yes"/>
      <point x="4333" y="0" type="line"/>
      <point x="4539" y="0" type="line"/>
      <point x="4539" y="1169" type="line" smooth="yes"/>
      <point x="4539" y="1595"/>
      <point x="4358" y="1783"/>
    </contour>
    <component base="Kssa.tm"/>
  </outline>
</glyph>
<glyph name="KssaMatraI_Fly.tm" format="2">
  <advance width="4166"/>
  <note>
KshaMatraI.tm
</note>
  <anchor x="2362" y="1236" name="top"/>
  <outline>
    <contour>
      <point x="3937" y="1610" type="line"/>
      <point x="3510" y="1610" type="line" smooth="yes"/>
      <point x="3290" y="1610"/>
      <point x="3189" y="1538"/>
      <point x="3189" y="1381" type="curve" smooth="yes"/>
      <point x="3189" y="1299"/>
      <point x="3221" y="1220"/>
      <point x="3292" y="1121" type="curve"/>
      <point x="3496" y="1121" type="line"/>
      <point x="3431" y="1204"/>
      <point x="3399" y="1264"/>
      <point x="3399" y="1323" type="curve" smooth="yes"/>
      <point x="3399" y="1409"/>
      <point x="3454" y="1442"/>
      <point x="3578" y="1442" type="curve" smooth="yes"/>
      <point x="3966" y="1442" type="line"/>
    </contour>
    <component base="Kssa.tm"/>
  </outline>
</glyph>
<glyph name="KssaMatraI_Simple.tm" format="2">
  <advance width="4708"/>
  <note>
KshaMatraI.tm
</note>
  <anchor x="2362" y="1236" name="top"/>
  <outline>
    <contour>
      <point x="3908" y="1783" type="curve" smooth="yes"/>
      <point x="3545" y="1783"/>
      <point x="3321" y="1603"/>
      <point x="3321" y="1297" type="curve" smooth="yes"/>
      <point x="3321" y="1297" type="line" smooth="yes"/>
      <point x="3321" y="1222"/>
      <point x="3340" y="1147"/>
      <point x="3366" y="1102" type="curve"/>
      <point x="3563" y="1102" type="line"/>
      <point x="3540" y="1142"/>
      <point x="3522" y="1205"/>
      <point x="3522" y="1273" type="curve" smooth="yes"/>
      <point x="3522" y="1273" type="line" smooth="yes"/>
      <point x="3522" y="1495"/>
      <point x="3673" y="1613"/>
      <point x="3908" y="1613" type="curve" smooth="yes"/>
      <point x="4183" y="1613"/>
      <point x="4303" y="1485"/>
      <point x="4303" y="1178" type="curve" smooth="yes"/>
      <point x="4303" y="0" type="line"/>
      <point x="4509" y="0" type="line"/>
      <point x="4509" y="1169" type="line" smooth="yes"/>
      <point x="4509" y="1595"/>
      <point x="4328" y="1783"/>
    </contour>
    <component base="Kssa_Simple.tm"/>
  </outline>
</glyph>
<glyph name="KssaMatraI_Simple_Fly.tm" format="2">
  <advance width="4166"/>
  <note>
KshaMatraI.tm
</note>
  <anchor x="2362" y="1236" name="top"/>
  <outline>
    <contour>
      <point x="3967" y="1610" type="line"/>
      <point x="3540" y="1610" type="line" smooth="yes"/>
      <point x="3320" y="1610"/>
      <point x="3219" y="1538"/>
      <point x="3219" y="1381" type="curve" smooth="yes"/>
      <point x="3219" y="1299"/>
      <point x="3251" y="1220"/>
      <point x="3322" y="1121" type="curve"/>
      <point x="3526" y="1121" type="line"/>
      <point x="3461" y="1204"/>
      <point x="3429" y="1264"/>
      <point x="3429" y="1323" type="curve" smooth="yes"/>
      <point x="3429" y="1409"/>
      <point x="3484" y="1442"/>
      <point x="3608" y="1442" type="curve" smooth="yes"/>
      <point x="3996" y="1442" type="line"/>
    </contour>
    <component base="Kssa_Simple.tm"/>
  </outline>
</glyph>
<glyph name="KssaMatraU_Simple.tm" format="2">
  <advance width="5165"/>
  <note>
KshaMatraU.tm
</note>
  <outline>
    <contour>
      <point x="1176" y="519" type="line"/>
      <point x="1366" y="519" type="line" smooth="yes"/>
      <point x="1570" y="519"/>
      <point x="1637" y="453"/>
      <point x="1637" y="249" type="curve" smooth="yes"/>
      <point x="1637" y="0" type="line"/>
      <point x="1843" y="0" type="line"/>
      <point x="1843" y="286" type="line" smooth="yes"/>
      <point x="1843" y="491"/>
      <point x="1962" y="584"/>
      <point x="2133" y="584" type="curve" smooth="yes"/>
      <point x="2310" y="584"/>
      <point x="2384" y="491"/>
      <point x="2384" y="331" type="curve" smooth="yes"/>
      <point x="2384" y="329" type="line" smooth="yes"/>
      <point x="2384" y="179"/>
      <point x="2333" y="92"/>
      <point x="2247" y="14" type="curve"/>
      <point x="2247" y="0" type="line"/>
      <point x="2968" y="0" type="line"/>
      <point x="2968" y="159" type="line"/>
      <point x="2404" y="159" type="line"/>
      <point x="2499" y="116" type="line"/>
      <point x="2541" y="172"/>
      <point x="2584" y="264"/>
      <point x="2584" y="403" type="curve" smooth="yes"/>
      <point x="2584" y="407" type="line" smooth="yes"/>
      <point x="2584" y="628"/>
      <point x="2456" y="757"/>
      <point x="2174" y="757" type="curve" smooth="yes"/>
      <point x="1906" y="757"/>
      <point x="1753" y="626"/>
      <point x="1753" y="414" type="curve" smooth="yes"/>
      <point x="1753" y="411" type="line"/>
      <point x="1746" y="411" type="line"/>
      <point x="1728" y="599"/>
      <point x="1635" y="679"/>
      <point x="1389" y="679" type="curve" smooth="yes"/>
      <point x="1176" y="679" type="line"/>
    </contour>
    <contour>
      <point x="2443" y="159" type="line"/>
      <point x="2443" y="0" type="line"/>
      <point x="4127" y="0" type="line"/>
      <point x="4153" y="163" type="line"/>
      <point x="3484" y="163" type="line"/>
      <point x="3399" y="126" type="line"/>
      <point x="3329" y="159" type="line"/>
    </contour>
    <contour>
      <point x="3399" y="1148" type="curve" smooth="yes"/>
      <point x="3035" y="1148"/>
      <point x="2863" y="951"/>
      <point x="2863" y="640" type="curve" smooth="yes"/>
      <point x="2863" y="627" type="line" smooth="yes"/>
      <point x="2863" y="341"/>
      <point x="2995" y="135"/>
      <point x="3339" y="51" type="curve"/>
      <point x="3425" y="133" type="line"/>
      <point x="3166" y="193"/>
      <point x="3074" y="370"/>
      <point x="3074" y="591" type="curve" smooth="yes"/>
      <point x="3074" y="603" type="line" smooth="yes"/>
      <point x="3074" y="831"/>
      <point x="3170" y="974"/>
      <point x="3399" y="974" type="curve" smooth="yes"/>
      <point x="3627" y="974"/>
      <point x="3724" y="831"/>
      <point x="3724" y="603" type="curve" smooth="yes"/>
      <point x="3724" y="591" type="line" smooth="yes"/>
      <point x="3724" y="370"/>
      <point x="3632" y="193"/>
      <point x="3373" y="133" type="curve"/>
      <point x="3458" y="51" type="line"/>
      <point x="3803" y="133"/>
      <point x="3935" y="343"/>
      <point x="3935" y="615" type="curve" smooth="yes"/>
      <point x="3935" y="626" type="line" smooth="yes"/>
      <point x="3935" y="805"/>
      <point x="3873" y="947"/>
      <point x="3726" y="1018" type="curve"/>
      <point x="3729" y="1050" type="line"/>
      <point x="3651" y="1114"/>
      <point x="3542" y="1148"/>
    </contour>
    <contour>
      <point x="3947" y="1121" type="line"/>
      <point x="3565" y="1121" type="line"/>
      <point x="3608" y="958" type="line"/>
      <point x="3947" y="958" type="line"/>
    </contour>
    <component base="KaComponent_Nonexporting" xOffset="47"/>
    <component base="KaBeak_Nonexporting" xOffset="1325"/>
    <component base="MatraUDflt.tm" xOffset="3760"/>
    <component base="Ssa_Below_Simple_NonExporting" xOffset="2986"/>
  </outline>
</glyph>
<glyph name="Kssa_Simple.tm" format="2">
  <advance width="4166"/>
  <note>
Ksha.tm
</note>
  <anchor x="2362" y="1236" name="top"/>
  <outline>
    <contour>
      <point x="1170" y="519" type="line"/>
      <point x="1366" y="519" type="line" smooth="yes"/>
      <point x="1570" y="519"/>
      <point x="1637" y="453"/>
      <point x="1637" y="249" type="curve"/>
      <point x="1637" y="0" type="line"/>
      <point x="1843" y="0" type="line"/>
      <point x="1843" y="286" type="line" smooth="yes"/>
      <point x="1843" y="491"/>
      <point x="1962" y="584"/>
      <point x="2133" y="584" type="curve" smooth="yes"/>
      <point x="2310" y="584"/>
      <point x="2384" y="491"/>
      <point x="2384" y="331" type="curve" smooth="yes"/>
      <point x="2384" y="329" type="line" smooth="yes"/>
      <point x="2384" y="179"/>
      <point x="2333" y="92"/>
      <point x="2247" y="14" type="curve"/>
      <point x="2247" y="0" type="line"/>
      <point x="2968" y="0" type="line"/>
      <point x="2968" y="159" type="line"/>
      <point x="2404" y="159" type="line"/>
      <point x="2499" y="116" type="line"/>
      <point x="2541" y="172"/>
      <point x="2584" y="264"/>
      <point x="2584" y="403" type="curve" smooth="yes"/>
      <point x="2584" y="407" type="line" smooth="yes"/>
      <point x="2584" y="628"/>
      <point x="2456" y="757"/>
      <point x="2174" y="757" type="curve" smooth="yes"/>
      <point x="1906" y="757"/>
      <point x="1753" y="627"/>
      <point x="1753" y="419" type="curve" smooth="yes"/>
      <point x="1753" y="411" type="line"/>
      <point x="1746" y="411" type="line"/>
      <point x="1728" y="599"/>
      <point x="1635" y="679"/>
      <point x="1389" y="679" type="curve" smooth="yes"/>
      <point x="1170" y="679" type="line"/>
    </contour>
    <component base="KaComponent_Nonexporting" xOffset="47"/>
    <component base="Ssa_Above_NonExporting" xOffset="2478"/>
    <component base="KaBeak_Nonexporting" xOffset="1325"/>
    <component base="Ssa_Below_Simple_NonExporting" xOffset="2986"/>
  </outline>
</glyph>
<glyph name="LaMatraI.tm" format="2">
  <advance width="3086"/>
  <note>
LaMatraI.tm
</note>
  <outline>
    <contour>
      <point x="864" y="1149" type="curve" smooth="yes"/>
      <point x="382" y="1149"/>
      <point x="147" y="909"/>
      <point x="147" y="491" type="curve" smooth="yes"/>
      <point x="147" y="477" type="line" smooth="yes"/>
      <point x="147" y="177"/>
      <point x="294" y="-24"/>
      <point x="639" y="-24" type="curve" smooth="yes"/>
      <point x="950" y="-24"/>
      <point x="1077" y="131"/>
      <point x="1077" y="353" type="curve" smooth="yes"/>
      <point x="1077" y="356" type="line" smooth="yes"/>
      <point x="1077" y="579"/>
      <point x="954" y="702"/>
      <point x="710" y="702" type="curve" smooth="yes"/>
      <point x="510" y="702"/>
      <point x="384" y="604"/>
      <point x="348" y="485" type="curve"/>
      <point x="335" y="485" type="line"/>
      <point x="337" y="369" type="line"/>
      <point x="367" y="461"/>
      <point x="478" y="539"/>
      <point x="635" y="539" type="curve" smooth="yes"/>
      <point x="802" y="539"/>
      <point x="878" y="469"/>
      <point x="878" y="342" type="curve" smooth="yes"/>
      <point x="878" y="340" type="line" smooth="yes"/>
      <point x="878" y="218"/>
      <point x="801" y="134"/>
      <point x="633" y="134" type="curve" smooth="yes"/>
      <point x="436" y="134"/>
      <point x="348" y="244"/>
      <point x="348" y="412" type="curve"/>
      <point x="350" y="485" type="line"/>
      <point x="341" y="485" type="line"/>
      <point x="341" y="489"/>
      <point x="341" y="491"/>
      <point x="341" y="495" type="curve" smooth="yes"/>
      <point x="346" y="813"/>
      <point x="512" y="978"/>
      <point x="863" y="978" type="curve" smooth="yes"/>
      <point x="1211" y="978"/>
      <point x="1335" y="818"/>
      <point x="1335" y="501" type="curve" smooth="yes"/>
      <point x="1335" y="497" type="line" smooth="yes"/>
      <point x="1335" y="152"/>
      <point x="1486" y="-23"/>
      <point x="1836" y="-23" type="curve" smooth="yes"/>
      <point x="2190" y="-23"/>
      <point x="2330" y="171"/>
      <point x="2330" y="551" type="curve" smooth="yes"/>
      <point x="2330" y="563" type="line" smooth="yes"/>
      <point x="2330" y="924"/>
      <point x="2205" y="1144"/>
      <point x="1796" y="1144" type="curve" smooth="yes"/>
      <point x="1739" y="1144"/>
      <point x="1687" y="1138"/>
      <point x="1642" y="1128" type="curve"/>
      <point x="1830" y="1072" type="line"/>
      <point x="1825" y="1107"/>
      <point x="1822" y="1146"/>
      <point x="1822" y="1203" type="curve" smooth="yes"/>
      <point x="1822" y="1463"/>
      <point x="1977" y="1613"/>
      <point x="2252" y="1613" type="curve" smooth="yes"/>
      <point x="2557" y="1613"/>
      <point x="2681" y="1453"/>
      <point x="2681" y="1122" type="curve" smooth="yes"/>
      <point x="2681" y="0" type="line"/>
      <point x="2887" y="0" type="line"/>
      <point x="2887" y="1120" type="line" smooth="yes"/>
      <point x="2887" y="1566"/>
      <point x="2693" y="1783"/>
      <point x="2257" y="1783" type="curve" smooth="yes"/>
      <point x="1846" y="1783"/>
      <point x="1622" y="1561"/>
      <point x="1622" y="1186" type="curve" smooth="yes"/>
      <point x="1622" y="1108"/>
      <point x="1630" y="1033"/>
      <point x="1643" y="974" type="curve"/>
      <point x="1674" y="979"/>
      <point x="1709" y="982"/>
      <point x="1746" y="982" type="curve" smooth="yes"/>
      <point x="2036" y="982"/>
      <point x="2120" y="829"/>
      <point x="2120" y="561" type="curve" smooth="yes"/>
      <point x="2120" y="549" type="line" smooth="yes"/>
      <point x="2120" y="284"/>
      <point x="2043" y="147"/>
      <point x="1836" y="147" type="curve" smooth="yes"/>
      <point x="1628" y="147"/>
      <point x="1542" y="263"/>
      <point x="1542" y="513" type="curve" smooth="yes"/>
      <point x="1542" y="517" type="line" smooth="yes"/>
      <point x="1542" y="928"/>
      <point x="1356" y="1149"/>
    </contour>
  </outline>
</glyph>
<glyph name="LaMatraI_Fly.tm" format="2">
  <advance width="2475"/>
  <note>
LaMatraI.tm
</note>
  <outline>
    <contour>
      <point x="864" y="1149" type="curve" smooth="yes"/>
      <point x="382" y="1149"/>
      <point x="147" y="909"/>
      <point x="147" y="491" type="curve" smooth="yes"/>
      <point x="147" y="477" type="line" smooth="yes"/>
      <point x="147" y="177"/>
      <point x="294" y="-24"/>
      <point x="639" y="-24" type="curve" smooth="yes"/>
      <point x="950" y="-24"/>
      <point x="1077" y="131"/>
      <point x="1077" y="353" type="curve" smooth="yes"/>
      <point x="1077" y="356" type="line" smooth="yes"/>
      <point x="1077" y="579"/>
      <point x="954" y="702"/>
      <point x="710" y="702" type="curve" smooth="yes"/>
      <point x="509" y="702"/>
      <point x="382" y="604"/>
      <point x="346" y="485" type="curve"/>
      <point x="335" y="485" type="line"/>
      <point x="337" y="369" type="line"/>
      <point x="367" y="461"/>
      <point x="478" y="539"/>
      <point x="635" y="539" type="curve" smooth="yes"/>
      <point x="802" y="539"/>
      <point x="878" y="469"/>
      <point x="878" y="342" type="curve" smooth="yes"/>
      <point x="878" y="340" type="line" smooth="yes"/>
      <point x="878" y="218"/>
      <point x="801" y="134"/>
      <point x="633" y="134" type="curve" smooth="yes"/>
      <point x="436" y="134"/>
      <point x="348" y="244"/>
      <point x="348" y="412" type="curve"/>
      <point x="348" y="485" type="line"/>
      <point x="341" y="485" type="line"/>
      <point x="341" y="489"/>
      <point x="341" y="491"/>
      <point x="341" y="495" type="curve" smooth="yes"/>
      <point x="346" y="813"/>
      <point x="512" y="978"/>
      <point x="863" y="978" type="curve" smooth="yes"/>
      <point x="1211" y="978"/>
      <point x="1335" y="818"/>
      <point x="1335" y="501" type="curve" smooth="yes"/>
      <point x="1335" y="497" type="line" smooth="yes"/>
      <point x="1335" y="152"/>
      <point x="1486" y="-23"/>
      <point x="1836" y="-23" type="curve" smooth="yes"/>
      <point x="2190" y="-23"/>
      <point x="2330" y="171"/>
      <point x="2330" y="550" type="curve" smooth="yes"/>
      <point x="2330" y="562" type="line" smooth="yes"/>
      <point x="2330" y="924"/>
      <point x="2202" y="1144"/>
      <point x="1788" y="1144" type="curve" smooth="yes"/>
      <point x="1724" y="1144"/>
      <point x="1665" y="1138"/>
      <point x="1615" y="1127" type="curve"/>
      <point x="1793" y="1082" type="line"/>
      <point x="1714" y="1207"/>
      <point x="1684" y="1265"/>
      <point x="1684" y="1323" type="curve" smooth="yes"/>
      <point x="1684" y="1409"/>
      <point x="1738" y="1442"/>
      <point x="1863" y="1442" type="curve" smooth="yes"/>
      <point x="2301" y="1442" type="line"/>
      <point x="2271" y="1610" type="line"/>
      <point x="1799" y="1610" type="line" smooth="yes"/>
      <point x="1580" y="1610"/>
      <point x="1478" y="1533"/>
      <point x="1478" y="1363" type="curve" smooth="yes"/>
      <point x="1478" y="1267"/>
      <point x="1510" y="1194"/>
      <point x="1628" y="973" type="curve"/>
      <point x="1661" y="979"/>
      <point x="1700" y="982"/>
      <point x="1738" y="982" type="curve" smooth="yes"/>
      <point x="2033" y="982"/>
      <point x="2120" y="829"/>
      <point x="2120" y="560" type="curve" smooth="yes"/>
      <point x="2120" y="548" type="line" smooth="yes"/>
      <point x="2120" y="284"/>
      <point x="2043" y="147"/>
      <point x="1836" y="147" type="curve" smooth="yes"/>
      <point x="1627" y="147"/>
      <point x="1541" y="263"/>
      <point x="1541" y="513" type="curve" smooth="yes"/>
      <point x="1541" y="517" type="line" smooth="yes"/>
      <point x="1541" y="928"/>
      <point x="1355" y="1149"/>
    </contour>
  </outline>
</glyph>
<glyph name="LaMatraIi_SimpleIi.tm" format="2">
  <advance width="2475"/>
  <note>
LaMatraIi.tm
</note>
  <outline>
    <contour>
      <point x="864" y="1149" type="curve" smooth="yes"/>
      <point x="382" y="1149"/>
      <point x="147" y="909"/>
      <point x="147" y="491" type="curve" smooth="yes"/>
      <point x="147" y="477" type="line" smooth="yes"/>
      <point x="147" y="177"/>
      <point x="294" y="-24"/>
      <point x="639" y="-24" type="curve" smooth="yes"/>
      <point x="950" y="-24"/>
      <point x="1077" y="131"/>
      <point x="1077" y="353" type="curve" smooth="yes"/>
      <point x="1077" y="356" type="line" smooth="yes"/>
      <point x="1077" y="579"/>
      <point x="954" y="702"/>
      <point x="710" y="702" type="curve" smooth="yes"/>
      <point x="509" y="702"/>
      <point x="382" y="604"/>
      <point x="346" y="485" type="curve"/>
      <point x="335" y="485" type="line"/>
      <point x="337" y="369" type="line"/>
      <point x="367" y="461"/>
      <point x="478" y="539"/>
      <point x="635" y="539" type="curve" smooth="yes"/>
      <point x="802" y="539"/>
      <point x="878" y="469"/>
      <point x="878" y="342" type="curve" smooth="yes"/>
      <point x="878" y="340" type="line" smooth="yes"/>
      <point x="878" y="218"/>
      <point x="801" y="134"/>
      <point x="633" y="134" type="curve" smooth="yes"/>
      <point x="436" y="134"/>
      <point x="348" y="244"/>
      <point x="348" y="412" type="curve"/>
      <point x="348" y="485" type="line"/>
      <point x="341" y="485" type="line"/>
      <point x="341" y="489"/>
      <point x="341" y="491"/>
      <point x="341" y="495" type="curve" smooth="yes"/>
      <point x="346" y="813"/>
      <point x="512" y="978"/>
      <point x="863" y="978" type="curve" smooth="yes"/>
      <point x="1211" y="978"/>
      <point x="1335" y="818"/>
      <point x="1335" y="501" type="curve" smooth="yes"/>
      <point x="1335" y="497" type="line" smooth="yes"/>
      <point x="1335" y="152"/>
      <point x="1486" y="-23"/>
      <point x="1836" y="-23" type="curve" smooth="yes"/>
      <point x="2190" y="-23"/>
      <point x="2330" y="171"/>
      <point x="2330" y="550" type="curve" smooth="yes"/>
      <point x="2330" y="562" type="line" smooth="yes"/>
      <point x="2330" y="924"/>
      <point x="2203" y="1144"/>
      <point x="1790" y="1144" type="curve" smooth="yes"/>
      <point x="1732" y="1144"/>
      <point x="1678" y="1138"/>
      <point x="1631" y="1127" type="curve"/>
      <point x="1806" y="1077" type="line"/>
      <point x="1806" y="1444" type="line"/>
      <point x="1806" y="1448" type="line"/>
      <point x="1806" y="1481" type="line" smooth="yes"/>
      <point x="1806" y="1637"/>
      <point x="1891" y="1708"/>
      <point x="2059" y="1708" type="curve" smooth="yes"/>
      <point x="2208" y="1708"/>
      <point x="2284" y="1656"/>
      <point x="2284" y="1561" type="curve" smooth="yes"/>
      <point x="2284" y="1558" type="line" smooth="yes"/>
      <point x="2284" y="1462"/>
      <point x="2221" y="1415"/>
      <point x="2066" y="1415" type="curve" smooth="yes"/>
      <point x="1930" y="1415"/>
      <point x="1845" y="1454"/>
      <point x="1801" y="1499" type="curve"/>
      <point x="1797" y="1499" type="line"/>
      <point x="1797" y="1443" type="line"/>
      <point x="1809" y="1443" type="line"/>
      <point x="1872" y="1319" type="line"/>
      <point x="1912" y="1298"/>
      <point x="2002" y="1274"/>
      <point x="2118" y="1274" type="curve" smooth="yes"/>
      <point x="2365" y="1274"/>
      <point x="2469" y="1372"/>
      <point x="2469" y="1558" type="curve" smooth="yes"/>
      <point x="2469" y="1561" type="line" smooth="yes"/>
      <point x="2469" y="1751"/>
      <point x="2338" y="1856"/>
      <point x="2066" y="1856" type="curve" smooth="yes"/>
      <point x="1752" y="1856"/>
      <point x="1619" y="1720"/>
      <point x="1619" y="1461" type="curve" smooth="yes"/>
      <point x="1619" y="973" type="line"/>
      <point x="1653" y="978"/>
      <point x="1700" y="982"/>
      <point x="1740" y="982" type="curve" smooth="yes"/>
      <point x="2034" y="982"/>
      <point x="2120" y="829"/>
      <point x="2120" y="560" type="curve" smooth="yes"/>
      <point x="2120" y="548" type="line" smooth="yes"/>
      <point x="2120" y="284"/>
      <point x="2043" y="147"/>
      <point x="1836" y="147" type="curve" smooth="yes"/>
      <point x="1627" y="147"/>
      <point x="1541" y="263"/>
      <point x="1541" y="513" type="curve" smooth="yes"/>
      <point x="1541" y="517" type="line" smooth="yes"/>
      <point x="1541" y="928"/>
      <point x="1355" y="1149"/>
    </contour>
  </outline>
</glyph>
<glyph name="LaMatraU.tm" format="2">
  <advance width="3098"/>
  <note>
LaMatraU.tm
</note>
  <anchor x="1404" y="1236" name="top"/>
  <outline>
    <contour>
      <point x="2693" y="1121" type="line"/>
      <point x="2693" y="-370" type="line"/>
      <point x="2899" y="-370" type="line"/>
      <point x="2899" y="1121" type="line"/>
    </contour>
    <contour>
      <point x="1004" y="-881" type="curve" smooth="yes"/>
      <point x="1589" y="-881"/>
      <point x="1875" y="-654"/>
      <point x="1920" y="-320" type="curve"/>
      <point x="1924" y="-277" type="line"/>
      <point x="1934" y="-206"/>
      <point x="1946" y="-83"/>
      <point x="1946" y="19" type="curve"/>
      <point x="1732" y="19" type="line"/>
      <point x="1733" y="-82"/>
      <point x="1722" y="-202"/>
      <point x="1712" y="-268" type="curve"/>
      <point x="1706" y="-315" type="line"/>
      <point x="1669" y="-544"/>
      <point x="1464" y="-714"/>
      <point x="1004" y="-714" type="curve" smooth="yes"/>
      <point x="527" y="-714"/>
      <point x="330" y="-538"/>
      <point x="306" y="-370" type="curve"/>
      <point x="2899" y="-370" type="line"/>
      <point x="2899" y="-212" type="line"/>
      <point x="48" y="-212" type="line"/>
      <point x="69" y="-610"/>
      <point x="359" y="-881"/>
    </contour>
    <component base="La.tm" xOffset="5"/>
  </outline>
</glyph>
<glyph name="LaMatraU_Simple.tm" format="2">
  <advance width="3098"/>
  <note>
LaMatraU.tm
</note>
  <anchor x="1404" y="1236" name="top"/>
  <outline>
    <contour>
      <point x="2899" y="-246" type="line"/>
      <point x="82" y="-246" type="line"/>
      <point x="114" y="-415" type="line"/>
      <point x="2899" y="-415" type="line"/>
    </contour>
    <contour>
      <point x="1726" y="36" type="line"/>
      <point x="1726" y="-313" type="line"/>
      <point x="1940" y="-313" type="line"/>
      <point x="1940" y="36" type="line"/>
    </contour>
    <contour>
      <point x="2693" y="1121" type="line"/>
      <point x="2693" y="-415" type="line"/>
      <point x="2899" y="-415" type="line"/>
      <point x="2899" y="1121" type="line"/>
    </contour>
    <component base="La.tm" xOffset="5"/>
  </outline>
</glyph>
<glyph name="LlaMatraI.tm" format="2">
  <advance width="3262"/>
  <note>
LlaMatraI.tm
</note>
  <outline>
    <contour>
      <point x="2133" y="1069" type="line"/>
      <point x="2133" y="0" type="line"/>
      <point x="2339" y="0" type="line"/>
      <point x="2339" y="1069" type="line"/>
    </contour>
    <contour>
      <point x="864" y="1149" type="curve" smooth="yes"/>
      <point x="385" y="1149"/>
      <point x="147" y="909"/>
      <point x="147" y="498" type="curve" smooth="yes"/>
      <point x="147" y="477" type="line" smooth="yes"/>
      <point x="147" y="177"/>
      <point x="294" y="-24"/>
      <point x="639" y="-24" type="curve" smooth="yes"/>
      <point x="950" y="-24"/>
      <point x="1077" y="131"/>
      <point x="1077" y="353" type="curve" smooth="yes"/>
      <point x="1077" y="356" type="line" smooth="yes"/>
      <point x="1077" y="573"/>
      <point x="954" y="692"/>
      <point x="710" y="692" type="curve" smooth="yes"/>
      <point x="510" y="692"/>
      <point x="384" y="599"/>
      <point x="348" y="485" type="curve"/>
      <point x="335" y="485" type="line"/>
      <point x="337" y="369" type="line"/>
      <point x="367" y="461"/>
      <point x="478" y="539"/>
      <point x="635" y="539" type="curve" smooth="yes"/>
      <point x="802" y="539"/>
      <point x="878" y="469"/>
      <point x="878" y="342" type="curve" smooth="yes"/>
      <point x="878" y="340" type="line" smooth="yes"/>
      <point x="878" y="218"/>
      <point x="801" y="134"/>
      <point x="633" y="134" type="curve" smooth="yes"/>
      <point x="436" y="134"/>
      <point x="348" y="244"/>
      <point x="348" y="412" type="curve"/>
      <point x="350" y="485" type="line"/>
      <point x="341" y="485" type="line"/>
      <point x="341" y="491"/>
      <point x="341" y="496"/>
      <point x="341" y="502" type="curve" smooth="yes"/>
      <point x="346" y="814"/>
      <point x="520" y="978"/>
      <point x="880" y="978" type="curve" smooth="yes"/>
      <point x="1253" y="978"/>
      <point x="1395" y="807"/>
      <point x="1395" y="455" type="curve" smooth="yes"/>
      <point x="1395" y="0" type="line"/>
      <point x="1601" y="0" type="line"/>
      <point x="1601" y="959" type="line"/>
      <point x="2305" y="959" type="line"/>
      <point x="2305" y="1121" type="line"/>
      <point x="1457" y="1121" type="line"/>
      <point x="1463" y="783" type="line"/>
      <point x="1456" y="783" type="line"/>
      <point x="1414" y="978"/>
      <point x="1257" y="1149"/>
    </contour>
    <component base="MatraIDflt.tm" xOffset="2083"/>
    <component base="RaBeak_Nonexporting" xOffset="2022"/>
  </outline>
</glyph>
<glyph name="LlaMatraU.tm" format="2">
  <advance width="3829"/>
  <note>
LlaMatraU.tm
</note>
  <outline>
    <contour>
      <point x="3325" y="702" type="curve" smooth="yes"/>
      <point x="3124" y="702"/>
      <point x="3002" y="594"/>
      <point x="2970" y="449" type="curve"/>
      <point x="2936" y="449" type="line"/>
      <point x="2936" y="309" type="line"/>
      <point x="2952" y="309" type="line"/>
      <point x="2993" y="446"/>
      <point x="3100" y="521"/>
      <point x="3249" y="521" type="curve" smooth="yes"/>
      <point x="3437" y="521"/>
      <point x="3511" y="421"/>
      <point x="3511" y="232" type="curve" smooth="yes"/>
      <point x="3511" y="227" type="line" smooth="yes"/>
      <point x="3511" y="-245"/>
      <point x="3098" y="-500"/>
      <point x="2095" y="-500" type="curve" smooth="yes"/>
      <point x="2023" y="-500" type="line" smooth="yes"/>
      <point x="868" y="-500"/>
      <point x="370" y="-182"/>
      <point x="370" y="530" type="curve" smooth="yes"/>
      <point x="370" y="756"/>
      <point x="413" y="947"/>
      <point x="498" y="1121" type="curve"/>
      <point x="273" y="1121" type="line"/>
      <point x="205" y="982"/>
      <point x="158" y="766"/>
      <point x="158" y="528" type="curve" smooth="yes"/>
      <point x="158" y="-288"/>
      <point x="745" y="-672"/>
      <point x="2029" y="-672" type="curve" smooth="yes"/>
      <point x="2092" y="-672" type="line" smooth="yes"/>
      <point x="3232" y="-672"/>
      <point x="3721" y="-356"/>
      <point x="3721" y="236" type="curve" smooth="yes"/>
      <point x="3721" y="241" type="line" smooth="yes"/>
      <point x="3721" y="539"/>
      <point x="3602" y="702"/>
    </contour>
    <contour>
      <point x="2759" y="1068" type="line"/>
      <point x="2759" y="0" type="line"/>
      <point x="2966" y="0" type="line"/>
      <point x="2966" y="1068" type="line"/>
    </contour>
    <contour>
      <point x="1511" y="1149" type="curve" smooth="yes"/>
      <point x="1035" y="1149"/>
      <point x="798" y="909"/>
      <point x="798" y="498" type="curve" smooth="yes"/>
      <point x="798" y="477" type="line" smooth="yes"/>
      <point x="798" y="177"/>
      <point x="945" y="-24"/>
      <point x="1290" y="-24" type="curve" smooth="yes"/>
      <point x="1601" y="-24"/>
      <point x="1728" y="131"/>
      <point x="1728" y="353" type="curve" smooth="yes"/>
      <point x="1728" y="356" type="line" smooth="yes"/>
      <point x="1728" y="579"/>
      <point x="1605" y="702"/>
      <point x="1361" y="702" type="curve" smooth="yes"/>
      <point x="1161" y="702"/>
      <point x="1036" y="604"/>
      <point x="999" y="485" type="curve"/>
      <point x="986" y="485" type="line"/>
      <point x="988" y="369" type="line"/>
      <point x="1018" y="461"/>
      <point x="1129" y="539"/>
      <point x="1287" y="539" type="curve" smooth="yes"/>
      <point x="1453" y="539"/>
      <point x="1530" y="469"/>
      <point x="1530" y="342" type="curve" smooth="yes"/>
      <point x="1530" y="340" type="line" smooth="yes"/>
      <point x="1530" y="218"/>
      <point x="1452" y="134"/>
      <point x="1284" y="134" type="curve" smooth="yes"/>
      <point x="1088" y="134"/>
      <point x="1000" y="244"/>
      <point x="1000" y="412" type="curve"/>
      <point x="1002" y="485" type="line"/>
      <point x="993" y="485" type="line"/>
      <point x="993" y="491"/>
      <point x="993" y="496"/>
      <point x="993" y="502" type="curve" smooth="yes"/>
      <point x="998" y="814"/>
      <point x="1170" y="978"/>
      <point x="1528" y="978" type="curve" smooth="yes"/>
      <point x="1896" y="978"/>
      <point x="2036" y="806"/>
      <point x="2036" y="455" type="curve" smooth="yes"/>
      <point x="2036" y="0" type="line"/>
      <point x="2242" y="0" type="line"/>
      <point x="2242" y="959" type="line"/>
      <point x="3111" y="959" type="line"/>
      <point x="3111" y="1121" type="line"/>
      <point x="2097" y="1121" type="line"/>
      <point x="2103" y="783" type="line"/>
      <point x="2096" y="783" type="line"/>
      <point x="2052" y="978"/>
      <point x="1900" y="1149"/>
    </contour>
    <component base="RaBeak_Nonexporting" xOffset="2883"/>
  </outline>
</glyph>
<glyph name="LlaMatraU_Simple.tm" format="2">
  <advance width="3866"/>
  <note>
LlaMatraU.tm
</note>
  <outline>
    <contour>
      <point x="3362" y="702" type="curve" smooth="yes"/>
      <point x="3162" y="702"/>
      <point x="3041" y="594"/>
      <point x="3009" y="449" type="curve"/>
      <point x="2973" y="449" type="line"/>
      <point x="2973" y="309" type="line"/>
      <point x="2989" y="309" type="line"/>
      <point x="3030" y="446"/>
      <point x="3137" y="521"/>
      <point x="3286" y="521" type="curve" smooth="yes"/>
      <point x="3474" y="521"/>
      <point x="3548" y="421"/>
      <point x="3548" y="232" type="curve" smooth="yes"/>
      <point x="3548" y="227" type="line" smooth="yes"/>
      <point x="3548" y="-245"/>
      <point x="3135" y="-500"/>
      <point x="2132" y="-500" type="curve" smooth="yes"/>
      <point x="2060" y="-500" type="line" smooth="yes"/>
      <point x="905" y="-500"/>
      <point x="407" y="-182"/>
      <point x="407" y="530" type="curve"/>
      <point x="407" y="1121" type="line"/>
      <point x="195" y="1121" type="line"/>
      <point x="195" y="528" type="line"/>
      <point x="195" y="-288"/>
      <point x="782" y="-672"/>
      <point x="2066" y="-672" type="curve" smooth="yes"/>
      <point x="2129" y="-672" type="line" smooth="yes"/>
      <point x="3269" y="-672"/>
      <point x="3758" y="-356"/>
      <point x="3758" y="236" type="curve" smooth="yes"/>
      <point x="3758" y="241" type="line" smooth="yes"/>
      <point x="3758" y="539"/>
      <point x="3639" y="702"/>
    </contour>
    <contour>
      <point x="2796" y="1068" type="line"/>
      <point x="2796" y="0" type="line"/>
      <point x="3003" y="0" type="line"/>
      <point x="3003" y="1068" type="line"/>
    </contour>
    <contour>
      <point x="1548" y="1149" type="curve" smooth="yes"/>
      <point x="1072" y="1149"/>
      <point x="835" y="909"/>
      <point x="835" y="498" type="curve" smooth="yes"/>
      <point x="835" y="477" type="line" smooth="yes"/>
      <point x="835" y="177"/>
      <point x="982" y="-24"/>
      <point x="1327" y="-24" type="curve" smooth="yes"/>
      <point x="1638" y="-24"/>
      <point x="1765" y="131"/>
      <point x="1765" y="353" type="curve" smooth="yes"/>
      <point x="1765" y="356" type="line" smooth="yes"/>
      <point x="1765" y="579"/>
      <point x="1642" y="702"/>
      <point x="1398" y="702" type="curve" smooth="yes"/>
      <point x="1198" y="702"/>
      <point x="1073" y="604"/>
      <point x="1036" y="485" type="curve"/>
      <point x="1023" y="485" type="line"/>
      <point x="1025" y="369" type="line"/>
      <point x="1055" y="461"/>
      <point x="1166" y="539"/>
      <point x="1324" y="539" type="curve" smooth="yes"/>
      <point x="1490" y="539"/>
      <point x="1567" y="469"/>
      <point x="1567" y="342" type="curve" smooth="yes"/>
      <point x="1567" y="340" type="line" smooth="yes"/>
      <point x="1567" y="218"/>
      <point x="1489" y="134"/>
      <point x="1321" y="134" type="curve" smooth="yes"/>
      <point x="1125" y="134"/>
      <point x="1037" y="244"/>
      <point x="1037" y="412" type="curve"/>
      <point x="1039" y="485" type="line"/>
      <point x="1030" y="485" type="line"/>
      <point x="1030" y="491"/>
      <point x="1030" y="496"/>
      <point x="1030" y="502" type="curve" smooth="yes"/>
      <point x="1035" y="814"/>
      <point x="1207" y="978"/>
      <point x="1565" y="978" type="curve" smooth="yes"/>
      <point x="1933" y="978"/>
      <point x="2073" y="806"/>
      <point x="2073" y="455" type="curve" smooth="yes"/>
      <point x="2073" y="0" type="line"/>
      <point x="2279" y="0" type="line"/>
      <point x="2279" y="959" type="line"/>
      <point x="3148" y="959" type="line"/>
      <point x="3148" y="1121" type="line"/>
      <point x="2134" y="1121" type="line"/>
      <point x="2140" y="783" type="line"/>
      <point x="2133" y="783" type="line"/>
      <point x="2089" y="978"/>
      <point x="1937" y="1149"/>
    </contour>
    <component base="RaBeak_Nonexporting" xOffset="2920"/>
  </outline>
</glyph>
<glyph name="LlaMatraUu.tm" format="2">
  <advance width="4291"/>
  <note>
LlaMatraUu.tm
</note>
  <outline>
    <contour>
      <point x="1971" y="1149" type="curve" smooth="yes"/>
      <point x="1495" y="1149"/>
      <point x="1258" y="909"/>
      <point x="1258" y="498" type="curve" smooth="yes"/>
      <point x="1258" y="477" type="line" smooth="yes"/>
      <point x="1258" y="177"/>
      <point x="1405" y="-24"/>
      <point x="1750" y="-24" type="curve" smooth="yes"/>
      <point x="2061" y="-24"/>
      <point x="2188" y="131"/>
      <point x="2188" y="353" type="curve" smooth="yes"/>
      <point x="2188" y="356" type="line" smooth="yes"/>
      <point x="2188" y="579"/>
      <point x="2065" y="702"/>
      <point x="1821" y="702" type="curve" smooth="yes"/>
      <point x="1621" y="702"/>
      <point x="1496" y="604"/>
      <point x="1459" y="485" type="curve"/>
      <point x="1446" y="485" type="line"/>
      <point x="1448" y="369" type="line"/>
      <point x="1478" y="461"/>
      <point x="1589" y="539"/>
      <point x="1747" y="539" type="curve" smooth="yes"/>
      <point x="1913" y="539"/>
      <point x="1990" y="469"/>
      <point x="1990" y="342" type="curve" smooth="yes"/>
      <point x="1990" y="340" type="line" smooth="yes"/>
      <point x="1990" y="218"/>
      <point x="1912" y="134"/>
      <point x="1744" y="134" type="curve" smooth="yes"/>
      <point x="1548" y="134"/>
      <point x="1460" y="244"/>
      <point x="1460" y="412" type="curve"/>
      <point x="1462" y="485" type="line"/>
      <point x="1453" y="485" type="line"/>
      <point x="1453" y="491"/>
      <point x="1453" y="496"/>
      <point x="1453" y="502" type="curve" smooth="yes"/>
      <point x="1458" y="814"/>
      <point x="1630" y="978"/>
      <point x="1988" y="978" type="curve" smooth="yes"/>
      <point x="2356" y="978"/>
      <point x="2496" y="806"/>
      <point x="2496" y="455" type="curve" smooth="yes"/>
      <point x="2496" y="0" type="line"/>
      <point x="2702" y="0" type="line"/>
      <point x="2702" y="959" type="line"/>
      <point x="3570" y="959" type="line"/>
      <point x="3570" y="1121" type="line"/>
      <point x="2557" y="1121" type="line"/>
      <point x="2563" y="783" type="line"/>
      <point x="2556" y="783" type="line"/>
      <point x="2512" y="978"/>
      <point x="2360" y="1149"/>
    </contour>
    <contour>
      <point x="3219" y="1069" type="line"/>
      <point x="3219" y="0" type="line"/>
      <point x="3426" y="0" type="line"/>
      <point x="3426" y="1069" type="line"/>
    </contour>
    <contour>
      <point x="3787" y="702" type="curve" smooth="yes"/>
      <point x="3586" y="702"/>
      <point x="3465" y="595"/>
      <point x="3433" y="449" type="curve"/>
      <point x="3397" y="449" type="line"/>
      <point x="3397" y="309" type="line"/>
      <point x="3412" y="309" type="line"/>
      <point x="3453" y="447"/>
      <point x="3561" y="522"/>
      <point x="3711" y="522" type="curve" smooth="yes"/>
      <point x="3899" y="522"/>
      <point x="3973" y="422"/>
      <point x="3973" y="232" type="curve" smooth="yes"/>
      <point x="3973" y="227" type="line" smooth="yes"/>
      <point x="3973" y="-269"/>
      <point x="3485" y="-546"/>
      <point x="2336" y="-546" type="curve" smooth="yes"/>
      <point x="2268" y="-546" type="line" smooth="yes"/>
      <point x="940" y="-546"/>
      <point x="356" y="-220"/>
      <point x="356" y="535" type="curve" smooth="yes"/>
      <point x="356" y="544" type="line"/>
      <point x="356" y="556" type="line"/>
      <point x="359" y="848"/>
      <point x="458" y="984"/>
      <point x="643" y="984" type="curve" smooth="yes"/>
      <point x="796" y="984"/>
      <point x="870" y="897"/>
      <point x="870" y="747" type="curve" smooth="yes"/>
      <point x="870" y="744" type="line" smooth="yes"/>
      <point x="870" y="591"/>
      <point x="794" y="503"/>
      <point x="615" y="503" type="curve" smooth="yes"/>
      <point x="489" y="503"/>
      <point x="382" y="544"/>
      <point x="345" y="594" type="curve"/>
      <point x="340" y="594" type="line"/>
      <point x="340" y="544" type="line"/>
      <point x="361" y="544" type="line"/>
      <point x="422" y="395" type="line"/>
      <point x="463" y="372"/>
      <point x="547" y="343"/>
      <point x="666" y="343" type="curve" smooth="yes"/>
      <point x="947" y="343"/>
      <point x="1072" y="495"/>
      <point x="1072" y="740" type="curve" smooth="yes"/>
      <point x="1072" y="743" type="line" smooth="yes"/>
      <point x="1072" y="991"/>
      <point x="939" y="1149"/>
      <point x="653" y="1149" type="curve" smooth="yes"/>
      <point x="324" y="1149"/>
      <point x="152" y="948"/>
      <point x="152" y="523" type="curve" smooth="yes"/>
      <point x="152" y="503" type="line" smooth="yes"/>
      <point x="152" y="-316"/>
      <point x="814" y="-720"/>
      <point x="2270" y="-720" type="curve" smooth="yes"/>
      <point x="2334" y="-720" type="line" smooth="yes"/>
      <point x="3616" y="-720"/>
      <point x="4183" y="-378"/>
      <point x="4183" y="236" type="curve" smooth="yes"/>
      <point x="4183" y="241" type="line" smooth="yes"/>
      <point x="4183" y="540"/>
      <point x="4064" y="702"/>
    </contour>
    <component base="RaBeak_Nonexporting" xOffset="3343"/>
  </outline>
</glyph>
<glyph name="LllaMatraI_Fly.tm" format="2">
  <advance width="2102"/>
  <note>
LllaMatraI.tm
</note>
  <anchor x="1067" y="1236" name="top"/>
  <outline>
    <contour>
      <point x="941" y="-759" type="curve" smooth="yes"/>
      <point x="1226" y="-759"/>
      <point x="1336" y="-638"/>
      <point x="1437" y="-454" type="curve" smooth="yes"/>
      <point x="1449" y="-430" type="line" smooth="yes"/>
      <point x="1474" y="-387"/>
      <point x="1486" y="-371"/>
      <point x="1542" y="-371" type="curve" smooth="yes"/>
      <point x="1660" y="-371" type="line"/>
      <point x="1691" y="-206" type="line"/>
      <point x="1418" y="-206" type="line" smooth="yes"/>
      <point x="1214" y="-206"/>
      <point x="1159" y="-150"/>
      <point x="1159" y="-7" type="curve" smooth="yes"/>
      <point x="1159" y="64" type="line"/>
      <point x="953" y="64" type="line"/>
      <point x="953" y="-17" type="line" smooth="yes"/>
      <point x="953" y="-232"/>
      <point x="1030" y="-321"/>
      <point x="1298" y="-338" type="curve"/>
      <point x="1298" y="-342" type="line"/>
      <point x="1271" y="-345"/>
      <point x="1255" y="-360"/>
      <point x="1238" y="-385" type="curve" smooth="yes"/>
      <point x="1229" y="-400" type="line" smooth="yes"/>
      <point x="1169" y="-504"/>
      <point x="1107" y="-596"/>
      <point x="941" y="-596" type="curve" smooth="yes"/>
      <point x="749" y="-596"/>
      <point x="652" y="-498"/>
      <point x="652" y="-308" type="curve" smooth="yes"/>
      <point x="652" y="-266"/>
      <point x="658" y="-222"/>
      <point x="666" y="-191" type="curve"/>
      <point x="462" y="-191" type="line"/>
      <point x="455" y="-220"/>
      <point x="449" y="-262"/>
      <point x="449" y="-307" type="curve" smooth="yes"/>
      <point x="449" y="-596"/>
      <point x="618" y="-759"/>
    </contour>
    <component base="MaMatraI_Fly.tm"/>
  </outline>
</glyph>
<glyph name="LllaMatraI_Simple_Fly.tm" format="2">
  <advance width="2102"/>
  <note>
LllaMatraI.tm
</note>
  <anchor x="1067" y="1236" name="top"/>
  <outline>
    <contour>
      <point x="953" y="108" type="line"/>
      <point x="953" y="-18" type="line" smooth="yes"/>
      <point x="953" y="-189"/>
      <point x="926" y="-246"/>
      <point x="755" y="-246" type="curve" smooth="yes"/>
      <point x="103" y="-246" type="line"/>
      <point x="135" y="-415" type="line"/>
      <point x="772" y="-415" type="line" smooth="yes"/>
      <point x="977" y="-415"/>
      <point x="1051" y="-351"/>
      <point x="1065" y="-176" type="curve"/>
      <point x="1071" y="-176" type="line"/>
      <point x="1094" y="-351"/>
      <point x="1166" y="-415"/>
      <point x="1361" y="-415" type="curve" smooth="yes"/>
      <point x="1687" y="-415" type="line"/>
      <point x="1718" y="-250" type="line"/>
      <point x="1372" y="-250" type="line" smooth="yes"/>
      <point x="1207" y="-250"/>
      <point x="1159" y="-189"/>
      <point x="1159" y="-9" type="curve" smooth="yes"/>
      <point x="1159" y="108" type="line"/>
    </contour>
    <component base="MaMatraI_Fly.tm"/>
  </outline>
</glyph>
<glyph name="LllaMatraU.tm" format="2">
  <advance width="2860"/>
  <note>
LllaMatraU.tm
</note>
  <anchor x="1825" y="1236" name="top"/>
  <outline>
    <contour>
      <point x="328" y="1121" type="line"/>
      <point x="235" y="946"/>
      <point x="158" y="701"/>
      <point x="158" y="373" type="curve" smooth="yes"/>
      <point x="158" y="-304"/>
      <point x="525" y="-669"/>
      <point x="1321" y="-669" type="curve" smooth="yes"/>
      <point x="1678" y="-669"/>
      <point x="1942" y="-563"/>
      <point x="2131" y="-437" type="curve" smooth="yes"/>
      <point x="2152" y="-424" type="line" smooth="yes"/>
      <point x="2195" y="-395"/>
      <point x="2228" y="-380"/>
      <point x="2280" y="-380" type="curve" smooth="yes"/>
      <point x="2410" y="-380" type="line"/>
      <point x="2440" y="-217" type="line"/>
      <point x="2168" y="-217" type="line" smooth="yes"/>
      <point x="1968" y="-217"/>
      <point x="1917" y="-156"/>
      <point x="1917" y="5" type="curve" smooth="yes"/>
      <point x="1917" y="64" type="line"/>
      <point x="1711" y="64" type="line"/>
      <point x="1711" y="-6" type="line" smooth="yes"/>
      <point x="1711" y="-164"/>
      <point x="1785" y="-272"/>
      <point x="2020" y="-291" type="curve"/>
      <point x="2020" y="-293" type="line"/>
      <point x="1995" y="-300"/>
      <point x="1968" y="-312"/>
      <point x="1942" y="-326" type="curve" smooth="yes"/>
      <point x="1926" y="-336" type="line" smooth="yes"/>
      <point x="1795" y="-418"/>
      <point x="1599" y="-495"/>
      <point x="1321" y="-495" type="curve" smooth="yes"/>
      <point x="654" y="-495"/>
      <point x="369" y="-190"/>
      <point x="369" y="375" type="curve" smooth="yes"/>
      <point x="369" y="681"/>
      <point x="440" y="907"/>
      <point x="555" y="1121" type="curve"/>
    </contour>
    <component base="Ma.tm" xOffset="758"/>
  </outline>
</glyph>
<glyph name="LllaMatraU_Simple.tm" format="2">
  <advance width="2894"/>
  <note>
LllaMatraU.tm
</note>
  <anchor x="1859" y="1236" name="top"/>
  <outline>
    <contour>
      <point x="195" y="1121" type="line"/>
      <point x="195" y="373" type="line" smooth="yes"/>
      <point x="195" y="-304"/>
      <point x="561" y="-669"/>
      <point x="1356" y="-669" type="curve" smooth="yes"/>
      <point x="1712" y="-669"/>
      <point x="1974" y="-560"/>
      <point x="2165" y="-437" type="curve" smooth="yes"/>
      <point x="2185" y="-424" type="line" smooth="yes"/>
      <point x="2229" y="-396"/>
      <point x="2262" y="-380"/>
      <point x="2314" y="-380" type="curve" smooth="yes"/>
      <point x="2443" y="-380" type="line"/>
      <point x="2474" y="-217" type="line"/>
      <point x="2201" y="-217" type="line" smooth="yes"/>
      <point x="2001" y="-217"/>
      <point x="1950" y="-156"/>
      <point x="1950" y="5" type="curve" smooth="yes"/>
      <point x="1950" y="64" type="line"/>
      <point x="1744" y="64" type="line"/>
      <point x="1744" y="-6" type="line" smooth="yes"/>
      <point x="1744" y="-164"/>
      <point x="1818" y="-272"/>
      <point x="2053" y="-291" type="curve"/>
      <point x="2053" y="-293" type="line"/>
      <point x="2029" y="-300"/>
      <point x="2001" y="-312"/>
      <point x="1976" y="-326" type="curve" smooth="yes"/>
      <point x="1959" y="-336" type="line" smooth="yes"/>
      <point x="1829" y="-418"/>
      <point x="1634" y="-495"/>
      <point x="1356" y="-495" type="curve" smooth="yes"/>
      <point x="690" y="-495"/>
      <point x="406" y="-190"/>
      <point x="406" y="375" type="curve" smooth="yes"/>
      <point x="406" y="1121" type="line"/>
    </contour>
    <component base="Ma.tm" xOffset="792"/>
  </outline>
</glyph>
<glyph name="MaMatraI.tm" format="2">
  <advance width="2713"/>
  <note>
MaMatraI.tm
</note>
  <anchor x="1067" y="1236" name="top"/>
  <outline>
    <contour>
      <point x="1946" y="1783" type="curve" smooth="yes"/>
      <point x="1599" y="1783"/>
      <point x="1386" y="1607"/>
      <point x="1386" y="1310" type="curve" smooth="yes"/>
      <point x="1386" y="1310" type="line" smooth="yes"/>
      <point x="1386" y="1219"/>
      <point x="1413" y="1125"/>
      <point x="1446" y="1067" type="curve"/>
      <point x="1639" y="1067" type="line"/>
      <point x="1610" y="1117"/>
      <point x="1587" y="1200"/>
      <point x="1587" y="1286" type="curve" smooth="yes"/>
      <point x="1587" y="1286" type="line" smooth="yes"/>
      <point x="1587" y="1499"/>
      <point x="1727" y="1613"/>
      <point x="1946" y="1613" type="curve" smooth="yes"/>
      <point x="2198" y="1613"/>
      <point x="2308" y="1491"/>
      <point x="2308" y="1198" type="curve" smooth="yes"/>
      <point x="2308" y="0" type="line"/>
      <point x="2514" y="0" type="line"/>
      <point x="2514" y="1189" type="line" smooth="yes"/>
      <point x="2514" y="1601"/>
      <point x="2342" y="1783"/>
    </contour>
    <component base="Ma.tm"/>
  </outline>
</glyph>
<glyph name="MaMatraI_Fly.tm" format="2">
  <advance width="2102"/>
  <note>
MaMatraI.tm
</note>
  <anchor x="1067" y="1236" name="top"/>
  <outline>
    <contour>
      <point x="1919" y="1610" type="line"/>
      <point x="1492" y="1610" type="line" smooth="yes"/>
      <point x="1272" y="1610"/>
      <point x="1171" y="1538"/>
      <point x="1171" y="1381" type="curve" smooth="yes"/>
      <point x="1171" y="1293"/>
      <point x="1205" y="1208"/>
      <point x="1283" y="1100" type="curve"/>
      <point x="1491" y="1100" type="line"/>
      <point x="1417" y="1191"/>
      <point x="1381" y="1258"/>
      <point x="1381" y="1323" type="curve" smooth="yes"/>
      <point x="1381" y="1409"/>
      <point x="1436" y="1442"/>
      <point x="1560" y="1442" type="curve" smooth="yes"/>
      <point x="1948" y="1442" type="line"/>
    </contour>
    <component base="Ma.tm"/>
  </outline>
</glyph>
<glyph name="MaMatraIi.tm" format="2">
  <advance width="2102"/>
  <note>
MaMatraIi.tm
</note>
  <anchor x="1067" y="1236" name="top"/>
  <outline>
    <contour>
      <point x="1732" y="1891" type="curve" smooth="yes"/>
      <point x="1369" y="1891"/>
      <point x="1177" y="1735"/>
      <point x="1177" y="1451" type="curve" smooth="yes"/>
      <point x="1177" y="1451" type="line" smooth="yes"/>
      <point x="1177" y="1292"/>
      <point x="1233" y="1173"/>
      <point x="1285" y="1107" type="curve"/>
      <point x="1487" y="1102" type="line"/>
      <point x="1424" y="1179"/>
      <point x="1369" y="1300"/>
      <point x="1369" y="1437" type="curve" smooth="yes"/>
      <point x="1369" y="1437" type="line" smooth="yes"/>
      <point x="1369" y="1616"/>
      <point x="1472" y="1715"/>
      <point x="1648" y="1736" type="curve"/>
      <point x="1648" y="1728" type="line"/>
      <point x="1684" y="1736"/>
      <point x="1729" y="1740"/>
      <point x="1775" y="1740" type="curve" smooth="yes"/>
      <point x="1948" y="1740"/>
      <point x="2023" y="1682"/>
      <point x="2023" y="1577" type="curve" smooth="yes"/>
      <point x="2023" y="1575" type="line" smooth="yes"/>
      <point x="2023" y="1479"/>
      <point x="1970" y="1429"/>
      <point x="1858" y="1429" type="curve" smooth="yes"/>
      <point x="1735" y="1429"/>
      <point x="1684" y="1492"/>
      <point x="1684" y="1595" type="curve" smooth="yes"/>
      <point x="1684" y="1596" type="line" smooth="yes"/>
      <point x="1684" y="1655"/>
      <point x="1697" y="1699"/>
      <point x="1717" y="1741" type="curve"/>
      <point x="1648" y="1737" type="line"/>
      <point x="1648" y="1730" type="line"/>
      <point x="1584" y="1705"/>
      <point x="1527" y="1648"/>
      <point x="1527" y="1545" type="curve" smooth="yes"/>
      <point x="1527" y="1543" type="line" smooth="yes"/>
      <point x="1527" y="1391"/>
      <point x="1630" y="1283"/>
      <point x="1861" y="1283" type="curve" smooth="yes"/>
      <point x="2086" y="1283"/>
      <point x="2201" y="1388"/>
      <point x="2201" y="1576" type="curve" smooth="yes"/>
      <point x="2201" y="1578" type="line" smooth="yes"/>
      <point x="2201" y="1774"/>
      <point x="2042" y="1891"/>
    </contour>
    <component base="Ma.tm"/>
  </outline>
</glyph>
<glyph name="MatraE_Simple.tm" format="2">
  <advance width="1837"/>
  <note>
MatraE.tm
</note>
  <outline>
    <contour>
      <point x="922" y="1281" type="curve" smooth="yes"/>
      <point x="420" y="1281"/>
      <point x="151" y="1014"/>
      <point x="151" y="545" type="curve" smooth="yes"/>
      <point x="151" y="526" type="line" smooth="yes"/>
      <point x="151" y="199"/>
      <point x="305" y="-24"/>
      <point x="666" y="-24" type="curve" smooth="yes"/>
      <point x="981" y="-24"/>
      <point x="1109" y="136"/>
      <point x="1109" y="367" type="curve" smooth="yes"/>
      <point x="1109" y="370" type="line" smooth="yes"/>
      <point x="1109" y="601"/>
      <point x="980" y="729"/>
      <point x="724" y="729" type="curve" smooth="yes"/>
      <point x="522" y="729"/>
      <point x="389" y="628"/>
      <point x="352" y="511" type="curve"/>
      <point x="339" y="511" type="line"/>
      <point x="341" y="393" type="line"/>
      <point x="373" y="484"/>
      <point x="494" y="566"/>
      <point x="652" y="566" type="curve" smooth="yes"/>
      <point x="830" y="566"/>
      <point x="911" y="492"/>
      <point x="911" y="356" type="curve" smooth="yes"/>
      <point x="911" y="354" type="line" smooth="yes"/>
      <point x="911" y="223"/>
      <point x="833" y="134"/>
      <point x="663" y="134" type="curve" smooth="yes"/>
      <point x="451" y="134"/>
      <point x="353" y="265"/>
      <point x="353" y="461" type="curve"/>
      <point x="355" y="511" type="line"/>
      <point x="347" y="511" type="line"/>
      <point x="347" y="526"/>
      <point x="347" y="530"/>
      <point x="347" y="544" type="curve" smooth="yes"/>
      <point x="347" y="904"/>
      <point x="548" y="1107"/>
      <point x="917" y="1107" type="curve" smooth="yes"/>
      <point x="1303" y="1107"/>
      <point x="1455" y="927"/>
      <point x="1455" y="563" type="curve" smooth="yes"/>
      <point x="1455" y="0" type="line"/>
      <point x="1662" y="0" type="line"/>
      <point x="1662" y="576" type="line" smooth="yes"/>
      <point x="1662" y="1031"/>
      <point x="1454" y="1281"/>
    </contour>
  </outline>
</glyph>
<glyph name="MatraEe_Fused.tm" format="2">
  <advance width="1667"/>
  <note>
MatraEe.tm
</note>
  <outline>
    <contour>
      <point x="971" y="1507" type="curve" smooth="yes"/>
      <point x="439" y="1507"/>
      <point x="138" y="1240"/>
      <point x="137" y="746" type="curve" smooth="yes"/>
      <point x="137" y="737" type="line" smooth="yes"/>
      <point x="137" y="243"/>
      <point x="440" y="-24"/>
      <point x="974" y="-24" type="curve" smooth="yes"/>
      <point x="1382" y="-24"/>
      <point x="1559" y="146"/>
      <point x="1559" y="396" type="curve" smooth="yes"/>
      <point x="1559" y="400" type="line" smooth="yes"/>
      <point x="1559" y="631"/>
      <point x="1418" y="756"/>
      <point x="1151" y="756" type="curve"/>
      <point x="1123" y="756" type="line"/>
      <point x="860" y="756"/>
      <point x="708" y="632"/>
      <point x="708" y="425" type="curve" smooth="yes"/>
      <point x="708" y="423" type="line" smooth="yes"/>
      <point x="708" y="299"/>
      <point x="771" y="192"/>
      <point x="854" y="144" type="curve"/>
      <point x="854" y="125" type="line"/>
      <point x="980" y="125" type="line"/>
      <point x="929" y="187"/>
      <point x="883" y="282"/>
      <point x="883" y="385" type="curve" smooth="yes"/>
      <point x="883" y="387" type="line" smooth="yes"/>
      <point x="883" y="546"/>
      <point x="978" y="627"/>
      <point x="1129" y="627" type="curve" smooth="yes"/>
      <point x="1289" y="627"/>
      <point x="1360" y="541"/>
      <point x="1360" y="395" type="curve" smooth="yes"/>
      <point x="1360" y="391" type="line" smooth="yes"/>
      <point x="1360" y="239"/>
      <point x="1251" y="136"/>
      <point x="1007" y="136" type="curve" smooth="yes"/>
      <point x="959" y="136"/>
      <point x="894" y="138"/>
      <point x="854" y="143" type="curve"/>
      <point x="854" y="138" type="line"/>
      <point x="532" y="172"/>
      <point x="337" y="362"/>
      <point x="337" y="738" type="curve" smooth="yes"/>
      <point x="337" y="745" type="line" smooth="yes"/>
      <point x="337" y="1121"/>
      <point x="533" y="1312"/>
      <point x="857" y="1345" type="curve"/>
      <point x="858" y="1338" type="line"/>
      <point x="897" y="1343"/>
      <point x="960" y="1347"/>
      <point x="1007" y="1347" type="curve" smooth="yes"/>
      <point x="1247" y="1347"/>
      <point x="1355" y="1246"/>
      <point x="1355" y="1093" type="curve" smooth="yes"/>
      <point x="1355" y="1089" type="line" smooth="yes"/>
      <point x="1355" y="945"/>
      <point x="1286" y="859"/>
      <point x="1127" y="859" type="curve" smooth="yes"/>
      <point x="978" y="859"/>
      <point x="885" y="938"/>
      <point x="885" y="1098" type="curve" smooth="yes"/>
      <point x="885" y="1100" type="line" smooth="yes"/>
      <point x="885" y="1201"/>
      <point x="930" y="1296"/>
      <point x="982" y="1357" type="curve"/>
      <point x="857" y="1356" type="line"/>
      <point x="857" y="1340" type="line"/>
      <point x="773" y="1291"/>
      <point x="709" y="1184"/>
      <point x="709" y="1061" type="curve" smooth="yes"/>
      <point x="709" y="1059" type="line" smooth="yes"/>
      <point x="709" y="854"/>
      <point x="861" y="730"/>
      <point x="1123" y="730" type="curve"/>
      <point x="1151" y="730" type="line"/>
      <point x="1414" y="730"/>
      <point x="1554" y="855"/>
      <point x="1554" y="1085" type="curve" smooth="yes"/>
      <point x="1554" y="1089" type="line" smooth="yes"/>
      <point x="1554" y="1338"/>
      <point x="1378" y="1507"/>
    </contour>
  </outline>
</glyph>
<glyph name="MatraEe_Unfused.tm" format="2">
  <advance width="1663"/>
  <note>
MatraEe.tm
</note>
  <outline>
    <contour>
      <point x="137" y="746" type="curve" smooth="yes"/>
      <point x="137" y="737" type="line" smooth="yes"/>
      <point x="137" y="243"/>
      <point x="440" y="-24"/>
      <point x="974" y="-24" type="curve" smooth="yes"/>
      <point x="1382" y="-24"/>
      <point x="1559" y="130"/>
      <point x="1559" y="356" type="curve" smooth="yes"/>
      <point x="1559" y="356" type="line" smooth="yes"/>
      <point x="1559" y="573"/>
      <point x="1413" y="690"/>
      <point x="1137" y="690" type="curve" smooth="yes"/>
      <point x="859" y="690"/>
      <point x="698" y="571"/>
      <point x="698" y="376" type="curve" smooth="yes"/>
      <point x="698" y="374" type="line" smooth="yes"/>
      <point x="698" y="271"/>
      <point x="765" y="182"/>
      <point x="854" y="144" type="curve"/>
      <point x="854" y="125" type="line"/>
      <point x="980" y="125" type="line"/>
      <point x="929" y="178"/>
      <point x="883" y="259"/>
      <point x="883" y="345" type="curve" smooth="yes"/>
      <point x="883" y="347" type="line" smooth="yes"/>
      <point x="883" y="472"/>
      <point x="978" y="536"/>
      <point x="1129" y="536" type="curve" smooth="yes"/>
      <point x="1289" y="536"/>
      <point x="1360" y="467"/>
      <point x="1360" y="351" type="curve" smooth="yes"/>
      <point x="1360" y="351" type="line" smooth="yes"/>
      <point x="1360" y="223"/>
      <point x="1251" y="136"/>
      <point x="1007" y="136" type="curve" smooth="yes"/>
      <point x="959" y="136"/>
      <point x="894" y="139"/>
      <point x="854" y="145" type="curve"/>
      <point x="854" y="138" type="line"/>
      <point x="533" y="171"/>
      <point x="337" y="361"/>
      <point x="337" y="738" type="curve" smooth="yes"/>
      <point x="337" y="745" type="line" smooth="yes"/>
      <point x="337" y="1122"/>
      <point x="533" y="1312"/>
      <point x="854" y="1345" type="curve"/>
      <point x="854" y="1338" type="line"/>
      <point x="894" y="1344"/>
      <point x="959" y="1347"/>
      <point x="1007" y="1347" type="curve" smooth="yes"/>
      <point x="1251" y="1347"/>
      <point x="1360" y="1260"/>
      <point x="1360" y="1132" type="curve" smooth="yes"/>
      <point x="1360" y="1132" type="line" smooth="yes"/>
      <point x="1360" y="1016"/>
      <point x="1289" y="947"/>
      <point x="1129" y="947" type="curve" smooth="yes"/>
      <point x="978" y="947"/>
      <point x="883" y="1011"/>
      <point x="883" y="1136" type="curve" smooth="yes"/>
      <point x="883" y="1138" type="line" smooth="yes"/>
      <point x="883" y="1224"/>
      <point x="929" y="1305"/>
      <point x="980" y="1358" type="curve"/>
      <point x="854" y="1358" type="line"/>
      <point x="854" y="1339" type="line"/>
      <point x="765" y="1301"/>
      <point x="698" y="1212"/>
      <point x="698" y="1109" type="curve" smooth="yes"/>
      <point x="698" y="1107" type="line" smooth="yes"/>
      <point x="698" y="912"/>
      <point x="859" y="793"/>
      <point x="1137" y="793" type="curve" smooth="yes"/>
      <point x="1413" y="793"/>
      <point x="1559" y="910"/>
      <point x="1559" y="1127" type="curve" smooth="yes"/>
      <point x="1559" y="1127" type="line" smooth="yes"/>
      <point x="1559" y="1353"/>
      <point x="1382" y="1506"/>
      <point x="974" y="1506" type="curve" smooth="yes"/>
      <point x="440" y="1506"/>
      <point x="137" y="1240"/>
    </contour>
  </outline>
</glyph>
<glyph name="MatraIDflt_Fly.tm" format="2">
  <note>
MatraIDflt.tm
</note>
  <outline>
    <contour>
      <point x="759" y="1610" type="line"/>
      <point x="341" y="1610" type="line" smooth="yes"/>
      <point x="115" y="1610"/>
      <point x="10" y="1538"/>
      <point x="10" y="1381" type="curve" smooth="yes"/>
      <point x="10" y="1296"/>
      <point x="42" y="1213"/>
      <point x="112" y="1114" type="curve"/>
      <point x="318" y="1114" type="line"/>
      <point x="254" y="1194"/>
      <point x="221" y="1260"/>
      <point x="221" y="1323" type="curve" smooth="yes"/>
      <point x="221" y="1409"/>
      <point x="275" y="1442"/>
      <point x="399" y="1442" type="curve" smooth="yes"/>
      <point x="788" y="1442" type="line"/>
    </contour>
  </outline>
</glyph>
